<?xml version="1.0" encoding="utf-8"?>
<!-- Generator: Adobe Illustrator 26.1.0, SVG Export Plug-In . SVG Version: 6.00 Build 0)  -->
<svg version="1.1" id="Layer_1" xmlns="http://www.w3.org/2000/svg" x="0px" y="0px" viewBox="0 0 25 25" style="enable-background:new 0 0 25 25;" xml:space="preserve">
<style type="text/css">
	.st0{fill:#DC1518;}
</style>
<g>
	<path class="st0" d="M12.79,2.5c0.36,0.1,0.71,0.2,1.01,0.44c0.64,0.51,0.94,1.16,0.87,1.97c-0.02,0.16,0.02,0.24,0.18,0.31
		c2.28,1.01,3.61,2.76,4.02,5.21c0.06,0.33,0.05,0.67,0.06,1.01c0.01,1.18,0,2.35,0,3.53c0,0.33,0.05,0.38,0.38,0.4
		c1.07,0.07,1.94,0.81,2.16,1.84c0.25,1.18-0.58,2.42-1.78,2.63c-0.16,0.03-0.32,0.04-0.48,0.04c-1.2,0-2.4,0-3.61,0
		c-0.07,0-0.14,0-0.21,0c-0.26,1.74-1.75,2.65-3.06,2.58c-1.13-0.06-2.49-0.9-2.74-2.58c-0.07,0-0.14,0-0.21,0
		c-1.21,0-2.42,0-3.63,0c-1.18,0-2.18-0.9-2.28-2.01c-0.12-1.4,0.96-2.36,1.99-2.48c0.07-0.01,0.14-0.02,0.21-0.03
		c0.3-0.02,0.36-0.08,0.36-0.4c0-1.23,0.01-2.47,0-3.7C6.03,9.96,6.37,8.75,7.1,7.65c0.75-1.14,1.77-1.96,3.04-2.46
		c0.13-0.05,0.18-0.11,0.16-0.25c-0.15-1.26,0.78-2.27,1.82-2.42c0.02,0,0.03-0.02,0.05-0.03C12.38,2.5,12.58,2.5,12.79,2.5z
		 M12.47,18.6c2.19,0,4.38,0,6.57,0c0.08,0,0.16,0,0.23,0c0.51-0.04,0.89-0.4,0.93-0.86c0.04-0.47-0.26-0.89-0.75-1.02
		c-0.08-0.02-0.17-0.03-0.25-0.03c-0.99-0.02-1.61-0.82-1.58-1.72c0.04-1.2,0.01-2.4,0.01-3.6c0-0.66-0.12-1.3-0.35-1.92
		c-1.1-2.9-4.36-4.22-7.09-2.83C8.35,7.53,7.4,9.09,7.34,11.15c-0.04,1.32-0.01,2.64-0.01,3.96c0,0.75-0.48,1.35-1.2,1.52
		c-0.16,0.04-0.33,0.04-0.5,0.06c-0.41,0.05-0.76,0.36-0.85,0.77c-0.08,0.38,0.1,0.82,0.47,1c0.18,0.09,0.41,0.13,0.62,0.13
		C8.07,18.6,10.27,18.6,12.47,18.6z M10.92,19.9c0.13,0.74,0.84,1.3,1.59,1.28c0.74-0.02,1.44-0.61,1.51-1.28
		C13,19.9,11.97,19.9,10.92,19.9z M13.35,4.78c0.08-0.27-0.07-0.62-0.35-0.82c-0.31-0.22-0.72-0.23-1.04-0.01
		c-0.29,0.2-0.44,0.54-0.37,0.83C12.19,4.78,12.77,4.78,13.35,4.78z"/>
	<path class="st0" d="M4.13,10.23c-0.41,0-0.7-0.36-0.62-0.76c0.3-1.44,0.95-2.72,1.9-3.85c0.13-0.15,0.27-0.3,0.41-0.45
		c0.33-0.34,0.7-0.37,0.99-0.09c0.29,0.28,0.27,0.66-0.06,1C5.94,6.91,5.34,7.88,4.98,8.99C4.9,9.24,4.84,9.5,4.76,9.75
		C4.67,10.06,4.44,10.23,4.13,10.23z"/>
	<path class="st0" d="M20.8,10.22c-0.32-0.01-0.55-0.21-0.63-0.58c-0.14-0.62-0.36-1.21-0.66-1.78c-0.36-0.69-0.81-1.3-1.35-1.85
		c-0.19-0.19-0.26-0.41-0.18-0.68c0.08-0.25,0.26-0.4,0.52-0.44c0.21-0.04,0.4,0.03,0.55,0.18c1.21,1.21,2.01,2.66,2.39,4.34
		C21.54,9.87,21.24,10.24,20.8,10.22z"/>
</g>
</svg>
