<svg width="96" height="97" viewBox="0 0 96 97" fill="none" xmlns="http://www.w3.org/2000/svg">
<g filter="url(#filter0_d_270_1017)">
<rect x="4" y="0.5" width="88" height="88" rx="8" fill="white"/>
<rect x="4.5" y="1" width="87" height="87" rx="7.5" stroke="#C6C6C6"/>
</g>
<path d="M17.8789 63.9102H21.3125C21.9922 63.9102 22.498 63.9395 22.8301 63.998C23.166 64.0527 23.4648 64.1699 23.7266 64.3496C23.9922 64.5293 24.2129 64.7695 24.3887 65.0703C24.5645 65.3672 24.6523 65.7012 24.6523 66.0723C24.6523 66.4746 24.543 66.8438 24.3242 67.1797C24.1094 67.5156 23.8164 67.7676 23.4453 67.9355C23.9688 68.0879 24.3711 68.3477 24.6523 68.7148C24.9336 69.082 25.0742 69.5137 25.0742 70.0098C25.0742 70.4004 24.9824 70.7812 24.7988 71.1523C24.6191 71.5195 24.3711 71.8145 24.0547 72.0371C23.7422 72.2559 23.3555 72.3906 22.8945 72.4414C22.6055 72.4727 21.9082 72.4922 20.8027 72.5H17.8789V63.9102ZM19.6133 65.3398V67.3262H20.75C21.4258 67.3262 21.8457 67.3164 22.0098 67.2969C22.3066 67.2617 22.5391 67.1602 22.707 66.9922C22.8789 66.8203 22.9648 66.5957 22.9648 66.3184C22.9648 66.0527 22.8906 65.8379 22.7422 65.6738C22.5977 65.5059 22.3809 65.4043 22.0918 65.3691C21.9199 65.3496 21.4258 65.3398 20.6094 65.3398H19.6133ZM19.6133 68.7559V71.0527H21.2188C21.8438 71.0527 22.2402 71.0352 22.4082 71C22.666 70.9531 22.875 70.8398 23.0352 70.6602C23.1992 70.4766 23.2812 70.2324 23.2812 69.9277C23.2812 69.6699 23.2188 69.4512 23.0938 69.2715C22.9688 69.0918 22.7871 68.9609 22.5488 68.8789C22.3145 68.7969 21.8027 68.7559 21.0137 68.7559H19.6133ZM28.1094 72.5H26.4629V66.2773H27.9922V67.1621C28.2539 66.7441 28.4883 66.4688 28.6953 66.3359C28.9062 66.2031 29.1445 66.1367 29.4102 66.1367C29.7852 66.1367 30.1465 66.2402 30.4941 66.4473L29.9844 67.8828C29.707 67.7031 29.4492 67.6133 29.2109 67.6133C28.9805 67.6133 28.7852 67.6777 28.625 67.8066C28.4648 67.9316 28.3379 68.1602 28.2441 68.4922C28.1543 68.8242 28.1094 69.5195 28.1094 70.5781V72.5ZM32.4395 68.1758L30.9453 67.9062C31.1133 67.3047 31.4023 66.8594 31.8125 66.5703C32.2227 66.2812 32.832 66.1367 33.6406 66.1367C34.375 66.1367 34.9219 66.2246 35.2812 66.4004C35.6406 66.5723 35.8926 66.793 36.0371 67.0625C36.1855 67.3281 36.2598 67.8184 36.2598 68.5332L36.2422 70.4551C36.2422 71.002 36.2676 71.4062 36.3184 71.668C36.373 71.9258 36.4727 72.2031 36.6172 72.5H34.9883C34.9453 72.3906 34.8926 72.2285 34.8301 72.0137C34.8027 71.916 34.7832 71.8516 34.7715 71.8203C34.4902 72.0938 34.1895 72.2988 33.8691 72.4355C33.5488 72.5723 33.207 72.6406 32.8438 72.6406C32.2031 72.6406 31.6973 72.4668 31.3262 72.1191C30.959 71.7715 30.7754 71.332 30.7754 70.8008C30.7754 70.4492 30.8594 70.1367 31.0273 69.8633C31.1953 69.5859 31.4297 69.375 31.7305 69.2305C32.0352 69.082 32.4727 68.9531 33.043 68.8438C33.8125 68.6992 34.3457 68.5645 34.6426 68.4395V68.2754C34.6426 67.959 34.5645 67.7344 34.4082 67.6016C34.252 67.4648 33.957 67.3965 33.5234 67.3965C33.2305 67.3965 33.002 67.4551 32.8379 67.5723C32.6738 67.6855 32.541 67.8867 32.4395 68.1758ZM34.6426 69.5117C34.4316 69.582 34.0977 69.666 33.6406 69.7637C33.1836 69.8613 32.8848 69.957 32.7441 70.0508C32.5293 70.2031 32.4219 70.3965 32.4219 70.6309C32.4219 70.8613 32.5078 71.0605 32.6797 71.2285C32.8516 71.3965 33.0703 71.4805 33.3359 71.4805C33.6328 71.4805 33.916 71.3828 34.1855 71.1875C34.3848 71.0391 34.5156 70.8574 34.5781 70.6426C34.6211 70.502 34.6426 70.2344 34.6426 69.8398V69.5117ZM37.8887 65.4336V63.9102H39.5352V65.4336H37.8887ZM37.8887 72.5V66.2773H39.5352V72.5H37.8887ZM46.8887 72.5H45.2422V69.3242C45.2422 68.6523 45.207 68.2188 45.1367 68.0234C45.0664 67.8242 44.9512 67.6699 44.791 67.5605C44.6348 67.4512 44.4453 67.3965 44.2227 67.3965C43.9375 67.3965 43.6816 67.4746 43.4551 67.6309C43.2285 67.7871 43.0723 67.9941 42.9863 68.252C42.9043 68.5098 42.8633 68.9863 42.8633 69.6816V72.5H41.2168V66.2773H42.7461V67.1914C43.2891 66.4883 43.9727 66.1367 44.7969 66.1367C45.1602 66.1367 45.4922 66.2031 45.793 66.3359C46.0938 66.4648 46.3203 66.6309 46.4727 66.834C46.6289 67.0371 46.7363 67.2676 46.7949 67.5254C46.8574 67.7832 46.8887 68.1523 46.8887 68.6328V72.5ZM51.9219 63.9102H55.3555C56.0352 63.9102 56.541 63.9395 56.873 63.998C57.209 64.0527 57.5078 64.1699 57.7695 64.3496C58.0352 64.5293 58.2559 64.7695 58.4316 65.0703C58.6074 65.3672 58.6953 65.7012 58.6953 66.0723C58.6953 66.4746 58.5859 66.8438 58.3672 67.1797C58.1523 67.5156 57.8594 67.7676 57.4883 67.9355C58.0117 68.0879 58.4141 68.3477 58.6953 68.7148C58.9766 69.082 59.1172 69.5137 59.1172 70.0098C59.1172 70.4004 59.0254 70.7812 58.8418 71.1523C58.6621 71.5195 58.4141 71.8145 58.0977 72.0371C57.7852 72.2559 57.3984 72.3906 56.9375 72.4414C56.6484 72.4727 55.9512 72.4922 54.8457 72.5H51.9219V63.9102ZM53.6562 65.3398V67.3262H54.793C55.4688 67.3262 55.8887 67.3164 56.0527 67.2969C56.3496 67.2617 56.582 67.1602 56.75 66.9922C56.9219 66.8203 57.0078 66.5957 57.0078 66.3184C57.0078 66.0527 56.9336 65.8379 56.7852 65.6738C56.6406 65.5059 56.4238 65.4043 56.1348 65.3691C55.9629 65.3496 55.4688 65.3398 54.6523 65.3398H53.6562ZM53.6562 68.7559V71.0527H55.2617C55.8867 71.0527 56.2832 71.0352 56.4512 71C56.709 70.9531 56.918 70.8398 57.0781 70.6602C57.2422 70.4766 57.3242 70.2324 57.3242 69.9277C57.3242 69.6699 57.2617 69.4512 57.1367 69.2715C57.0117 69.0918 56.8301 68.9609 56.5918 68.8789C56.3574 68.7969 55.8457 68.7559 55.0566 68.7559H53.6562ZM60.1953 69.3008C60.1953 68.7539 60.3301 68.2246 60.5996 67.7129C60.8691 67.2012 61.25 66.8105 61.7422 66.541C62.2383 66.2715 62.791 66.1367 63.4004 66.1367C64.3418 66.1367 65.1133 66.4434 65.7148 67.0566C66.3164 67.666 66.6172 68.4375 66.6172 69.3711C66.6172 70.3125 66.3125 71.0938 65.7031 71.7148C65.0977 72.332 64.334 72.6406 63.4121 72.6406C62.8418 72.6406 62.2969 72.5117 61.7773 72.2539C61.2617 71.9961 60.8691 71.6191 60.5996 71.123C60.3301 70.623 60.1953 70.0156 60.1953 69.3008ZM61.8828 69.3887C61.8828 70.0059 62.0293 70.4785 62.3223 70.8066C62.6152 71.1348 62.9766 71.2988 63.4062 71.2988C63.8359 71.2988 64.1953 71.1348 64.4844 70.8066C64.7773 70.4785 64.9238 70.002 64.9238 69.377C64.9238 68.7676 64.7773 68.2988 64.4844 67.9707C64.1953 67.6426 63.8359 67.4785 63.4062 67.4785C62.9766 67.4785 62.6152 67.6426 62.3223 67.9707C62.0293 68.2988 61.8828 68.7715 61.8828 69.3887ZM67.1211 72.5L69.3652 69.2949L67.2148 66.2773H69.2246L70.3262 67.9883L71.4863 66.2773H73.4199L71.3105 69.2246L73.6133 72.5H71.5918L70.3262 70.5723L69.0488 72.5H67.1211Z" fill="#48484A"/>
<path d="M47.1497 19.8702C47.1522 20.053 47.1313 20.2887 47.2467 20.4062C47.4382 20.6029 47.7091 20.7953 47.985 20.8585C48.3529 20.9429 48.6422 20.727 48.7702 20.4157C48.8404 20.2461 48.8563 20.053 48.858 19.8702C48.8672 19.0992 48.8479 18.3275 48.8672 17.5566C48.878 17.1094 48.7434 16.746 48.2969 16.5C48.1021 16.5 47.9064 16.5 47.7116 16.5C47.2642 16.7452 47.1296 17.1094 47.1413 17.5566C47.1589 18.3268 47.1405 19.0985 47.1497 19.8702Z" fill="#E21E27"/>
<path d="M33.0021 34.0373C32.992 33.6085 32.6275 33.3207 32.0497 33.3082C31.5463 33.2972 31.0421 33.306 30.5379 33.306C30.0178 33.306 29.4977 33.2979 28.9776 33.3082C28.3989 33.3192 28.0235 33.6041 28.0009 34.0256C27.9792 34.4367 28.3463 34.7767 28.914 34.7892C29.9701 34.8119 31.027 34.8119 32.0831 34.7906C32.6684 34.7796 33.0121 34.4676 33.0021 34.0373Z" fill="#E21E27"/>
<path d="M67.0538 33.309C66.5337 33.2958 66.0136 33.3061 65.4935 33.3061C64.9734 33.3061 64.4524 33.2958 63.9332 33.309C63.3596 33.3237 62.9992 33.621 63 34.0535C63 34.4728 63.3244 34.7753 63.8872 34.7878C64.9592 34.8113 66.0328 34.8105 67.1048 34.7878C67.6516 34.776 68.002 34.4537 68.0011 34.0528C67.9995 33.6328 67.6199 33.3237 67.0538 33.309Z" fill="#E21E27"/>
<path d="M38.65 21.3166C38.8941 21.6859 39.1274 22.0618 39.395 22.4172C39.6107 22.7036 39.9343 22.8262 40.3256 22.7205C40.712 22.6162 40.9009 22.3688 40.9285 21.9568C40.8909 21.8665 40.8524 21.7101 40.7671 21.5772C40.2562 20.7843 39.7428 19.9927 39.2127 19.2093C38.8983 18.7453 38.4259 18.6226 37.986 18.8583C37.5788 19.0764 37.4793 19.5023 37.7553 19.9458C38.0429 20.4076 38.3489 20.8606 38.65 21.3166Z" fill="#E21E27"/>
<path d="M56.0645 22.7543C56.169 22.6904 56.4617 22.6008 56.588 22.421C57.1925 21.5626 57.7678 20.6874 58.3188 19.8012C58.5413 19.4443 58.3598 19.0266 57.9869 18.8423C57.6081 18.6558 57.1591 18.7108 56.9141 19.0589C56.302 19.9304 55.705 20.8122 55.1606 21.7168C54.8721 22.197 55.3019 22.7418 56.0645 22.7543Z" fill="#E21E27"/>
<path d="M31.0745 26.3292C31.9683 26.7888 32.8664 27.2441 33.7678 27.6927C33.9183 27.7676 34.0972 27.7999 34.1691 27.8226C34.6817 27.8344 34.9669 27.664 35.0831 27.3292C35.211 26.9577 35.0588 26.6493 34.68 26.4533C33.746 25.9694 32.812 25.4826 31.8588 25.0296C31.6564 24.9334 31.3136 24.8893 31.1322 24.9767C30.8955 25.0898 30.6656 25.3358 30.5928 25.5641C30.4858 25.8982 30.745 26.1603 31.0745 26.3292Z" fill="#E21E27"/>
<path d="M62.1934 27.711C63.1115 27.2602 64.0304 26.8079 64.9226 26.3197C65.171 26.1831 65.3265 25.9158 65.4344 25.8035C65.4427 25.0905 64.7771 24.7285 64.1851 25.0083C63.216 25.4657 62.2653 25.9555 61.3237 26.4562C60.8613 26.7022 60.7543 27.1258 60.9976 27.4886C61.2309 27.8359 61.7243 27.9416 62.1934 27.711Z" fill="#E21E27"/>
<path d="M33.8516 40.3818C32.8983 40.8371 31.961 41.3202 31.0311 41.8121C30.5654 42.0588 30.4492 42.4803 30.6917 42.8386C30.9308 43.1918 31.4124 43.3049 31.8824 43.0758C32.8172 42.6205 33.7495 42.158 34.6568 41.6624C34.8892 41.5353 35.0272 41.2747 35.1175 41.1756C35.1334 40.4259 34.4795 40.0815 33.8516 40.3818Z" fill="#E21E27"/>
<path d="M64.9647 41.8035C64.0457 41.3248 63.1217 40.8519 62.1836 40.4018C61.9887 40.3086 61.676 40.2381 61.5046 40.3122C61.2588 40.4187 61.0046 40.6397 60.9134 40.8622C60.7721 41.2066 61.0012 41.4966 61.3549 41.6787C62.2638 42.1457 63.1753 42.6075 64.0917 43.0627C64.2431 43.1376 64.4228 43.167 64.5416 43.203C64.9889 43.167 65.2741 43.0179 65.3886 42.6684C65.5182 42.2771 65.3309 41.9937 64.9647 41.8035Z" fill="#E21E27"/>
<path d="M58.249 42.7628C61.2626 39.7876 62.3596 36.2684 61.5093 32.3028C60.8696 29.321 58.933 26.6821 56.0549 24.873C53.1826 23.0675 49.7058 22.2951 46.2642 22.6981C43.1645 23.0609 40.2638 24.3517 38.0964 26.3326C35.9257 28.3158 34.5745 30.9158 34.2902 33.6523C33.9557 36.8822 35.0277 39.8713 37.4785 42.5366C38.2879 43.417 38.9326 44.243 39.4494 45.061C40.1777 46.2145 40.3315 47.5361 40.385 48.5589C40.4051 48.9378 40.37 49.2645 40.1367 49.6258C39.701 50.3005 39.6542 51.1075 40.0088 51.841C40.3742 52.5972 41.0941 53.1457 41.9838 53.3476C42.1176 53.3777 42.2522 53.3998 42.3835 53.4211C42.396 53.4233 42.4086 53.4247 42.4211 53.4269C42.3994 55.1553 43.2431 56.3008 43.9638 56.9608C45.0024 57.9124 46.4832 58.4873 47.9231 58.4998C47.939 58.4998 47.9549 58.4998 47.97 58.4998C49.3998 58.4998 50.8756 57.9418 51.9276 57.002C52.6659 56.3419 53.5313 55.1898 53.5138 53.4262C53.584 53.4093 53.6559 53.3924 53.7262 53.3792C54.6978 53.1986 55.4838 52.6567 55.8843 51.8931C56.2731 51.1508 56.2347 50.3027 55.7781 49.567C55.5825 49.2513 55.5122 48.9503 55.5373 48.5295C55.6669 46.3224 56.5541 44.4361 58.249 42.7628ZM50.3296 56.206C49.1682 57.0482 47.4875 57.1796 46.1471 56.532C44.8686 55.9145 44.1478 54.7442 44.2415 53.4541H51.7001C51.7695 54.5701 51.3088 55.4953 50.3296 56.206ZM53.0338 51.8858C51.849 51.888 50.6633 51.8872 49.4776 51.8865H48.0101H46.5911C45.3895 51.8865 44.1879 51.8872 42.9855 51.8858C42.1887 51.8843 41.6209 51.4511 41.605 50.8321C41.5975 50.5414 41.7162 50.2704 41.9395 50.07C42.1903 49.8438 42.5541 49.719 42.9629 49.7183C44.7381 49.7146 46.4264 49.7131 48.0494 49.7131C49.7836 49.7131 51.4442 49.7153 53.0556 49.719C53.4544 49.7197 53.8089 49.8424 54.0548 50.0634C54.2897 50.2748 54.4152 50.5685 54.4076 50.8894C54.3943 51.4929 53.8541 51.8843 53.0338 51.8858ZM53.763 48.2175H42.1226C42.0983 48.0684 42.0766 47.9194 42.054 47.774C41.993 47.365 41.9303 46.9428 41.8266 46.5331C41.401 44.8473 40.5222 43.3289 39.2144 42.0212C37.5688 40.3758 36.5738 38.6892 36.1724 36.8654C35.3412 33.0833 36.5253 29.8188 39.6935 27.1623C41.3792 25.7482 43.2456 24.826 45.239 24.4207C47.2366 24.0146 49.368 24.127 51.5722 24.7548C53.7395 25.3723 55.5273 26.351 56.8835 27.6638C58.249 28.9847 59.1839 30.65 59.6638 32.6126C60.5058 36.0592 59.5459 39.1768 56.8116 41.8795C54.9135 43.7548 54.1066 45.4252 53.763 48.2175Z" fill="#E21E27"/>
<path d="M57.4843 38.8056C57.6098 38.1309 57.8523 37.5332 58.2469 36.9252C58.7194 36.1976 58.6215 35.3789 57.9635 34.5529C58.7537 33.232 58.3941 31.9948 56.9676 31.149C56.9082 31.1137 56.8463 30.9977 56.8522 30.9515C57.0303 29.5131 56.1139 28.4139 54.5176 28.1518C54.3554 28.1254 54.3035 28.0762 54.1965 27.9102C54.1622 27.8574 54.128 27.8023 54.0937 27.7465C53.8821 27.4065 53.6421 27.0218 53.2725 26.8257C52.3252 26.3243 51.479 25.9432 50.6863 25.659C49.8208 25.3492 48.9052 25.5342 48.0306 26.195C47.462 25.7706 46.7713 25.5438 46.0689 25.5548C45.3573 25.5658 44.6817 25.825 44.2135 26.2655C44.1675 26.3088 44.0178 26.3353 43.9467 26.3478C42.9099 26.5298 42.2175 27.0299 41.8889 27.8331C41.7877 28.0813 41.6849 28.1599 41.4507 28.1679C41.3303 28.1723 41.2158 28.2047 41.1154 28.234L41.1004 28.2384C39.7508 28.6232 39.0409 29.712 39.2315 31.0924C39.2274 31.0946 39.2232 31.0968 39.2182 31.099C37.749 31.8355 37.2933 33.1292 38.0283 34.4736C38.0475 34.5081 38.0224 34.6418 37.9555 34.7401C37.3201 35.6785 37.4405 36.7865 38.2633 37.5618C38.4288 37.7182 38.4798 37.8555 38.4572 38.0854C38.3853 38.8211 38.6822 39.465 39.3152 39.9474C39.5777 40.1478 39.8754 40.294 40.1915 40.4489C40.301 40.5025 40.4139 40.5583 40.5251 40.6163C40.5402 41.1795 40.8086 41.7 41.2869 42.0899C41.8613 42.5576 42.6699 42.786 43.5746 42.7368C43.9743 43.4828 44.6324 43.9505 45.5321 44.1274C46.4168 44.3014 47.2345 44.1105 47.9679 43.5606C48.6134 43.9989 49.2572 44.2192 49.8869 44.2192C50.0148 44.2192 50.1428 44.2104 50.2699 44.192C51.0634 44.0775 51.795 43.5914 52.3912 42.7838C52.4021 42.783 52.413 42.783 52.4238 42.783C54.1798 42.8073 55.1021 42.1817 55.511 40.6816C55.5244 40.6324 55.6406 40.5363 55.7526 40.4981C56.7418 40.1633 57.3405 39.5788 57.4843 38.8056ZM47.2429 34.1887C47.1267 34.1953 47.0096 34.2005 46.8951 34.2056C46.4979 34.2225 46.0873 34.2401 45.6952 34.3304C45.267 34.4288 44.8765 34.6763 44.5178 34.9281C44.3263 35.0632 44.2135 35.2336 44.1926 35.4208C44.1708 35.6117 44.2486 35.8107 44.4116 35.9817C44.7444 36.3298 45.2419 36.365 45.6492 36.0677C46.1157 35.7284 46.5288 35.6411 46.9887 35.7864C47.1861 35.8489 47.2437 35.9164 47.2371 36.075C47.2203 36.4722 47.2237 36.8709 47.227 37.2557C47.2279 37.3489 47.2287 37.4422 47.2287 37.5339C47.1459 37.5185 47.0631 37.5024 46.982 37.4869C46.6417 37.4216 46.3206 37.3599 45.9861 37.3328C45.4627 37.2909 45.1082 37.5457 45.0613 37.9972C45.0112 38.4789 45.2946 38.7873 45.859 38.8659C45.9167 38.8739 45.9753 38.8791 46.0338 38.8842C46.1375 38.893 46.2345 38.9018 46.3181 38.9268C46.8834 39.1001 47.1852 39.4437 47.2136 39.9489C47.2479 40.5605 47.2488 41.1714 47.2162 41.7639C47.1877 42.2735 46.8232 42.5782 46.242 42.5782C45.6559 42.5782 45.2913 42.2691 45.2436 41.7301C45.206 41.3043 45.0655 41.0363 44.8147 40.9122C44.716 40.863 44.604 40.8388 44.4785 40.8388C44.2862 40.8388 44.0613 40.8968 43.7987 41.012C43.4091 41.1846 43.0286 41.2044 42.7284 41.0686C42.47 40.9518 42.2878 40.7242 42.2075 40.4217C42.2083 40.4217 42.2092 40.421 42.21 40.421C42.3011 40.3835 42.3965 40.3454 42.4901 40.3028C43.3154 39.9276 43.7736 39.3416 43.8531 38.5611C43.8999 38.0956 43.5913 37.7505 43.0846 37.7035C42.8053 37.6778 42.5654 37.7314 42.3914 37.8585C42.2217 37.9826 42.1205 38.1735 42.0996 38.4092C42.0729 38.7139 41.904 38.8769 41.5352 38.9554C41.0235 39.0634 40.5836 38.9628 40.2283 38.6566C39.964 38.429 40.0058 38.172 40.1747 37.777C40.3846 37.2865 40.2743 36.9928 39.7675 36.6932C39.5485 36.5633 39.4021 36.4164 39.3302 36.2549C39.3586 36.2674 39.3862 36.2806 39.4147 36.2931C39.7516 36.4451 40.1003 36.6022 40.4549 36.7454C40.6229 36.8129 40.8153 36.8144 40.985 36.8158H41.0109C41.0159 36.8158 41.0201 36.8158 41.0251 36.8158C41.5586 36.8158 41.914 36.5478 41.955 36.1146C41.9934 35.7027 41.7008 35.3877 41.1715 35.2717C41.1363 35.2637 41.0987 35.2563 41.0603 35.2482C40.8796 35.2108 40.5435 35.1403 40.4983 35.0551C40.3554 34.7857 40.1856 34.5272 40.0217 34.2761C39.8093 33.9516 39.6078 33.6447 39.459 33.3157C39.3645 33.1072 39.4063 32.8693 39.5744 32.6622C39.7709 32.4199 40.0961 32.2716 40.408 32.2826C40.8027 32.2981 41.041 32.489 41.097 32.834C41.1832 33.3656 41.5427 33.6586 42.0586 33.6182C42.3137 33.5984 42.5252 33.5044 42.6699 33.3473C42.8321 33.1711 42.8965 32.931 42.858 32.6527C42.7451 31.8531 42.2426 31.254 41.4039 30.9206C41.3512 30.8993 41.2944 30.881 41.2375 30.8619C40.9591 30.7686 40.8863 30.7246 40.9056 30.588C40.9332 30.3949 41.0109 30.0373 41.2267 29.8082C41.3755 29.6504 41.5293 29.5733 41.6723 29.5747C41.8755 29.5784 42.0545 29.7377 42.1682 29.8706C42.8062 30.6122 43.7845 30.9177 44.7854 30.6871C45.3415 30.5594 45.5982 30.2209 45.4895 29.759C45.4451 29.5711 45.3289 29.4184 45.1525 29.3185C44.9426 29.1995 44.6625 29.165 44.3631 29.223C43.8305 29.3258 43.6875 29.2297 43.5512 28.9587C43.379 28.618 43.4935 28.1606 43.7912 27.9991C43.9333 27.922 44.114 27.8764 44.2486 27.8808C44.808 27.9021 45.1976 27.7391 45.5053 27.3515C45.798 26.9829 46.252 27.0343 46.4962 27.0974C46.7981 27.176 47.1618 27.3493 47.1769 27.7311C47.2262 28.9558 47.2187 30.1702 47.207 31.0932C47.1827 31.1343 47.0581 31.2246 46.9594 31.2525C46.4979 31.3817 46.084 31.3061 45.7303 31.0271C45.3908 30.7598 45.0354 30.7077 44.6725 30.8729C44.41 30.9926 44.2385 31.1938 44.2018 31.425C44.1625 31.6747 44.2804 31.9346 44.5253 32.1373C45.2771 32.7592 46.1659 32.978 47.2387 32.8032V34.1887H47.2429ZM56.3731 36.7681C55.7075 37.2116 55.6556 37.3643 55.945 38.02C56.1323 38.4444 56.0043 38.7689 55.5637 38.9833C55.0544 39.2315 54.3487 39.1882 54.1112 38.8938C54.046 38.813 54.0159 38.6874 53.9866 38.5663C53.9783 38.5318 53.9699 38.4973 53.9616 38.4642C53.8386 38.0031 53.4582 37.7542 52.9724 37.8122C52.4941 37.8702 52.2173 38.1786 52.2315 38.6382C52.2583 39.4679 52.7575 40.0972 53.6747 40.4562C53.7834 40.4988 53.8495 40.5421 53.8662 40.5825C53.888 40.6354 53.8386 40.736 53.7993 40.8065C53.6773 41.0275 53.4757 41.1868 53.2316 41.2551C52.9866 41.3234 52.7157 41.2962 52.469 41.1772C52.0175 40.9599 51.673 40.9129 51.4171 41.0333C51.1529 41.1582 51.009 41.4379 50.9639 41.9144C50.9179 42.3968 50.5441 42.7184 50.0106 42.7331C49.4362 42.7485 49.0357 42.4321 49.0072 41.9445C48.9688 41.2874 48.9679 40.6508 49.0056 40.0524C49.0424 39.4599 49.4897 39.0685 50.2314 38.9782C50.9229 38.8945 51.2214 38.6045 51.1428 38.0927C51.096 37.7902 50.8961 37.4495 50.2297 37.4495C50.162 37.4495 50.0892 37.4532 50.0106 37.4605C49.7857 37.4825 49.5892 37.5134 49.4094 37.556C49.2748 37.5883 49.1477 37.6316 48.9997 37.6823C48.9989 37.6823 48.9972 37.683 48.9964 37.6837C48.9955 37.5927 48.9947 37.5016 48.9939 37.4106C48.9897 36.9341 48.9855 36.4832 49.0181 36.0295C49.0633 35.9854 49.2372 35.9017 49.3843 35.8745C49.774 35.8019 50.1277 35.8841 50.4664 36.1264C50.7356 36.3188 50.9973 36.4047 51.2457 36.3812C51.4597 36.3614 51.6487 36.2622 51.8076 36.0875C52.1529 35.7079 52.0584 35.2835 51.5475 34.9237C50.8259 34.4156 49.9989 34.221 49.0892 34.3451C49.044 34.351 48.9989 34.3561 48.9512 34.3605V32.9758C49.049 32.9743 49.1485 32.975 49.2447 32.975C49.5951 32.9765 49.9563 32.978 50.2941 32.8921C50.7147 32.7849 51.1537 32.5778 51.6771 32.24C51.872 32.1145 51.989 31.95 52.0149 31.7665C52.0425 31.5719 51.9648 31.3663 51.7959 31.1879C51.4555 30.8266 50.9839 30.7892 50.5642 31.091C50.0984 31.4258 49.6845 31.5139 49.2221 31.3758C49.0306 31.3186 48.9763 31.2532 48.978 31.0851C48.983 30.519 48.9813 29.9441 48.9796 29.3882C48.978 28.9014 48.9763 28.3978 48.9796 27.9021C48.9821 27.5108 49.1962 27.2222 49.5675 27.1106C49.9722 26.9887 50.356 27.0981 50.621 27.4117C50.9145 27.7582 51.3075 27.8405 51.652 27.8904C51.9439 27.9322 52.2273 28.0372 52.4088 28.1709C52.6446 28.3442 52.7056 28.6107 52.5677 28.8655C52.4038 29.1702 52.0409 29.3354 51.6654 29.2766C51.1796 29.2003 50.8535 29.3082 50.6971 29.596C50.5834 29.8046 50.5667 30.1085 50.6578 30.3354C50.7456 30.5542 51.0667 30.6937 51.2432 30.7422C52.1839 30.9992 53.1906 30.6959 53.8712 29.9514C54.0468 29.759 54.2233 29.6614 54.3964 29.6614C54.3972 29.6614 54.398 29.6614 54.3989 29.6614C54.6238 29.6629 54.8228 29.8339 54.9507 29.9778C55.1372 30.1871 55.2075 30.392 55.1556 30.5704C55.1063 30.7371 54.9491 30.8744 54.6999 30.9683C53.791 31.3083 53.2065 32.0506 53.2098 32.8583C53.2123 33.3414 53.5167 33.6447 54.0259 33.6696C54.5201 33.6938 54.8613 33.442 54.9382 32.9948L54.9491 32.9302C55.0051 32.5917 55.0494 32.4133 55.3722 32.3627C55.7627 32.301 56.3639 32.5984 56.5846 32.9633C56.7142 33.1777 56.7953 33.4897 56.445 33.7592C56.0662 34.05 55.8764 34.3716 55.8296 34.8011C55.7786 35.2651 55.2217 35.3819 54.985 35.4098C54.347 35.4861 54.0619 35.7872 54.1371 36.3041C54.2015 36.7498 54.6322 36.9994 55.235 36.9385C55.7944 36.8819 56.2778 36.6976 56.7301 36.3643C56.6766 36.5148 56.5612 36.6418 56.3731 36.7681Z" fill="#E21E27"/>
<defs>
<filter id="filter0_d_270_1017" x="0" y="0.5" width="96" height="96" filterUnits="userSpaceOnUse" color-interpolation-filters="sRGB">
<feFlood flood-opacity="0" result="BackgroundImageFix"/>
<feColorMatrix in="SourceAlpha" type="matrix" values="0 0 0 0 0 0 0 0 0 0 0 0 0 0 0 0 0 0 127 0" result="hardAlpha"/>
<feOffset dy="4"/>
<feGaussianBlur stdDeviation="2"/>
<feComposite in2="hardAlpha" operator="out"/>
<feColorMatrix type="matrix" values="0 0 0 0 0 0 0 0 0 0 0 0 0 0 0 0 0 0 0.25 0"/>
<feBlend mode="normal" in2="BackgroundImageFix" result="effect1_dropShadow_270_1017"/>
<feBlend mode="normal" in="SourceGraphic" in2="effect1_dropShadow_270_1017" result="shape"/>
</filter>
</defs>
</svg>
