<svg width="96" height="97" viewBox="0 0 96 97" fill="none" xmlns="http://www.w3.org/2000/svg">
<g filter="url(#filter0_d_270_1087)">
<g filter="url(#filter1_d_270_1087)">
<rect x="4.5" y="1" width="87" height="87" rx="7.5" fill="white" stroke="#C6C6C6"/>
</g>
<path d="M20.3691 73.3418L22.0508 73.875C21.793 74.8125 21.3633 75.5098 20.7617 75.9668C20.1641 76.4199 19.4043 76.6465 18.4824 76.6465C17.3418 76.6465 16.4043 76.2578 15.6699 75.4805C14.9355 74.6992 14.5684 73.6328 14.5684 72.2812C14.5684 70.8516 14.9375 69.7422 15.6758 68.9531C16.4141 68.1602 17.3848 67.7637 18.5879 67.7637C19.6387 67.7637 20.4922 68.0742 21.1484 68.6953C21.5391 69.0625 21.832 69.5898 22.0273 70.2773L20.3105 70.6875C20.209 70.2422 19.9961 69.8906 19.6719 69.6328C19.3516 69.375 18.9609 69.2461 18.5 69.2461C17.8633 69.2461 17.3457 69.4746 16.9473 69.9316C16.5527 70.3887 16.3555 71.1289 16.3555 72.1523C16.3555 73.2383 16.5508 74.0117 16.9414 74.4727C17.332 74.9336 17.8398 75.1641 18.4648 75.1641C18.9258 75.1641 19.3223 75.0176 19.6543 74.7246C19.9863 74.4316 20.2246 73.9707 20.3691 73.3418ZM23.1523 73.3008C23.1523 72.7539 23.2871 72.2246 23.5566 71.7129C23.8262 71.2012 24.207 70.8105 24.6992 70.541C25.1953 70.2715 25.748 70.1367 26.3574 70.1367C27.2988 70.1367 28.0703 70.4434 28.6719 71.0566C29.2734 71.666 29.5742 72.4375 29.5742 73.3711C29.5742 74.3125 29.2695 75.0938 28.6602 75.7148C28.0547 76.332 27.291 76.6406 26.3691 76.6406C25.7988 76.6406 25.2539 76.5117 24.7344 76.2539C24.2188 75.9961 23.8262 75.6191 23.5566 75.123C23.2871 74.623 23.1523 74.0156 23.1523 73.3008ZM24.8398 73.3887C24.8398 74.0059 24.9863 74.4785 25.2793 74.8066C25.5723 75.1348 25.9336 75.2988 26.3633 75.2988C26.793 75.2988 27.1523 75.1348 27.4414 74.8066C27.7344 74.4785 27.8809 74.002 27.8809 73.377C27.8809 72.7676 27.7344 72.2988 27.4414 71.9707C27.1523 71.6426 26.793 71.4785 26.3633 71.4785C25.9336 71.4785 25.5723 71.6426 25.2793 71.9707C24.9863 72.2988 24.8398 72.7715 24.8398 73.3887ZM30.7461 70.2773H32.2637V71.127C32.8066 70.4668 33.4531 70.1367 34.2031 70.1367C34.6016 70.1367 34.9473 70.2188 35.2402 70.3828C35.5332 70.5469 35.7734 70.7949 35.9609 71.127C36.2344 70.7949 36.5293 70.5469 36.8457 70.3828C37.1621 70.2188 37.5 70.1367 37.8594 70.1367C38.3164 70.1367 38.7031 70.2305 39.0195 70.418C39.3359 70.6016 39.5723 70.873 39.7285 71.2324C39.8418 71.498 39.8984 71.9277 39.8984 72.5215V76.5H38.252V72.9434C38.252 72.3262 38.1953 71.9277 38.082 71.748C37.9297 71.5137 37.6953 71.3965 37.3789 71.3965C37.1484 71.3965 36.9316 71.4668 36.7285 71.6074C36.5254 71.748 36.3789 71.9551 36.2891 72.2285C36.1992 72.498 36.1543 72.9258 36.1543 73.5117V76.5H34.5078V73.0898C34.5078 72.4844 34.4785 72.0938 34.4199 71.918C34.3613 71.7422 34.2695 71.6113 34.1445 71.5254C34.0234 71.4395 33.8574 71.3965 33.6465 71.3965C33.3926 71.3965 33.1641 71.4648 32.9609 71.6016C32.7578 71.7383 32.6113 71.9355 32.5215 72.1934C32.4355 72.4512 32.3926 72.8789 32.3926 73.4766V76.5H30.7461V70.2773ZM41.498 70.2773H43.0332V71.1914C43.2324 70.8789 43.502 70.625 43.8418 70.4297C44.1816 70.2344 44.5586 70.1367 44.9727 70.1367C45.6953 70.1367 46.3086 70.4199 46.8125 70.9863C47.3164 71.5527 47.5684 72.3418 47.5684 73.3535C47.5684 74.3926 47.3145 75.2012 46.8066 75.7793C46.2988 76.3535 45.6836 76.6406 44.9609 76.6406C44.6172 76.6406 44.3047 76.5723 44.0234 76.4355C43.7461 76.2988 43.4531 76.0645 43.1445 75.7324V78.8672H41.498V70.2773ZM43.127 73.2832C43.127 73.9824 43.2656 74.5 43.543 74.8359C43.8203 75.168 44.1582 75.334 44.5566 75.334C44.9395 75.334 45.2578 75.1816 45.5117 74.877C45.7656 74.5684 45.8926 74.0645 45.8926 73.3652C45.8926 72.7129 45.7617 72.2285 45.5 71.9121C45.2383 71.5957 44.9141 71.4375 44.5273 71.4375C44.125 71.4375 43.791 71.5938 43.5254 71.9062C43.2598 72.2148 43.127 72.6738 43.127 73.2832ZM48.8809 76.5V67.9102H50.5273V76.5H48.8809ZM51.4414 70.2773H53.1934L54.6816 74.6953L56.1348 70.2773H57.8398L55.6426 76.2656L55.25 77.3496C55.1055 77.7129 54.9668 77.9902 54.834 78.1816C54.7051 78.373 54.5547 78.5273 54.3828 78.6445C54.2148 78.7656 54.0059 78.8594 53.7559 78.9258C53.5098 78.9922 53.2305 79.0254 52.918 79.0254C52.6016 79.0254 52.291 78.9922 51.9863 78.9258L51.8398 77.6367C52.0977 77.6875 52.3301 77.7129 52.5371 77.7129C52.9199 77.7129 53.2031 77.5996 53.3867 77.373C53.5703 77.1504 53.7109 76.8652 53.8086 76.5176L51.4414 70.2773ZM58.5195 73.3008C58.5195 72.7539 58.6543 72.2246 58.9238 71.7129C59.1934 71.2012 59.5742 70.8105 60.0664 70.541C60.5625 70.2715 61.1152 70.1367 61.7246 70.1367C62.666 70.1367 63.4375 70.4434 64.0391 71.0566C64.6406 71.666 64.9414 72.4375 64.9414 73.3711C64.9414 74.3125 64.6367 75.0938 64.0273 75.7148C63.4219 76.332 62.6582 76.6406 61.7363 76.6406C61.166 76.6406 60.6211 76.5117 60.1016 76.2539C59.5859 75.9961 59.1934 75.6191 58.9238 75.123C58.6543 74.623 58.5195 74.0156 58.5195 73.3008ZM60.207 73.3887C60.207 74.0059 60.3535 74.4785 60.6465 74.8066C60.9395 75.1348 61.3008 75.2988 61.7305 75.2988C62.1602 75.2988 62.5195 75.1348 62.8086 74.8066C63.1016 74.4785 63.248 74.002 63.248 73.377C63.248 72.7676 63.1016 72.2988 62.8086 71.9707C62.5195 71.6426 62.1602 71.4785 61.7305 71.4785C61.3008 71.4785 60.9395 71.6426 60.6465 71.9707C60.3535 72.2988 60.207 72.7715 60.207 73.3887ZM71.8965 76.5H70.25V73.3242C70.25 72.6523 70.2148 72.2188 70.1445 72.0234C70.0742 71.8242 69.959 71.6699 69.7988 71.5605C69.6426 71.4512 69.4531 71.3965 69.2305 71.3965C68.9453 71.3965 68.6895 71.4746 68.4629 71.6309C68.2363 71.7871 68.0801 71.9941 67.9941 72.252C67.9121 72.5098 67.8711 72.9863 67.8711 73.6816V76.5H66.2246V70.2773H67.7539V71.1914C68.2969 70.4883 68.9805 70.1367 69.8047 70.1367C70.168 70.1367 70.5 70.2031 70.8008 70.3359C71.1016 70.4648 71.3281 70.6309 71.4805 70.834C71.6367 71.0371 71.7441 71.2676 71.8027 71.5254C71.8652 71.7832 71.8965 72.1523 71.8965 72.6328V76.5ZM77.1758 74.5195L78.8164 74.7949C78.6055 75.3965 78.2715 75.8555 77.8145 76.1719C77.3613 76.4844 76.793 76.6406 76.1094 76.6406C75.0273 76.6406 74.2266 76.2871 73.707 75.5801C73.2969 75.0137 73.0918 74.2988 73.0918 73.4355C73.0918 72.4043 73.3613 71.5977 73.9004 71.0156C74.4395 70.4297 75.1211 70.1367 75.9453 70.1367C76.8711 70.1367 77.6016 70.4434 78.1367 71.0566C78.6719 71.666 78.9277 72.6016 78.9043 73.8633H74.7793C74.791 74.3516 74.9238 74.7324 75.1777 75.0059C75.4316 75.2754 75.748 75.4102 76.127 75.4102C76.3848 75.4102 76.6016 75.3398 76.7773 75.1992C76.9531 75.0586 77.0859 74.832 77.1758 74.5195ZM77.2695 72.8555C77.2578 72.3789 77.1348 72.0176 76.9004 71.7715C76.666 71.5215 76.3809 71.3965 76.0449 71.3965C75.6855 71.3965 75.3887 71.5273 75.1543 71.7891C74.9199 72.0508 74.8047 72.4062 74.8086 72.8555H77.2695Z" fill="#48484A"/>
<path d="M37.5224 50.5665C36.0243 50.5665 34.7152 50.5639 33.5215 50.5594C30.7091 50.5477 28.2393 48.076 28.2355 45.2701C28.2251 37.4461 28.2251 29.6216 28.2355 22.0138C28.2393 19.2033 30.7123 16.7361 33.528 16.7335C38.4752 16.729 43.368 16.7271 48.0705 16.7271C52.9593 16.7271 57.8112 16.7296 62.4916 16.7342C65.2982 16.7368 67.7628 19.213 67.7667 22.0326C67.7744 28.1287 67.7725 34.3267 67.7706 40.3209L67.7693 45.0208C67.7693 45.7601 67.2747 46.2762 66.5672 46.2762C65.861 46.2742 65.3703 45.751 65.3703 45.0046C65.369 40.8603 65.369 36.7166 65.3696 32.5722V27.7224H30.6325V33.1123C30.6325 37.0106 30.6318 40.909 30.6331 44.8066C30.6331 45.8121 30.946 46.6578 31.5366 47.2511C32.1273 47.845 32.9691 48.1591 33.9707 48.1598C34.9255 48.1604 35.8802 48.1604 36.835 48.1604H40.0402C41.2604 48.1604 42.48 48.1604 43.6996 48.1617C44.3065 48.1624 44.8394 48.605 44.9115 49.1691C44.9907 49.7844 44.6434 50.3374 44.067 50.5127C43.9307 50.5542 43.773 50.5594 43.6503 50.5594C42.9084 50.56 42.1672 50.5613 41.4253 50.562C40.1245 50.5652 38.8231 50.5665 37.5224 50.5665ZM33.8863 19.1312C33.8279 19.1312 33.7695 19.1319 33.7104 19.1332C32.1189 19.1812 30.8876 20.2522 30.7162 21.7379C30.6292 22.4915 30.6507 23.2671 30.6714 24.0175C30.6805 24.353 30.6902 24.6996 30.6902 25.0423V25.2695H65.369V24.2823C65.369 23.7007 65.369 23.1302 65.369 22.5596C65.3683 21.4822 65.0633 20.6325 64.4622 20.0334C63.8612 19.435 63.0083 19.1312 61.9269 19.1312H34.0745H33.8863Z" fill="#E21E27"/>
<path d="M48.083 16.9544C52.9705 16.9544 57.8185 16.9569 62.4918 16.9615C63.7646 16.9628 65.0492 17.5203 66.0156 18.4914C66.9827 19.463 67.5384 20.7534 67.5396 22.0327C67.5474 28.1204 67.5455 34.3099 67.5435 40.2964C67.5429 41.871 67.5422 43.4463 67.5422 45.021C67.5422 45.6266 67.1411 46.0498 66.5673 46.0498H66.5634C65.9949 46.0478 65.5976 45.6188 65.5976 45.0054C65.5963 40.876 65.5963 36.7459 65.597 32.6165V28.5338V27.9503V27.496H65.1426H30.8598H30.4055V27.9503V28.4254V33.0449C30.4055 36.966 30.4048 40.887 30.4061 44.8081C30.4068 46.9818 31.8062 48.3871 33.9708 48.3884C34.9282 48.389 35.8863 48.389 36.8436 48.389H38.441H40.0384C41.2586 48.389 42.4789 48.389 43.6998 48.3903C44.195 48.391 44.6286 48.746 44.687 49.1997C44.752 49.7034 44.4703 50.1545 44.0023 50.2966C43.8939 50.3298 43.7504 50.3336 43.6518 50.3336C42.9079 50.3343 42.1641 50.3349 41.4203 50.3362C40.1442 50.3382 38.8253 50.3395 37.5278 50.3395C36.0278 50.3395 34.7179 50.3369 33.523 50.3323C32.2469 50.3272 30.9591 49.769 29.9907 48.7999C29.0216 47.8308 28.4654 46.5443 28.4634 45.2696C28.4531 37.4515 28.4531 29.6275 28.4634 22.0139C28.4654 20.7391 29.0223 19.4533 29.9927 18.4855C30.963 17.5177 32.2521 16.9621 33.5295 16.9608C38.4812 16.9569 43.3785 16.9544 48.083 16.9544ZM30.4639 25.4975H30.9182H65.142H65.5963V25.0431V24.2532C65.5963 23.682 65.5963 23.1212 65.5963 22.5604C65.595 20.2718 64.2235 18.9055 61.9265 18.9055C57.786 18.9055 53.6443 18.9055 49.5032 18.9055H38.8967H34.074C34.0435 18.9055 34.0124 18.9055 33.9819 18.9055C33.9501 18.9055 33.9176 18.9055 33.8858 18.9055C33.8138 18.9055 33.7573 18.9061 33.7034 18.9081C31.9964 18.9593 30.6748 20.1134 30.4905 21.7134C30.4016 22.4832 30.4236 23.2672 30.4444 24.0254C30.4535 24.359 30.4632 24.7043 30.4632 25.0444V25.4975M48.083 16.5C43.2312 16.5 38.3793 16.5026 33.5275 16.5065C30.5976 16.5091 28.0117 19.0885 28.0078 22.0132C27.9974 29.7658 27.9974 37.5177 28.0078 45.2702C28.0117 48.1962 30.5943 50.7744 33.5204 50.7867C34.8562 50.7919 36.1913 50.7938 37.5271 50.7938C39.5684 50.7938 41.6098 50.7899 43.6511 50.788C43.8121 50.788 43.9809 50.7776 44.1334 50.7309C44.8214 50.5212 45.2297 49.8637 45.1369 49.1406C45.0499 48.4637 44.4307 47.936 43.6998 47.9353C42.4789 47.934 41.2586 47.934 40.0384 47.934C38.9732 47.934 37.9081 47.934 36.843 47.934C35.8856 47.934 34.9282 47.934 33.9708 47.9334C32.0554 47.9321 30.8611 46.7319 30.8605 44.8074C30.8592 39.3468 30.8598 33.8861 30.8598 28.4254C30.8598 28.2684 30.8598 28.1119 30.8598 27.9503C42.3127 27.9503 53.7033 27.9503 65.1426 27.9503C65.1426 28.1788 65.1426 28.3566 65.1426 28.5338C65.1426 34.0244 65.142 39.5149 65.1433 45.0054C65.1433 45.8745 65.7424 46.5015 66.5621 46.5035C66.5641 46.5035 66.5654 46.5035 66.5673 46.5035C67.393 46.5035 67.9966 45.8855 67.9966 45.021C67.9985 37.358 68.0044 29.695 67.994 22.0321C67.9901 19.0995 65.4146 16.5097 62.4918 16.5071C57.6887 16.5026 52.8862 16.5 48.083 16.5ZM30.9182 25.0431C30.9182 23.9274 30.8196 22.833 30.9429 21.764C31.1071 20.3386 32.2813 19.404 33.7183 19.3605C33.7748 19.3585 33.8306 19.3585 33.8871 19.3585C33.9501 19.3585 34.0124 19.3592 34.0753 19.3592C39.2186 19.3592 44.3612 19.3592 49.5045 19.3592C53.6449 19.3592 57.7867 19.3592 61.9278 19.3592C63.9756 19.3592 65.142 20.521 65.1433 22.5604C65.1439 23.3776 65.1433 24.1941 65.1433 25.0431C53.7176 25.0431 42.316 25.0431 30.9182 25.0431Z" fill="#E21E27"/>
<path d="M54.4128 53.4236C52.7291 53.4236 51.037 53.4223 49.3831 53.4191C47.963 53.4165 46.805 52.2572 46.8024 50.8344C46.8005 49.7635 46.8044 48.6737 46.8076 47.6202C46.8147 45.4543 46.8225 43.215 46.7816 41.0114C46.7563 39.6541 47.6663 38.2314 49.4539 38.136L49.6862 38.1236L49.6681 37.8919C49.535 36.1576 50.0257 34.7952 51.17 33.7274C52.0703 32.8875 53.1458 32.4566 54.3667 32.4462H54.4148C55.8486 32.4462 57.061 32.9914 58.0191 34.0669C58.9167 35.0756 59.3127 36.34 59.1952 37.825L59.1809 38.0087L59.3581 38.0607C59.5074 38.1041 59.6534 38.1405 59.7943 38.1755C60.0786 38.2456 60.3479 38.3119 60.579 38.4274C61.5526 38.9122 62.0485 39.695 62.0531 40.755C62.0673 44.2587 62.0621 47.7981 62.0557 50.8409C62.0531 52.2598 60.8919 53.4165 59.4684 53.4191C57.7744 53.4223 56.0738 53.4236 54.4128 53.4236ZM49.2287 50.9876H59.6359V40.5862H49.2287V50.9876ZM54.4225 34.8413C53.9727 34.8413 53.5294 34.9866 53.1062 35.2735C52.0145 36.0128 52.0002 37.1474 52.0852 37.9367L52.1073 38.1398H56.7579L56.7774 37.9341C56.8553 37.1098 56.8241 35.931 55.6577 35.2138C55.2547 34.9665 54.8392 34.8413 54.4225 34.8413Z" fill="#E21E27"/>
<path d="M54.4142 32.6727C55.7805 32.6727 56.9359 33.1926 57.8485 34.2175C58.7033 35.1782 59.0804 36.3854 58.9681 37.8069L58.9389 38.1749L59.2933 38.2788C59.4471 38.3236 59.5958 38.3606 59.7392 38.3956C60.0112 38.4625 60.2682 38.5261 60.4772 38.6299C61.3677 39.0733 61.8208 39.7885 61.8253 40.755C61.8396 44.2496 61.8344 47.7929 61.8279 50.8397C61.8253 52.1339 60.7667 53.1887 59.4673 53.1913C57.7712 53.1945 56.0694 53.1958 54.4084 53.1958C52.7253 53.1958 51.0351 53.1945 49.3839 53.1913C48.0883 53.1887 47.0323 52.1313 47.0297 50.8338C47.0278 49.7635 47.0316 48.6744 47.0349 47.6216C47.042 45.4543 47.0498 43.2131 47.0089 41.0075C46.9862 39.7593 47.8222 38.4508 49.4657 38.3632L49.9304 38.3385L49.8947 37.8744C49.7668 36.2134 50.2348 34.9107 51.3253 33.8936C52.1827 33.094 53.2063 32.6831 54.3688 32.6734C54.3837 32.6727 54.3993 32.6727 54.4142 32.6727ZM51.9023 38.3664H52.3106H56.5503H56.9638L57.0027 37.9549C57.0865 37.0702 57.0501 35.8032 55.776 35.0198C55.3372 34.7504 54.8822 34.6135 54.4227 34.6135C53.9268 34.6135 53.4406 34.7718 52.9791 35.0847C52.0834 35.6916 51.7173 36.6321 51.8595 37.9601L51.9023 38.3664ZM49.0016 51.2142H49.4559H59.4088H59.8632V50.7598V40.8128V40.3584H59.4088H49.4559H49.0016V40.8128V50.7598V51.2142ZM54.4142 32.2184C54.398 32.2184 54.3811 32.2184 54.3649 32.2184C53.0732 32.2288 51.9536 32.6851 51.0157 33.5607C49.7668 34.7264 49.3105 36.2011 49.4423 37.9088C47.536 38.0101 46.528 39.5347 46.5552 41.0153C46.6156 44.2873 46.5702 47.5612 46.576 50.8345C46.5786 52.3832 47.8359 53.643 49.3839 53.6456C51.0592 53.6489 52.7338 53.6502 54.409 53.6502C56.0953 53.6502 57.7823 53.6489 59.4686 53.6456C61.0198 53.643 62.279 52.389 62.2823 50.8403C62.2894 47.4781 62.2933 44.1153 62.2797 40.7531C62.2752 39.5925 61.7098 38.7364 60.6804 38.223C60.3072 38.0373 59.8729 37.9744 59.4218 37.842C59.5361 36.3971 59.1933 35.0432 58.1886 33.9151C57.1858 32.7896 55.9233 32.2184 54.4142 32.2184ZM52.3106 37.9121C52.2041 36.9222 52.3683 36.0466 53.2329 35.4612C53.6191 35.1996 54.0189 35.0678 54.422 35.0678C54.7939 35.0678 55.1691 35.1801 55.5378 35.4066C56.4685 35.9791 56.6483 36.8768 56.5503 37.9121C55.1126 37.9121 53.721 37.9121 52.3106 37.9121ZM49.4559 50.7598C49.4559 47.4515 49.4559 44.1438 49.4559 40.8128C52.7649 40.8128 56.0609 40.8128 59.4088 40.8128C59.4088 44.1341 59.4088 47.4314 59.4088 50.7598C56.0979 50.7598 52.7909 50.7598 49.4559 50.7598Z" fill="#E21E27"/>
<path d="M33.7193 23.4224C33.385 23.4224 33.078 23.2984 32.8547 23.0745C32.6347 22.8531 32.5146 22.552 32.5159 22.2268C32.5191 21.5349 33.0338 21.013 33.7121 21.0117C34.4008 21.0117 34.9194 21.5277 34.9213 22.2112C34.9233 22.8992 34.4079 23.4204 33.7238 23.4224H33.7193Z" fill="#E21E27"/>
<path d="M33.715 20.7847V21.239C34.281 21.239 34.6931 21.6479 34.6944 22.212C34.6957 22.7799 34.2875 23.194 33.7234 23.196H33.7195C33.4463 23.196 33.1964 23.096 33.0159 22.9149C32.8387 22.7371 32.742 22.493 32.7433 22.2282C32.7466 21.6557 33.1542 21.2403 33.713 21.239L33.715 20.7847ZM33.715 20.7847C33.7143 20.7847 33.713 20.7847 33.7124 20.7847C32.9062 20.786 32.2935 21.4065 32.289 22.2256C32.2851 23.0298 32.9082 23.6503 33.7195 23.6503C33.7215 23.6503 33.7234 23.6503 33.7247 23.6503C34.5354 23.6477 35.1507 23.0259 35.1488 22.2113C35.1475 21.3987 34.5289 20.7847 33.715 20.7847Z" fill="#E21E27"/>
<path d="M37.997 23.4205C37.6641 23.4198 37.359 23.2958 37.1377 23.0713C36.9176 22.848 36.7982 22.5436 36.8021 22.2138C36.8099 21.5284 37.3272 21.0111 38.0048 21.0111C38.6922 21.0137 39.2063 21.5336 39.205 22.2216C39.2037 22.9051 38.6851 23.4198 37.9996 23.4198H37.997V23.4205Z" fill="#E21E27"/>
<path d="M38.0048 21.239H38.0087C38.5715 21.241 38.9791 21.6544 38.9778 22.2224C38.9765 22.7851 38.565 23.194 37.9977 23.194C37.7257 23.1934 37.4778 23.0934 37.2993 22.913C37.1221 22.7332 37.026 22.4865 37.0286 22.2178C37.0358 21.6499 37.446 21.239 38.0048 21.239ZM38.0048 20.7847C37.198 20.7847 36.584 21.3967 36.5749 22.212C36.5658 23.022 37.1844 23.6464 37.997 23.6484C37.9983 23.6484 37.999 23.6484 38.0003 23.6484C38.8136 23.6484 39.4309 23.0344 39.4322 22.2237C39.4341 21.4071 38.822 20.7879 38.0107 20.7853C38.0087 20.7847 38.0068 20.7847 38.0048 20.7847Z" fill="#E21E27"/>
</g>
<defs>
<filter id="filter0_d_270_1087" x="0" y="0.5" width="96" height="96" filterUnits="userSpaceOnUse" color-interpolation-filters="sRGB">
<feFlood flood-opacity="0" result="BackgroundImageFix"/>
<feColorMatrix in="SourceAlpha" type="matrix" values="0 0 0 0 0 0 0 0 0 0 0 0 0 0 0 0 0 0 127 0" result="hardAlpha"/>
<feOffset dy="4"/>
<feGaussianBlur stdDeviation="2"/>
<feComposite in2="hardAlpha" operator="out"/>
<feColorMatrix type="matrix" values="0 0 0 0 0 0 0 0 0 0 0 0 0 0 0 0 0 0 0.25 0"/>
<feBlend mode="normal" in2="BackgroundImageFix" result="effect1_dropShadow_270_1087"/>
<feBlend mode="normal" in="SourceGraphic" in2="effect1_dropShadow_270_1087" result="shape"/>
</filter>
<filter id="filter1_d_270_1087" x="0" y="0.5" width="96" height="96" filterUnits="userSpaceOnUse" color-interpolation-filters="sRGB">
<feFlood flood-opacity="0" result="BackgroundImageFix"/>
<feColorMatrix in="SourceAlpha" type="matrix" values="0 0 0 0 0 0 0 0 0 0 0 0 0 0 0 0 0 0 127 0" result="hardAlpha"/>
<feOffset dy="4"/>
<feGaussianBlur stdDeviation="2"/>
<feComposite in2="hardAlpha" operator="out"/>
<feColorMatrix type="matrix" values="0 0 0 0 0 0 0 0 0 0 0 0 0 0 0 0 0 0 0.25 0"/>
<feBlend mode="normal" in2="BackgroundImageFix" result="effect1_dropShadow_270_1087"/>
<feBlend mode="normal" in="SourceGraphic" in2="effect1_dropShadow_270_1087" result="shape"/>
</filter>
</defs>
</svg>
