<svg width="92" height="97" viewBox="0 0 92 97" fill="none" xmlns="http://www.w3.org/2000/svg">
<g filter="url(#filter0_d_270_1032)">
<rect x="4" y="0.5" width="88" height="88" rx="8" fill="white"/>
<rect x="4.5" y="1" width="87" height="87" rx="7.5" stroke="#C6C6C6"/>
</g>
<path d="M28 52.3592C28 41.7869 28 31.214 28 20.6417C28.0337 20.5049 28.066 20.368 28.1004 20.2312C28.6 18.2488 29.8428 17.0285 31.8407 16.5815C31.9418 16.5591 32.0407 16.5282 32.1404 16.5008C42.713 16.5008 53.2863 16.5008 63.8589 16.5008C63.9586 16.5282 64.0575 16.5591 64.1586 16.5815C66.1565 17.0285 67.3993 18.2488 67.8989 20.2312C67.9333 20.368 67.9663 20.5049 67.9993 20.6417C67.9993 31.214 67.9993 41.7869 67.9993 52.3592C67.9656 52.496 67.9333 52.6329 67.8989 52.7697C67.3993 54.7521 66.1565 55.9724 64.1586 56.4194C64.0575 56.4419 63.9586 56.4727 63.8589 56.5001C53.2863 56.5001 42.713 56.5001 32.1404 56.5001C32.0533 56.4748 31.9677 56.4426 31.8793 56.425C29.9116 56.0433 28.5046 54.6602 28.0849 52.6932C28.0618 52.5802 28.0288 52.4701 28 52.3592ZM47.5895 23.2732C47.4267 23.2557 47.313 23.2332 47.1993 23.2332C44.2309 23.2318 41.2625 23.2227 38.294 23.2381C37.2975 23.243 36.4442 23.6276 35.7698 24.3756C35.1375 25.0773 34.8723 25.9068 34.873 26.8457C34.8786 32.2876 34.8758 37.7302 34.8758 43.1722C34.8758 44.1876 34.8653 45.2037 34.8807 46.2184C34.9046 47.7966 36.0204 49.167 37.5621 49.4975C37.9404 49.5782 38.3375 49.5965 38.7263 49.5965C44.8716 49.6021 51.0168 49.6014 57.1628 49.5993C57.4098 49.5993 57.6575 49.5846 57.9032 49.5614C58.9537 49.4625 59.7719 48.9586 60.3811 48.1088C60.8547 47.4471 60.9993 46.6955 60.9986 45.8921C60.9916 39.5646 60.9951 33.2371 60.9944 26.9096C60.9944 26.7531 60.9909 26.5973 60.9825 26.4408C60.8863 24.6647 59.447 23.262 57.6737 23.2234C57.1663 23.2122 56.6582 23.2185 56.1502 23.2213C56.0379 23.222 55.9249 23.2444 55.7558 23.2627C55.7432 24.2142 55.7382 25.1391 55.7586 26.1159C56.273 26.1159 56.713 26.1152 57.1537 26.1159C57.9972 26.1173 58.1256 26.2415 58.1256 27.0934C58.127 33.3037 58.127 39.514 58.1256 45.7243C58.1256 46.5566 58.0105 46.6675 57.1747 46.6675C51.0161 46.6675 44.8575 46.6675 38.6996 46.6675C38.5691 46.6675 38.4386 46.6717 38.3095 46.6612C37.974 46.6338 37.7937 46.4527 37.7649 46.1145C37.7544 45.9854 37.7593 45.8542 37.7593 45.7243C37.7593 39.5533 37.7586 33.3816 37.7593 27.2106C37.7593 26.2984 37.8793 26.1805 38.7965 26.1798C41.5046 26.1784 44.2126 26.1784 46.9207 26.1742C47.1361 26.1742 47.3516 26.1468 47.5895 26.1299C47.5895 25.1588 47.5895 24.2395 47.5895 23.2732ZM49.7095 30.3614C49.5256 30.2982 49.4154 30.2652 49.3095 30.2224C48.3411 29.8358 47.3333 29.7537 46.3158 29.9045C44.1719 30.2217 42.7144 31.4729 41.8639 33.4097C41.0807 35.1935 41.0849 37.0608 41.6007 38.9162C42.5453 42.3111 46.4639 43.822 49.4814 41.9778C49.5411 41.9413 49.6126 41.9238 49.6989 41.8894C49.7277 42.0845 49.7523 42.2487 49.7747 42.3995C50.1565 42.5336 52.287 42.5266 52.6667 42.375C52.6667 42.1953 52.6667 41.9904 52.6667 41.7855C52.6667 36.9317 52.6667 32.0771 52.6667 27.2232C52.6667 27.0668 52.6618 26.9103 52.6716 26.7552C52.6933 26.3952 52.8681 26.2036 53.226 26.1742C53.4849 26.1531 53.7467 26.1699 54.0063 26.1594C54.1439 26.1538 54.2807 26.1257 54.4028 26.1096C54.5256 25.5679 54.4898 23.53 54.3439 23.2206C53.974 23.2206 53.5853 23.2234 53.1965 23.2199C52.4786 23.2136 51.8379 23.4402 51.2772 23.8788C50.2435 24.6879 49.7628 25.7749 49.7389 27.0689C49.7221 27.9923 49.7354 28.9165 49.7333 29.8407C49.7333 29.993 49.72 30.1452 49.7095 30.3614Z" fill="#DC1518"/>
<path d="M32.1404 16.5008C32.0407 16.5282 31.9418 16.5591 31.8407 16.5815C29.8428 17.0285 28.6 18.2488 28.1004 20.2312C28.066 20.368 28.0337 20.5049 28 20.6417C28 19.2677 28 17.8944 28 16.5015C29.3804 16.5008 30.7607 16.5008 32.1404 16.5008Z" fill="white"/>
<path d="M68.0002 20.6409C67.9665 20.5041 67.9342 20.3672 67.8998 20.2304C67.4002 18.248 66.1573 17.0277 64.1595 16.5807C64.0584 16.5582 63.9595 16.5274 63.8598 16.5C65.2402 16.5 66.6205 16.5 68.0002 16.5C68.0002 17.881 68.0002 19.2613 68.0002 20.6409Z" fill="white"/>
<path d="M28 52.359C28.0288 52.4698 28.0618 52.5807 28.0856 52.693C28.5053 54.6599 29.9116 56.0437 31.88 56.4248C31.9684 56.4416 32.054 56.4746 32.1411 56.4999C30.767 56.4999 29.3937 56.4999 28.0007 56.4999C28 55.1189 28 53.7386 28 52.359Z" fill="white"/>
<path d="M63.8599 56.4995C63.9595 56.4721 64.0585 56.4412 64.1595 56.4188C66.1574 55.9718 67.4002 54.7515 67.8999 52.7691C67.9342 52.6322 67.9672 52.4954 68.0002 52.3586C68.0002 53.7389 68.0002 55.1192 68.0002 56.4988C66.6199 56.4995 65.2395 56.4995 63.8599 56.4995Z" fill="white"/>
<path d="M47.5893 23.2729C47.5893 24.2399 47.5893 25.1584 47.5893 26.1303C47.3514 26.1465 47.1359 26.1738 46.9205 26.1745C44.2124 26.1788 41.5043 26.1788 38.7963 26.1802C37.8791 26.1809 37.7591 26.2988 37.7591 27.211C37.7584 33.382 37.7591 39.5537 37.7591 45.7247C37.7591 45.8553 37.7542 45.9858 37.7647 46.1149C37.7928 46.4531 37.9731 46.6342 38.3093 46.6615C38.4384 46.6721 38.5696 46.6679 38.6994 46.6679C44.858 46.6679 51.0166 46.6679 57.1745 46.6679C58.0103 46.6679 58.1254 46.5577 58.1254 45.7247C58.1268 39.5144 58.1268 33.3041 58.1254 27.0938C58.1254 26.2419 57.997 26.1177 57.1535 26.1163C56.7128 26.1156 56.2728 26.1163 55.7584 26.1163C55.7373 25.1402 55.7422 24.2146 55.7556 23.2631C55.9247 23.2441 56.037 23.2224 56.15 23.2217C56.658 23.2182 57.1654 23.2125 57.6735 23.2238C59.4468 23.2624 60.8861 24.6651 60.9822 26.4412C60.9907 26.597 60.9942 26.7535 60.9942 26.91C60.9949 33.2375 60.9914 39.565 60.9984 45.8924C60.9991 46.6959 60.8552 47.4475 60.3808 48.1092C59.7724 48.959 58.9535 49.4629 57.9029 49.5618C57.6573 49.585 57.4096 49.5997 57.1626 49.5997C51.0173 49.6018 44.8721 49.6032 38.7261 49.5969C38.3373 49.5962 37.9401 49.5786 37.5619 49.4979C36.0201 49.1681 34.9043 47.7976 34.8805 46.2188C34.865 45.2034 34.8756 44.1879 34.8756 43.1725C34.8756 37.7306 34.8784 32.288 34.8728 26.8461C34.8721 25.9072 35.1373 25.0777 35.7696 24.376C36.444 23.628 37.2973 23.2434 38.2938 23.2385C41.2622 23.2231 44.2307 23.2315 47.1991 23.2336C47.3128 23.2329 47.4265 23.2553 47.5893 23.2729Z" fill="white"/>
<path d="M49.7094 30.3612C49.72 30.1451 49.7333 29.9928 49.734 29.8405C49.7368 28.9163 49.7228 27.9922 49.7396 27.0687C49.7635 25.7747 50.2442 24.6877 51.2779 23.8786C51.8386 23.4393 52.4793 23.2134 53.1972 23.2197C53.5859 23.2232 53.9747 23.2204 54.3445 23.2204C54.4898 23.5292 54.5256 25.5677 54.4035 26.1094C54.2814 26.1256 54.1445 26.1536 54.007 26.1592C53.7473 26.1698 53.4856 26.1529 53.2266 26.174C52.868 26.2034 52.694 26.3943 52.6722 26.755C52.6631 26.9108 52.6673 27.0673 52.6673 27.2231C52.6673 32.0769 52.6673 36.9315 52.6673 41.7854C52.6673 41.9903 52.6673 42.1945 52.6673 42.3748C52.2877 42.5264 50.1579 42.5334 49.7754 42.3994C49.7529 42.2478 49.7284 42.0843 49.6996 41.8892C49.6133 41.9236 49.5417 41.9411 49.4821 41.9776C46.4652 43.8218 42.5459 42.3116 41.6014 38.916C41.0856 37.0606 41.0814 35.1926 41.8645 33.4095C42.7151 31.4734 44.1726 30.2215 46.3165 29.9044C47.3333 29.7542 48.3417 29.8356 49.3101 30.2222C49.4154 30.2651 49.5256 30.298 49.7094 30.3612ZM49.7347 36.3062C49.7347 35.3568 49.7242 34.4081 49.7403 33.4593C49.7459 33.1485 49.6336 32.9569 49.3754 32.7927C47.6224 31.6776 45.1845 32.5464 44.5207 34.5463C44.1817 35.5673 44.1522 36.6185 44.3698 37.6676C44.8245 39.864 47.3094 40.9763 49.2807 39.8872C49.5979 39.7117 49.7529 39.4977 49.7431 39.116C49.7179 38.1792 49.7347 37.2424 49.7347 36.3062Z" fill="white"/>
<path d="M49.7351 36.3061C49.7351 37.2422 49.7182 38.1791 49.7428 39.1145C49.7526 39.4969 49.5975 39.7109 49.2803 39.8857C47.3091 40.9747 44.8242 39.8625 44.3694 37.6661C44.1526 36.6177 44.1821 35.5665 44.5203 34.5448C45.1835 32.5456 47.6221 31.6761 49.3751 32.7912C49.6333 32.9554 49.7456 33.147 49.74 33.4578C49.7245 34.408 49.7351 35.3574 49.7351 36.3061Z" fill="#DC1518"/>
<path d="M17.8672 64.9102H21.0371C21.752 64.9102 22.2969 64.9648 22.6719 65.0742C23.1758 65.2227 23.6074 65.4863 23.9668 65.8652C24.3262 66.2441 24.5996 66.709 24.7871 67.2598C24.9746 67.8066 25.0684 68.4824 25.0684 69.2871C25.0684 69.9941 24.9805 70.6035 24.8047 71.1152C24.5898 71.7402 24.2832 72.2461 23.8848 72.6328C23.584 72.9258 23.1777 73.1543 22.666 73.3184C22.2832 73.4395 21.7715 73.5 21.1309 73.5H17.8672V64.9102ZM19.6016 66.3633V72.0527H20.8965C21.3809 72.0527 21.7305 72.0254 21.9453 71.9707C22.2266 71.9004 22.459 71.7812 22.6426 71.6133C22.8301 71.4453 22.9824 71.1699 23.0996 70.7871C23.2168 70.4004 23.2754 69.875 23.2754 69.2109C23.2754 68.5469 23.2168 68.0371 23.0996 67.6816C22.9824 67.3262 22.8184 67.0488 22.6074 66.8496C22.3965 66.6504 22.1289 66.5156 21.8047 66.4453C21.5625 66.3906 21.0879 66.3633 20.3809 66.3633H19.6016ZM27.7637 69.1758L26.2695 68.9062C26.4375 68.3047 26.7266 67.8594 27.1367 67.5703C27.5469 67.2812 28.1562 67.1367 28.9648 67.1367C29.6992 67.1367 30.2461 67.2246 30.6055 67.4004C30.9648 67.5723 31.2168 67.793 31.3613 68.0625C31.5098 68.3281 31.584 68.8184 31.584 69.5332L31.5664 71.4551C31.5664 72.002 31.5918 72.4062 31.6426 72.668C31.6973 72.9258 31.7969 73.2031 31.9414 73.5H30.3125C30.2695 73.3906 30.2168 73.2285 30.1543 73.0137C30.127 72.916 30.1074 72.8516 30.0957 72.8203C29.8145 73.0938 29.5137 73.2988 29.1934 73.4355C28.873 73.5723 28.5312 73.6406 28.168 73.6406C27.5273 73.6406 27.0215 73.4668 26.6504 73.1191C26.2832 72.7715 26.0996 72.332 26.0996 71.8008C26.0996 71.4492 26.1836 71.1367 26.3516 70.8633C26.5195 70.5859 26.7539 70.375 27.0547 70.2305C27.3594 70.082 27.7969 69.9531 28.3672 69.8438C29.1367 69.6992 29.6699 69.5645 29.9668 69.4395V69.2754C29.9668 68.959 29.8887 68.7344 29.7324 68.6016C29.5762 68.4648 29.2812 68.3965 28.8477 68.3965C28.5547 68.3965 28.3262 68.4551 28.1621 68.5723C27.998 68.6855 27.8652 68.8867 27.7637 69.1758ZM29.9668 70.5117C29.7559 70.582 29.4219 70.666 28.9648 70.7637C28.5078 70.8613 28.209 70.957 28.0684 71.0508C27.8535 71.2031 27.7461 71.3965 27.7461 71.6309C27.7461 71.8613 27.832 72.0605 28.0039 72.2285C28.1758 72.3965 28.3945 72.4805 28.6602 72.4805C28.957 72.4805 29.2402 72.3828 29.5098 72.1875C29.709 72.0391 29.8398 71.8574 29.9023 71.6426C29.9453 71.502 29.9668 71.2344 29.9668 70.8398V70.5117ZM34.7891 73.5H33.1426V67.2773H34.6719V68.1621C34.9336 67.7441 35.168 67.4688 35.375 67.3359C35.5859 67.2031 35.8242 67.1367 36.0898 67.1367C36.4648 67.1367 36.8262 67.2402 37.1738 67.4473L36.6641 68.8828C36.3867 68.7031 36.1289 68.6133 35.8906 68.6133C35.6602 68.6133 35.4648 68.6777 35.3047 68.8066C35.1445 68.9316 35.0176 69.1602 34.9238 69.4922C34.834 69.8242 34.7891 70.5195 34.7891 71.5781V73.5ZM39.0488 73.5L37.0801 67.2773H38.6797L39.8457 71.3555L40.918 67.2773H42.5059L43.543 71.3555L44.7324 67.2773H46.3555L44.3574 73.5H42.7754L41.7031 69.498L40.6484 73.5H39.0488ZM47.2285 66.4336V64.9102H48.875V66.4336H47.2285ZM47.2285 73.5V67.2773H48.875V73.5H47.2285ZM56.2285 73.5H54.582V70.3242C54.582 69.6523 54.5469 69.2188 54.4766 69.0234C54.4062 68.8242 54.291 68.6699 54.1309 68.5605C53.9746 68.4512 53.7852 68.3965 53.5625 68.3965C53.2773 68.3965 53.0215 68.4746 52.7949 68.6309C52.5684 68.7871 52.4121 68.9941 52.3262 69.252C52.2441 69.5098 52.2031 69.9863 52.2031 70.6816V73.5H50.5566V67.2773H52.0859V68.1914C52.6289 67.4883 53.3125 67.1367 54.1367 67.1367C54.5 67.1367 54.832 67.2031 55.1328 67.3359C55.4336 67.4648 55.6602 67.6309 55.8125 67.834C55.9688 68.0371 56.0762 68.2676 56.1348 68.5254C56.1973 68.7832 56.2285 69.1523 56.2285 69.6328V73.5ZM57.834 73.5V64.9102H59.4805V68.0039C59.9883 67.4258 60.5898 67.1367 61.2852 67.1367C62.043 67.1367 62.6699 67.4121 63.166 67.9629C63.6621 68.5098 63.9102 69.2969 63.9102 70.3242C63.9102 71.3867 63.6562 72.2051 63.1484 72.7793C62.6445 73.3535 62.0312 73.6406 61.3086 73.6406C60.9531 73.6406 60.6016 73.5527 60.2539 73.377C59.9102 73.1973 59.6133 72.9336 59.3633 72.5859V73.5H57.834ZM59.4688 70.2539C59.4688 70.8984 59.5703 71.375 59.7734 71.6836C60.0586 72.1211 60.4375 72.3398 60.9102 72.3398C61.2734 72.3398 61.582 72.1855 61.8359 71.877C62.0938 71.5645 62.2227 71.0742 62.2227 70.4062C62.2227 69.6953 62.0938 69.1836 61.8359 68.8711C61.5781 68.5547 61.248 68.3965 60.8457 68.3965C60.4512 68.3965 60.123 68.5508 59.8613 68.8594C59.5996 69.1641 59.4688 69.6289 59.4688 70.2539ZM64.8594 70.3008C64.8594 69.7539 64.9941 69.2246 65.2637 68.7129C65.5332 68.2012 65.9141 67.8105 66.4062 67.541C66.9023 67.2715 67.4551 67.1367 68.0645 67.1367C69.0059 67.1367 69.7773 67.4434 70.3789 68.0566C70.9805 68.666 71.2812 69.4375 71.2812 70.3711C71.2812 71.3125 70.9766 72.0938 70.3672 72.7148C69.7617 73.332 68.998 73.6406 68.0762 73.6406C67.5059 73.6406 66.9609 73.5117 66.4414 73.2539C65.9258 72.9961 65.5332 72.6191 65.2637 72.123C64.9941 71.623 64.8594 71.0156 64.8594 70.3008ZM66.5469 70.3887C66.5469 71.0059 66.6934 71.4785 66.9863 71.8066C67.2793 72.1348 67.6406 72.2988 68.0703 72.2988C68.5 72.2988 68.8594 72.1348 69.1484 71.8066C69.4414 71.4785 69.5879 71.002 69.5879 70.377C69.5879 69.7676 69.4414 69.2988 69.1484 68.9707C68.8594 68.6426 68.5 68.4785 68.0703 68.4785C67.6406 68.4785 67.2793 68.6426 66.9863 68.9707C66.6934 69.2988 66.5469 69.7715 66.5469 70.3887ZM71.7852 73.5L74.0293 70.2949L71.8789 67.2773H73.8887L74.9902 68.9883L76.1504 67.2773H78.084L75.9746 70.2246L78.2773 73.5H76.2559L74.9902 71.5723L73.7129 73.5H71.7852Z" fill="#48484A"/>
<defs>
<filter id="filter0_d_270_1032" x="0" y="0.5" width="96" height="96" filterUnits="userSpaceOnUse" color-interpolation-filters="sRGB">
<feFlood flood-opacity="0" result="BackgroundImageFix"/>
<feColorMatrix in="SourceAlpha" type="matrix" values="0 0 0 0 0 0 0 0 0 0 0 0 0 0 0 0 0 0 127 0" result="hardAlpha"/>
<feOffset dy="4"/>
<feGaussianBlur stdDeviation="2"/>
<feComposite in2="hardAlpha" operator="out"/>
<feColorMatrix type="matrix" values="0 0 0 0 0 0 0 0 0 0 0 0 0 0 0 0 0 0 0.25 0"/>
<feBlend mode="normal" in2="BackgroundImageFix" result="effect1_dropShadow_270_1032"/>
<feBlend mode="normal" in="SourceGraphic" in2="effect1_dropShadow_270_1032" result="shape"/>
</filter>
</defs>
</svg>
