<svg width="28" height="43" viewBox="0 0 28 43" fill="none" xmlns="http://www.w3.org/2000/svg">
<path d="M7.05469 35.9883L8.19141 36.2754C7.95312 37.209 7.52344 37.9219 6.90234 38.4141C6.28516 38.9023 5.5293 39.1465 4.63477 39.1465C3.70898 39.1465 2.95508 38.959 2.37305 38.584C1.79492 38.2051 1.35352 37.6582 1.04883 36.9434C0.748047 36.2285 0.597656 35.4609 0.597656 34.6406C0.597656 33.7461 0.767578 32.9668 1.10742 32.3027C1.45117 31.6348 1.9375 31.1289 2.56641 30.7852C3.19922 30.4375 3.89453 30.2637 4.65234 30.2637C5.51172 30.2637 6.23438 30.4824 6.82031 30.9199C7.40625 31.3574 7.81445 31.9727 8.04492 32.7656L6.92578 33.0293C6.72656 32.4043 6.4375 31.9492 6.05859 31.6641C5.67969 31.3789 5.20312 31.2363 4.62891 31.2363C3.96875 31.2363 3.41602 31.3945 2.9707 31.7109C2.5293 32.0273 2.21875 32.4531 2.03906 32.9883C1.85938 33.5195 1.76953 34.0684 1.76953 34.6348C1.76953 35.3652 1.875 36.0039 2.08594 36.5508C2.30078 37.0938 2.63281 37.5 3.08203 37.7695C3.53125 38.0391 4.01758 38.1738 4.54102 38.1738C5.17773 38.1738 5.7168 37.9902 6.1582 37.623C6.59961 37.2559 6.89844 36.7109 7.05469 35.9883ZM9.46289 39V30.4102H10.5176V33.4922C11.0098 32.9219 11.6309 32.6367 12.3809 32.6367C12.8418 32.6367 13.2422 32.7285 13.582 32.9121C13.9219 33.0918 14.1641 33.3418 14.3086 33.6621C14.457 33.9824 14.5312 34.4473 14.5312 35.0566V39H13.4766V35.0566C13.4766 34.5293 13.3613 34.1465 13.1309 33.9082C12.9043 33.666 12.582 33.5449 12.1641 33.5449C11.8516 33.5449 11.5566 33.627 11.2793 33.791C11.0059 33.9512 10.8105 34.1699 10.6934 34.4473C10.5762 34.7246 10.5176 35.1074 10.5176 35.5957V39H9.46289ZM20.2031 38.2324C19.8125 38.5645 19.4355 38.7988 19.0723 38.9355C18.7129 39.0723 18.3262 39.1406 17.9121 39.1406C17.2285 39.1406 16.7031 38.9746 16.3359 38.6426C15.9688 38.3066 15.7852 37.8789 15.7852 37.3594C15.7852 37.0547 15.8535 36.7773 15.9902 36.5273C16.1309 36.2734 16.3125 36.0703 16.5352 35.918C16.7617 35.7656 17.0156 35.6504 17.2969 35.5723C17.5039 35.5176 17.8164 35.4648 18.2344 35.4141C19.0859 35.3125 19.7129 35.1914 20.1152 35.0508C20.1191 34.9062 20.1211 34.8145 20.1211 34.7754C20.1211 34.3457 20.0215 34.043 19.8223 33.8672C19.5527 33.6289 19.1523 33.5098 18.6211 33.5098C18.125 33.5098 17.7578 33.5977 17.5195 33.7734C17.2852 33.9453 17.1113 34.252 16.998 34.6934L15.9668 34.5527C16.0605 34.1113 16.2148 33.7559 16.4297 33.4863C16.6445 33.2129 16.9551 33.0039 17.3613 32.8594C17.7676 32.7109 18.2383 32.6367 18.7734 32.6367C19.3047 32.6367 19.7363 32.6992 20.0684 32.8242C20.4004 32.9492 20.6445 33.1074 20.8008 33.2988C20.957 33.4863 21.0664 33.7246 21.1289 34.0137C21.1641 34.1934 21.1816 34.5176 21.1816 34.9863V36.3926C21.1816 37.373 21.2031 37.9941 21.2461 38.2559C21.293 38.5137 21.3828 38.7617 21.5156 39H20.4141C20.3047 38.7812 20.2344 38.5254 20.2031 38.2324ZM20.1152 35.877C19.7324 36.0332 19.1582 36.166 18.3926 36.2754C17.959 36.3379 17.6523 36.4082 17.4727 36.4863C17.293 36.5645 17.1543 36.6797 17.0566 36.832C16.959 36.9805 16.9102 37.1465 16.9102 37.3301C16.9102 37.6113 17.0156 37.8457 17.2266 38.0332C17.4414 38.2207 17.7539 38.3145 18.1641 38.3145C18.5703 38.3145 18.9316 38.2266 19.248 38.0508C19.5645 37.8711 19.7969 37.627 19.9453 37.3184C20.0586 37.0801 20.1152 36.7285 20.1152 36.2637V35.877ZM25.125 38.0566L25.2773 38.9883C24.9805 39.0508 24.7148 39.082 24.4805 39.082C24.0977 39.082 23.8008 39.0215 23.5898 38.9004C23.3789 38.7793 23.2305 38.6211 23.1445 38.4258C23.0586 38.2266 23.0156 37.8105 23.0156 37.1777V33.5977H22.2422V32.7773H23.0156V31.2363L24.0645 30.6035V32.7773H25.125V33.5977H24.0645V37.2363C24.0645 37.5371 24.082 37.7305 24.1172 37.8164C24.1562 37.9023 24.2168 37.9707 24.2988 38.0215C24.3848 38.0723 24.5059 38.0977 24.6621 38.0977C24.7793 38.0977 24.9336 38.084 25.125 38.0566Z" fill="#8B8080"/>
<path d="M21.98 10.79V14.79C21.98 15.05 21.97 15.3 21.94 15.54C21.71 18.24 20.12 19.58 17.19 19.58H16.79C16.54 19.58 16.3 19.7 16.15 19.9L14.95 21.5C14.42 22.21 13.56 22.21 13.03 21.5L11.83 19.9C11.75 19.8068 11.6521 19.7305 11.5422 19.6755C11.4323 19.6206 11.3126 19.5881 11.19 19.58H10.79C7.6 19.58 6 18.79 6 14.79V10.79C6 7.86 7.35 6.27 10.04 6.04C10.28 6.01 10.53 6 10.79 6H17.19C20.38 6 21.98 7.6 21.98 10.79Z" stroke="#8B8080" stroke-width="1.5" stroke-miterlimit="10" stroke-linecap="round" stroke-linejoin="round"/>
<path d="M25.98 6.79V10.79C25.98 13.73 24.63 15.31 21.94 15.54C21.97 15.3 21.98 15.05 21.98 14.79V10.79C21.98 7.6 20.38 6 17.19 6H10.79C10.53 6 10.28 6.01 10.04 6.04C10.27 3.35 11.86 2 14.79 2H21.19C24.38 2 25.98 3.6 25.98 6.79Z" stroke="#8B8080" stroke-width="1.5" stroke-miterlimit="10" stroke-linecap="round" stroke-linejoin="round"/>
<path d="M17.495 13.25H17.505M13.995 13.25H14.005M10.495 13.25H10.505" stroke="#8B8080" stroke-width="2" stroke-linecap="round" stroke-linejoin="round"/>
</svg>
