<svg width="54" height="47" viewBox="0 0 54 47" fill="none" xmlns="http://www.w3.org/2000/svg">
<path d="M0.960938 43V34.4102H2.09766V37.9375H6.5625V34.4102H7.69922V43H6.5625V38.9512H2.09766V43H0.960938ZM13.7227 40.9961L14.8125 41.1309C14.6406 41.7676 14.3223 42.2617 13.8574 42.6133C13.3926 42.9648 12.7988 43.1406 12.0762 43.1406C11.166 43.1406 10.4434 42.8613 9.9082 42.3027C9.37695 41.7402 9.11133 40.9531 9.11133 39.9414C9.11133 38.8945 9.38086 38.082 9.91992 37.5039C10.459 36.9258 11.1582 36.6367 12.0176 36.6367C12.8496 36.6367 13.5293 36.9199 14.0566 37.4863C14.584 38.0527 14.8477 38.8496 14.8477 39.877C14.8477 39.9395 14.8457 40.0332 14.8418 40.1582H10.2012C10.2402 40.8418 10.4336 41.3652 10.7812 41.7285C11.1289 42.0918 11.5625 42.2734 12.082 42.2734C12.4688 42.2734 12.7988 42.1719 13.0723 41.9688C13.3457 41.7656 13.5625 41.4414 13.7227 40.9961ZM10.2598 39.291H13.7344C13.6875 38.7676 13.5547 38.375 13.3359 38.1133C13 37.707 12.5645 37.5039 12.0293 37.5039C11.5449 37.5039 11.1367 37.666 10.8047 37.9902C10.4766 38.3145 10.2949 38.748 10.2598 39.291ZM16.1191 43V34.4102H17.1738V43H16.1191ZM18.8145 45.3848V36.7773H19.7754V37.5859C20.002 37.2695 20.2578 37.0332 20.543 36.877C20.8281 36.7168 21.1738 36.6367 21.5801 36.6367C22.1113 36.6367 22.5801 36.7734 22.9863 37.0469C23.3926 37.3203 23.6992 37.707 23.9062 38.207C24.1133 38.7031 24.2168 39.248 24.2168 39.8418C24.2168 40.4785 24.1016 41.0527 23.8711 41.5645C23.6445 42.0723 23.3125 42.4629 22.875 42.7363C22.4414 43.0059 21.9844 43.1406 21.5039 43.1406C21.1523 43.1406 20.8359 43.0664 20.5547 42.918C20.2773 42.7695 20.0488 42.582 19.8691 42.3555V45.3848H18.8145ZM19.7695 39.9238C19.7695 40.7246 19.9316 41.3164 20.2559 41.6992C20.5801 42.082 20.9727 42.2734 21.4336 42.2734C21.9023 42.2734 22.3027 42.0762 22.6348 41.6816C22.9707 41.2832 23.1387 40.668 23.1387 39.8359C23.1387 39.043 22.9746 38.4492 22.6465 38.0547C22.3223 37.6602 21.9336 37.4629 21.4805 37.4629C21.0312 37.4629 20.6328 37.6738 20.2852 38.0957C19.9414 38.5137 19.7695 39.123 19.7695 39.9238ZM32.8711 43V42.2148C32.4766 42.832 31.8965 43.1406 31.1309 43.1406C30.6348 43.1406 30.1777 43.0039 29.7598 42.7305C29.3457 42.457 29.0234 42.0762 28.793 41.5879C28.5664 41.0957 28.4531 40.5312 28.4531 39.8945C28.4531 39.2734 28.5566 38.7109 28.7637 38.207C28.9707 37.6992 29.2812 37.3105 29.6953 37.041C30.1094 36.7715 30.5723 36.6367 31.084 36.6367C31.459 36.6367 31.793 36.7168 32.0859 36.877C32.3789 37.0332 32.6172 37.2383 32.8008 37.4922V34.4102H33.8496V43H32.8711ZM29.5371 39.8945C29.5371 40.6914 29.7051 41.2871 30.041 41.6816C30.377 42.0762 30.7734 42.2734 31.2305 42.2734C31.6914 42.2734 32.082 42.0859 32.4023 41.7109C32.7266 41.332 32.8887 40.7559 32.8887 39.9824C32.8887 39.1309 32.7246 38.5059 32.3965 38.1074C32.0684 37.709 31.6641 37.5098 31.1836 37.5098C30.7148 37.5098 30.3223 37.7012 30.0059 38.084C29.6934 38.4668 29.5371 39.0703 29.5371 39.8945ZM39.7734 40.9961L40.8633 41.1309C40.6914 41.7676 40.373 42.2617 39.9082 42.6133C39.4434 42.9648 38.8496 43.1406 38.127 43.1406C37.2168 43.1406 36.4941 42.8613 35.959 42.3027C35.4277 41.7402 35.1621 40.9531 35.1621 39.9414C35.1621 38.8945 35.4316 38.082 35.9707 37.5039C36.5098 36.9258 37.209 36.6367 38.0684 36.6367C38.9004 36.6367 39.5801 36.9199 40.1074 37.4863C40.6348 38.0527 40.8984 38.8496 40.8984 39.877C40.8984 39.9395 40.8965 40.0332 40.8926 40.1582H36.252C36.291 40.8418 36.4844 41.3652 36.832 41.7285C37.1797 42.0918 37.6133 42.2734 38.1328 42.2734C38.5195 42.2734 38.8496 42.1719 39.123 41.9688C39.3965 41.7656 39.6133 41.4414 39.7734 40.9961ZM36.3105 39.291H39.7852C39.7383 38.7676 39.6055 38.375 39.3867 38.1133C39.0508 37.707 38.6152 37.5039 38.0801 37.5039C37.5957 37.5039 37.1875 37.666 36.8555 37.9902C36.5273 38.3145 36.3457 38.748 36.3105 39.291ZM41.7715 41.1426L42.8145 40.9785C42.873 41.3965 43.0352 41.7168 43.3008 41.9395C43.5703 42.1621 43.9453 42.2734 44.4258 42.2734C44.9102 42.2734 45.2695 42.1758 45.5039 41.9805C45.7383 41.7812 45.8555 41.5488 45.8555 41.2832C45.8555 41.0449 45.752 40.8574 45.5449 40.7207C45.4004 40.627 45.041 40.5078 44.4668 40.3633C43.6934 40.168 43.1562 40 42.8555 39.8594C42.5586 39.7148 42.332 39.5176 42.1758 39.2676C42.0234 39.0137 41.9473 38.7344 41.9473 38.4297C41.9473 38.1523 42.0098 37.8965 42.1348 37.6621C42.2637 37.4238 42.4375 37.2266 42.6562 37.0703C42.8203 36.9492 43.043 36.8477 43.3242 36.7656C43.6094 36.6797 43.9141 36.6367 44.2383 36.6367C44.7266 36.6367 45.1543 36.707 45.5215 36.8477C45.8926 36.9883 46.166 37.1797 46.3418 37.4219C46.5176 37.6602 46.6387 37.9805 46.7051 38.3828L45.6738 38.5234C45.627 38.2031 45.4902 37.9531 45.2637 37.7734C45.041 37.5938 44.7246 37.5039 44.3145 37.5039C43.8301 37.5039 43.4844 37.584 43.2773 37.7441C43.0703 37.9043 42.9668 38.0918 42.9668 38.3066C42.9668 38.4434 43.0098 38.5664 43.0957 38.6758C43.1816 38.7891 43.3164 38.8828 43.5 38.957C43.6055 38.9961 43.916 39.0859 44.4316 39.2266C45.1777 39.4258 45.6973 39.5898 45.9902 39.7188C46.2871 39.8438 46.5195 40.0273 46.6875 40.2695C46.8555 40.5117 46.9395 40.8125 46.9395 41.1719C46.9395 41.5234 46.8359 41.8555 46.6289 42.168C46.4258 42.4766 46.1309 42.7168 45.7441 42.8887C45.3574 43.0566 44.9199 43.1406 44.4316 43.1406C43.623 43.1406 43.0059 42.9727 42.5801 42.6367C42.1582 42.3008 41.8887 41.8027 41.7715 41.1426ZM48.1992 43V34.4102H49.2539V39.3086L51.75 36.7773H53.1152L50.7363 39.0859L53.3555 43H52.0547L49.998 39.8184L49.2539 40.5332V43H48.1992Z" fill="#8B8080"/>
<path d="M38.9204 20.8876C38.7824 21.0588 38.6044 21.1024 38.3868 21.1016C35.712 21.0956 33.0376 21.1 30.3628 21.0932C30.1536 21.0928 29.9924 21.1488 29.8392 21.2828C29.2476 21.8008 28.89 22.438 28.7736 23.2216C28.6956 23.7456 28.7876 24.236 28.9572 24.7548C29.0484 24.7548 29.1384 24.7548 29.2284 24.7548C30.5152 24.7548 31.802 24.7548 33.0888 24.7548C33.5224 24.7548 33.6284 24.858 33.6288 25.282C33.6296 25.8108 33.6304 26.3396 33.6284 26.8684C33.6272 27.224 33.5012 27.3464 33.1392 27.3464C28.3788 27.3468 23.6184 27.3468 18.8576 27.3464C18.4964 27.3464 18.3716 27.224 18.3704 26.8668C18.3684 26.3212 18.3684 25.7756 18.3704 25.23C18.3716 24.8732 18.4948 24.7552 18.8608 24.7552C20.156 24.7544 21.4512 24.7548 22.7464 24.7548C22.838 24.7548 22.9292 24.7548 23.0352 24.7548C23.2112 24.2568 23.3012 23.7684 23.2276 23.246C23.1256 22.5184 22.814 21.91 22.29 21.4004C22.0772 21.1932 21.852 21.088 21.5344 21.09C18.8936 21.1044 16.2524 21.096 13.6116 21.102C13.3944 21.1024 13.2156 21.0608 13.0788 20.888C13.0788 15.5484 13.0788 10.2088 13.0788 4.8696C13.196 4.6836 13.3708 4.6532 13.578 4.6536C16.9068 4.658 20.236 4.6568 23.5648 4.6568C28.5164 4.6568 33.4676 4.6576 38.4192 4.6536C38.6268 4.6536 38.8008 4.6856 38.9192 4.8696C38.9204 10.2088 38.9204 15.5484 38.9204 20.8876ZM38.1888 20.36C38.1888 15.356 38.1888 10.3816 38.1888 5.3992C30.0548 5.3992 21.9364 5.3992 13.8152 5.3992C13.8152 10.396 13.8152 15.3764 13.8152 20.3524C16.4032 20.3524 18.972 20.3524 21.5592 20.3524C21.5592 20.2244 21.5572 20.116 21.5596 20.0076C21.5712 19.4712 21.5592 18.9328 21.602 18.3988C21.684 17.3716 22.582 16.4664 23.61 16.344C23.8748 16.3124 24.1416 16.2984 24.4132 16.276C24.472 16.052 24.5288 15.836 24.5864 15.6156C24.0124 15.1216 23.84 14.4912 23.864 13.7756C23.8768 13.4 23.8448 13.0224 23.8268 12.6456C23.7824 11.7368 24.2104 10.928 25.1212 10.5828C25.5108 10.4352 25.9108 10.3884 26.3312 10.4436C27.3496 10.5772 28.2216 11.3404 28.174 12.6084C28.158 13.0352 28.1284 13.4628 28.1344 13.8896C28.144 14.554 27.948 15.126 27.4528 15.5832C27.4412 15.5936 27.4372 15.612 27.4156 15.6548C27.472 15.854 27.5344 16.0748 27.5932 16.2824C27.6412 16.2904 27.6576 16.2952 27.6744 16.2956C27.7836 16.2972 27.8932 16.2956 28.0024 16.2996C28.6752 16.3248 29.2664 16.544 29.7448 17.0308C30.2236 17.518 30.4296 18.1148 30.4396 18.7856C30.446 19.222 30.44 19.6584 30.4416 20.0952C30.442 20.1832 30.4516 20.2712 30.4572 20.3596C33.05 20.36 35.612 20.36 38.1888 20.36ZM29.6808 20.3604C29.6808 19.7616 29.6892 19.1916 29.6788 18.6216C29.666 17.9308 29.2064 17.3128 28.538 17.1284C28.26 17.0516 27.958 17.062 27.6672 17.0296C27.5292 17.0144 27.4304 17.0696 27.3348 17.1672C27 17.5092 26.6596 17.846 26.3172 18.1804C26.0948 18.3972 25.9064 18.3964 25.6832 18.1812C25.4596 17.9652 25.2416 17.744 25.0216 17.5248C24.4624 16.9684 24.4624 16.9684 23.6804 17.0688C22.9884 17.1576 22.3492 17.8288 22.3264 18.5204C22.3076 19.0988 22.3196 19.678 22.3192 20.2568C22.3192 20.288 22.3324 20.3192 22.3412 20.3564C22.6148 20.3564 22.8784 20.3564 23.1644 20.3564C23.1644 20.2 23.1644 20.0588 23.1644 19.9176C23.1644 19.4392 23.1612 18.9612 23.1664 18.4828C23.1692 18.2468 23.2816 18.1208 23.482 18.1016C23.7416 18.0768 23.888 18.2096 23.89 18.4856C23.8936 19.0224 23.8912 19.5596 23.8912 20.0964C23.8912 20.1844 23.8912 20.2724 23.8912 20.3576C25.3168 20.3576 26.7004 20.3576 28.1084 20.3576C28.1084 20.2196 28.1084 20.0956 28.1084 19.9716C28.1084 19.4684 28.1052 18.9648 28.11 18.4616C28.1124 18.2232 28.2404 18.1004 28.4656 18.0996C28.7052 18.0988 28.8316 18.232 28.8336 18.5072C28.8376 19.0356 28.8348 19.5644 28.8348 20.0928C28.8348 20.1812 28.8348 20.2692 28.8348 20.3604C29.1332 20.3604 29.3908 20.3604 29.6808 20.3604ZM28.9548 21.116C26.9724 21.116 25.0212 21.116 23.0372 21.116C23.4708 21.6404 23.7512 22.2032 23.8924 22.8368C24.034 23.4712 23.9952 24.098 23.826 24.738C25.2844 24.738 26.7156 24.738 28.1676 24.738C27.8116 23.3948 28.0916 22.2028 28.9548 21.116ZM32.888 25.4968C28.2808 25.4968 23.702 25.4968 19.1208 25.4968C19.1208 25.878 19.1208 26.2416 19.1208 26.6036C23.7196 26.6036 28.2984 26.6036 32.888 26.6036C32.888 26.2292 32.888 25.872 32.888 25.4968ZM27.4172 13.7392C27.412 13.7392 27.4068 13.7388 27.4016 13.7388C27.4016 13.5796 27.4148 13.4192 27.3984 13.262C27.3732 13.0184 27.2392 12.8428 27.0072 12.7528C26.7968 12.6712 26.6044 12.6356 26.4084 12.8244C26.204 13.0212 25.938 13.1088 25.6464 13.0916C25.4708 13.0812 25.2948 13.0748 25.1196 13.0616C24.7716 13.0352 24.5556 13.216 24.588 13.526C24.6072 13.7084 24.59 13.8944 24.5972 14.0784C24.6072 14.3248 24.6672 14.5616 24.8124 14.7628C25.1696 15.2584 25.6388 15.504 26.2656 15.3876C26.7944 15.2892 27.2736 14.8348 27.3844 14.2896C27.4212 14.1112 27.408 13.9228 27.4172 13.7392ZM27.3676 12.0976C27.242 11.4316 26.5356 11.0488 25.6792 11.1764C25.0332 11.2728 24.534 11.8344 24.5944 12.4048C24.8472 12.3272 25.102 12.3004 25.3644 12.3548C25.4616 12.3752 25.5656 12.3648 25.6664 12.3632C25.8268 12.3608 25.9728 12.3052 26.0576 12.1704C26.2332 11.892 26.49 11.8772 26.7668 11.9348C26.9688 11.9768 27.1656 12.042 27.3676 12.0976ZM26.7504 16.0164C26.2396 16.182 25.7484 16.1764 25.2452 16.0164C25.192 16.2164 25.1456 16.3904 25.1112 16.52C25.4336 16.8396 25.7284 17.1316 26.0064 17.4076C26.2884 17.1296 26.5848 16.8372 26.8956 16.5308C26.852 16.376 26.8028 16.2028 26.7504 16.0164Z" fill="#8B8080"/>
<path d="M32.842 8.19999C33.1192 8.04119 33.3736 7.89599 33.6272 7.74999C34.2308 7.40279 34.8336 7.05399 35.4376 6.70759C35.8052 6.49679 35.9436 6.53159 36.1516 6.88879C36.434 7.37439 36.7156 7.86039 36.994 8.34799C37.1768 8.66839 37.1364 8.81599 36.8112 9.00399C36.0196 9.46199 35.2264 9.91639 34.434 10.3728C34.3552 10.418 34.2772 10.4644 34.1808 10.5204C34.2608 10.6576 34.334 10.7768 34.4016 10.8996C34.5188 11.112 34.6448 11.3208 34.744 11.5416C34.8632 11.8064 34.7084 12.0428 34.4168 12.0356C34.1156 12.028 33.8144 11.9964 33.5148 11.9628C33.0156 11.9068 32.5172 11.8408 32.0188 11.7792C31.4536 11.7092 30.8872 11.646 30.3232 11.5672C30.0136 11.524 29.8908 11.2928 30.0152 10.9896C30.2216 10.4864 30.4404 9.98799 30.6556 9.48799C30.95 8.80359 31.246 8.11999 31.5416 7.43599C31.558 7.39759 31.5764 7.35959 31.5912 7.32079C31.6492 7.16639 31.7568 7.06159 31.9224 7.04959C32.0988 7.03679 32.2212 7.13479 32.3064 7.28559C32.4344 7.51199 32.5656 7.73599 32.6964 7.96079C32.7376 8.03239 32.7824 8.10239 32.842 8.19999ZM35.6292 7.44159C35.5156 7.50559 35.4352 7.55039 35.3556 7.59639C34.5636 8.05359 33.7724 8.51199 32.9792 8.96719C32.6804 9.13839 32.5092 9.08999 32.3348 8.79599C32.23 8.61919 32.1268 8.44119 32.0004 8.22479C31.608 9.13799 31.2344 10.0068 30.8532 10.8928C31.8208 11.0064 32.7496 11.1156 33.724 11.23C33.6004 11.0088 33.4956 10.8388 33.4076 10.6604C33.2404 10.3216 33.2824 10.1928 33.6072 10.006C34.4 9.54999 35.1932 9.09519 35.986 8.63919C36.0644 8.59399 36.1408 8.54519 36.2336 8.48839C36.0296 8.13559 35.8348 7.79759 35.6292 7.44159Z" fill="#8B8080"/>
<path d="M17.8136 10.5192C17.7256 10.4664 17.648 10.4188 17.5696 10.3736C16.7916 9.92561 16.0136 9.47801 15.2356 9.03041C15.214 9.01801 15.1912 9.00681 15.1696 8.99401C14.876 8.82001 14.8312 8.66561 14.9916 8.37321C15.056 8.25561 15.1256 8.14081 15.1924 8.02481C15.4188 7.63281 15.6424 7.23961 15.872 6.84961C16.05 6.54761 16.208 6.50521 16.5152 6.68081C17.3236 7.14281 18.1296 7.60881 18.9368 8.07321C19.0016 8.11041 19.0672 8.14641 19.1568 8.19681C19.2372 8.06441 19.3148 7.93921 19.3896 7.81241C19.4916 7.63921 19.5944 7.46601 19.6916 7.29001C19.7752 7.13881 19.8944 7.03521 20.0712 7.04841C20.246 7.06161 20.3488 7.17521 20.4172 7.33681C20.7636 8.15361 21.1168 8.96801 21.4672 9.78281C21.6292 10.1596 21.7924 10.536 21.9524 10.9136C22.1264 11.3244 21.9944 11.5316 21.556 11.5812C20.9488 11.6496 20.344 11.7404 19.7368 11.8116C19.0464 11.8924 18.3548 11.9672 17.6628 12.0312C17.556 12.0412 17.4256 12.006 17.3364 11.9464C17.19 11.8484 17.17 11.6744 17.2668 11.4948C17.414 11.222 17.5736 10.956 17.7272 10.6868C17.7552 10.6372 17.7792 10.5856 17.8136 10.5192ZM21.1484 10.892C20.7648 10.002 20.39 9.13361 20.0016 8.23201C19.8796 8.44281 19.7908 8.61401 19.6852 8.77441C19.468 9.10361 19.3128 9.13761 18.974 8.94201C18.1896 8.48921 17.406 8.03441 16.6216 7.58121C16.544 7.53641 16.4636 7.49641 16.3688 7.44561C16.1652 7.79881 15.9704 8.13681 15.7672 8.48881C15.8604 8.54521 15.9372 8.59401 16.0156 8.63921C16.8152 9.09961 17.6156 9.55761 18.414 10.02C18.7172 10.1956 18.7588 10.3584 18.5888 10.6616C18.4916 10.8352 18.3912 11.0068 18.262 11.232C19.2516 11.1156 20.1872 11.0052 21.1484 10.892Z" fill="#8B8080"/>
<path d="M17.7512 16.9064C18.4652 16.9064 19.1792 16.9056 19.8932 16.9076C19.9848 16.908 20.0792 16.9104 20.1672 16.9328C20.3468 16.9784 20.4504 17.132 20.436 17.3064C20.422 17.4764 20.316 17.598 20.1388 17.6296C20.0404 17.6472 19.9388 17.6528 19.8384 17.6528C18.444 17.6544 17.05 17.6544 15.6556 17.6528C15.5468 17.6528 15.4368 17.6464 15.33 17.628C15.148 17.5968 15.0504 17.4804 15.04 17.3028C15.0296 17.128 15.1152 16.9908 15.2872 16.9412C15.3816 16.914 15.4852 16.9084 15.5844 16.908C16.3064 16.9052 17.0288 16.9064 17.7512 16.9064Z" fill="#8B8080"/>
<path d="M34.2684 16.9064C34.9904 16.9064 35.7124 16.9052 36.4344 16.9076C36.5256 16.908 36.62 16.9136 36.7068 16.9388C36.8756 16.9876 36.9676 17.1292 36.9592 17.2992C36.9504 17.4724 36.848 17.596 36.6708 17.6272C36.564 17.646 36.454 17.6524 36.3452 17.6524C34.9516 17.654 33.558 17.654 32.1644 17.6524C32.056 17.6524 31.9456 17.646 31.8392 17.6252C31.672 17.5924 31.5628 17.4504 31.5604 17.2848C31.558 17.1284 31.65 16.9868 31.8048 16.9424C31.8996 16.9152 32.0024 16.9084 32.102 16.908C32.8244 16.9052 33.5464 16.9064 34.2684 16.9064Z" fill="#8B8080"/>
<path d="M34.2544 14.6016C33.5324 14.6016 32.8104 14.6016 32.088 14.6016C32.0208 14.6016 31.9532 14.6056 31.8868 14.5988C31.7004 14.58 31.564 14.4296 31.5604 14.2452C31.5568 14.0632 31.6912 13.9056 31.876 13.8804C31.934 13.8728 31.9932 13.8764 32.052 13.8764C33.5212 13.8764 34.9908 13.8764 36.46 13.8764C36.5272 13.8764 36.5956 13.872 36.6612 13.8824C36.8456 13.912 36.9692 14.0724 36.9592 14.2596C36.9496 14.4388 36.8256 14.576 36.6472 14.5976C36.5808 14.6056 36.5132 14.6012 36.446 14.6012C35.7156 14.6016 34.9852 14.6016 34.2544 14.6016Z" fill="#8B8080"/>
<path d="M17.7484 14.6016C17.0092 14.6016 16.27 14.6016 15.5308 14.6012C15.4636 14.6012 15.3952 14.6056 15.3296 14.5952C15.1608 14.5684 15.0496 14.438 15.0392 14.2652C15.028 14.0832 15.1344 13.928 15.3048 13.8876C15.3612 13.8744 15.4216 13.8768 15.4804 13.8768C16.984 13.8764 18.4876 13.8776 19.9912 13.8748C20.1728 13.8744 20.326 13.9096 20.4028 14.094C20.5044 14.3384 20.3564 14.5844 20.0916 14.5988C19.9072 14.6088 19.722 14.6016 19.5372 14.6016C18.9412 14.6016 18.3448 14.6016 17.7484 14.6016Z" fill="#8B8080"/>
<path d="M17.7216 16.1184C17.008 16.1184 16.294 16.1184 15.5804 16.1184C15.5048 16.1184 15.4288 16.1208 15.354 16.114C15.184 16.0984 15.0744 15.9976 15.0436 15.8364C15.012 15.6692 15.0856 15.5044 15.24 15.4416C15.3224 15.408 15.4188 15.394 15.5088 15.3936C16.9952 15.3908 18.4816 15.392 19.9676 15.3912C20.134 15.3912 20.2896 15.4132 20.3824 15.572C20.5264 15.8188 20.3768 16.1036 20.0896 16.114C19.7792 16.1252 19.4684 16.1184 19.1576 16.1188C18.6792 16.1184 18.2004 16.1184 17.7216 16.1184Z" fill="#8B8080"/>
<path d="M34.2576 16.118C33.502 16.118 32.7468 16.1176 31.9912 16.1184C31.8532 16.1184 31.7232 16.1084 31.634 15.9808C31.4868 15.7704 31.5792 15.4876 31.8264 15.4136C31.8892 15.3948 31.9588 15.392 32.0252 15.392C33.5108 15.3908 34.9964 15.3908 36.482 15.3916C36.5404 15.3916 36.6008 15.3908 36.6572 15.4028C36.858 15.4456 36.9796 15.6116 36.958 15.8044C36.936 15.9972 36.8136 16.1132 36.5992 16.1148C36.0032 16.1204 35.4072 16.1176 34.8116 16.118C34.6268 16.1184 34.442 16.1184 34.2576 16.118Z" fill="#8B8080"/>
<path d="M17.7312 18.4488C18.4784 18.4488 19.226 18.4476 19.9732 18.4492C20.2868 18.45 20.4452 18.5768 20.4372 18.8132C20.4296 19.0492 20.268 19.1756 19.958 19.176C18.48 19.1776 17.0024 19.1776 15.5244 19.1744C15.426 19.174 15.3216 19.1588 15.2312 19.1224C15.0896 19.066 15.0184 18.9048 15.0416 18.7468C15.0656 18.5824 15.1712 18.4756 15.3384 18.4556C15.4132 18.4468 15.4892 18.4484 15.5648 18.4484C16.2868 18.4488 17.0092 18.4488 17.7312 18.4488Z" fill="#8B8080"/>
<path d="M34.2516 18.4488C34.9748 18.4488 35.6984 18.4488 36.4216 18.4492C36.4972 18.4492 36.5736 18.4472 36.6484 18.4552C36.8176 18.4732 36.9256 18.5756 36.9548 18.7388C36.984 18.9004 36.902 19.0724 36.7496 19.1304C36.6656 19.1624 36.57 19.1752 36.4796 19.1756C34.9992 19.1784 33.5192 19.1784 32.0388 19.1768C31.7516 19.1764 31.6264 19.0928 31.5776 18.8836C31.5268 18.6652 31.656 18.4736 31.8804 18.4564C32.056 18.4428 32.2332 18.4496 32.41 18.4496C33.0236 18.4484 33.6376 18.4488 34.2516 18.4488Z" fill="#8B8080"/>
</svg>
