<svg width="62" height="42" viewBox="0 0 62 42" fill="none" xmlns="http://www.w3.org/2000/svg">
<path d="M0.982422 38L4.28125 29.4102H5.50586L9.02148 38H7.72656L6.72461 35.3984H3.13281L2.18945 38H0.982422ZM3.46094 34.4727H6.37305L5.47656 32.0938C5.20312 31.3711 5 30.7773 4.86719 30.3125C4.75781 30.8633 4.60352 31.4102 4.4043 31.9531L3.46094 34.4727ZM9.79492 40.3848V31.7773H10.7559V32.5859C10.9824 32.2695 11.2383 32.0332 11.5234 31.877C11.8086 31.7168 12.1543 31.6367 12.5605 31.6367C13.0918 31.6367 13.5605 31.7734 13.9668 32.0469C14.373 32.3203 14.6797 32.707 14.8867 33.207C15.0938 33.7031 15.1973 34.248 15.1973 34.8418C15.1973 35.4785 15.082 36.0527 14.8516 36.5645C14.625 37.0723 14.293 37.4629 13.8555 37.7363C13.4219 38.0059 12.9648 38.1406 12.4844 38.1406C12.1328 38.1406 11.8164 38.0664 11.5352 37.918C11.2578 37.7695 11.0293 37.582 10.8496 37.3555V40.3848H9.79492ZM10.75 34.9238C10.75 35.7246 10.9121 36.3164 11.2363 36.6992C11.5605 37.082 11.9531 37.2734 12.4141 37.2734C12.8828 37.2734 13.2832 37.0762 13.6152 36.6816C13.9512 36.2832 14.1191 35.668 14.1191 34.8359C14.1191 34.043 13.9551 33.4492 13.627 33.0547C13.3027 32.6602 12.9141 32.4629 12.4609 32.4629C12.0117 32.4629 11.6133 32.6738 11.2656 33.0957C10.9219 33.5137 10.75 34.123 10.75 34.9238ZM16.4746 40.3848V31.7773H17.4355V32.5859C17.6621 32.2695 17.918 32.0332 18.2031 31.877C18.4883 31.7168 18.834 31.6367 19.2402 31.6367C19.7715 31.6367 20.2402 31.7734 20.6465 32.0469C21.0527 32.3203 21.3594 32.707 21.5664 33.207C21.7734 33.7031 21.877 34.248 21.877 34.8418C21.877 35.4785 21.7617 36.0527 21.5312 36.5645C21.3047 37.0723 20.9727 37.4629 20.5352 37.7363C20.1016 38.0059 19.6445 38.1406 19.1641 38.1406C18.8125 38.1406 18.4961 38.0664 18.2148 37.918C17.9375 37.7695 17.709 37.582 17.5293 37.3555V40.3848H16.4746ZM17.4297 34.9238C17.4297 35.7246 17.5918 36.3164 17.916 36.6992C18.2402 37.082 18.6328 37.2734 19.0938 37.2734C19.5625 37.2734 19.9629 37.0762 20.2949 36.6816C20.6309 36.2832 20.7988 35.668 20.7988 34.8359C20.7988 34.043 20.6348 33.4492 20.3066 33.0547C19.9824 32.6602 19.5938 32.4629 19.1406 32.4629C18.6914 32.4629 18.293 32.6738 17.9453 33.0957C17.6016 33.5137 17.4297 34.123 17.4297 34.9238ZM26.0723 36.1426L27.1152 35.9785C27.1738 36.3965 27.3359 36.7168 27.6016 36.9395C27.8711 37.1621 28.2461 37.2734 28.7266 37.2734C29.2109 37.2734 29.5703 37.1758 29.8047 36.9805C30.0391 36.7812 30.1562 36.5488 30.1562 36.2832C30.1562 36.0449 30.0527 35.8574 29.8457 35.7207C29.7012 35.627 29.3418 35.5078 28.7676 35.3633C27.9941 35.168 27.457 35 27.1562 34.8594C26.8594 34.7148 26.6328 34.5176 26.4766 34.2676C26.3242 34.0137 26.248 33.7344 26.248 33.4297C26.248 33.1523 26.3105 32.8965 26.4355 32.6621C26.5645 32.4238 26.7383 32.2266 26.957 32.0703C27.1211 31.9492 27.3438 31.8477 27.625 31.7656C27.9102 31.6797 28.2148 31.6367 28.5391 31.6367C29.0273 31.6367 29.4551 31.707 29.8223 31.8477C30.1934 31.9883 30.4668 32.1797 30.6426 32.4219C30.8184 32.6602 30.9395 32.9805 31.0059 33.3828L29.9746 33.5234C29.9277 33.2031 29.791 32.9531 29.5645 32.7734C29.3418 32.5938 29.0254 32.5039 28.6152 32.5039C28.1309 32.5039 27.7852 32.584 27.5781 32.7441C27.3711 32.9043 27.2676 33.0918 27.2676 33.3066C27.2676 33.4434 27.3105 33.5664 27.3965 33.6758C27.4824 33.7891 27.6172 33.8828 27.8008 33.957C27.9062 33.9961 28.2168 34.0859 28.7324 34.2266C29.4785 34.4258 29.998 34.5898 30.291 34.7188C30.5879 34.8438 30.8203 35.0273 30.9883 35.2695C31.1562 35.5117 31.2402 35.8125 31.2402 36.1719C31.2402 36.5234 31.1367 36.8555 30.9297 37.168C30.7266 37.4766 30.4316 37.7168 30.0449 37.8887C29.6582 38.0566 29.2207 38.1406 28.7324 38.1406C27.9238 38.1406 27.3066 37.9727 26.8809 37.6367C26.459 37.3008 26.1895 36.8027 26.0723 36.1426ZM34.7969 37.0566L34.9492 37.9883C34.6523 38.0508 34.3867 38.082 34.1523 38.082C33.7695 38.082 33.4727 38.0215 33.2617 37.9004C33.0508 37.7793 32.9023 37.6211 32.8164 37.4258C32.7305 37.2266 32.6875 36.8105 32.6875 36.1777V32.5977H31.9141V31.7773H32.6875V30.2363L33.7363 29.6035V31.7773H34.7969V32.5977H33.7363V36.2363C33.7363 36.5371 33.7539 36.7305 33.7891 36.8164C33.8281 36.9023 33.8887 36.9707 33.9707 37.0215C34.0566 37.0723 34.1777 37.0977 34.334 37.0977C34.4512 37.0977 34.6055 37.084 34.7969 37.0566ZM39.8945 37.2324C39.5039 37.5645 39.127 37.7988 38.7637 37.9355C38.4043 38.0723 38.0176 38.1406 37.6035 38.1406C36.9199 38.1406 36.3945 37.9746 36.0273 37.6426C35.6602 37.3066 35.4766 36.8789 35.4766 36.3594C35.4766 36.0547 35.5449 35.7773 35.6816 35.5273C35.8223 35.2734 36.0039 35.0703 36.2266 34.918C36.4531 34.7656 36.707 34.6504 36.9883 34.5723C37.1953 34.5176 37.5078 34.4648 37.9258 34.4141C38.7773 34.3125 39.4043 34.1914 39.8066 34.0508C39.8105 33.9062 39.8125 33.8145 39.8125 33.7754C39.8125 33.3457 39.7129 33.043 39.5137 32.8672C39.2441 32.6289 38.8438 32.5098 38.3125 32.5098C37.8164 32.5098 37.4492 32.5977 37.2109 32.7734C36.9766 32.9453 36.8027 33.252 36.6895 33.6934L35.6582 33.5527C35.752 33.1113 35.9062 32.7559 36.1211 32.4863C36.3359 32.2129 36.6465 32.0039 37.0527 31.8594C37.459 31.7109 37.9297 31.6367 38.4648 31.6367C38.9961 31.6367 39.4277 31.6992 39.7598 31.8242C40.0918 31.9492 40.3359 32.1074 40.4922 32.2988C40.6484 32.4863 40.7578 32.7246 40.8203 33.0137C40.8555 33.1934 40.873 33.5176 40.873 33.9863V35.3926C40.873 36.373 40.8945 36.9941 40.9375 37.2559C40.9844 37.5137 41.0742 37.7617 41.207 38H40.1055C39.9961 37.7812 39.9258 37.5254 39.8945 37.2324ZM39.8066 34.877C39.4238 35.0332 38.8496 35.166 38.084 35.2754C37.6504 35.3379 37.3438 35.4082 37.1641 35.4863C36.9844 35.5645 36.8457 35.6797 36.748 35.832C36.6504 35.9805 36.6016 36.1465 36.6016 36.3301C36.6016 36.6113 36.707 36.8457 36.918 37.0332C37.1328 37.2207 37.4453 37.3145 37.8555 37.3145C38.2617 37.3145 38.623 37.2266 38.9395 37.0508C39.2559 36.8711 39.4883 36.627 39.6367 36.3184C39.75 36.0801 39.8066 35.7285 39.8066 35.2637V34.877ZM44.8164 37.0566L44.9688 37.9883C44.6719 38.0508 44.4062 38.082 44.1719 38.082C43.7891 38.082 43.4922 38.0215 43.2812 37.9004C43.0703 37.7793 42.9219 37.6211 42.8359 37.4258C42.75 37.2266 42.707 36.8105 42.707 36.1777V32.5977H41.9336V31.7773H42.707V30.2363L43.7559 29.6035V31.7773H44.8164V32.5977H43.7559V36.2363C43.7559 36.5371 43.7734 36.7305 43.8086 36.8164C43.8477 36.9023 43.9082 36.9707 43.9902 37.0215C44.0762 37.0723 44.1973 37.0977 44.3535 37.0977C44.4707 37.0977 44.625 37.084 44.8164 37.0566ZM45.8594 30.623V29.4102H46.9141V30.623H45.8594ZM45.8594 38V31.7773H46.9141V38H45.8594ZM48.1328 34.8887C48.1328 33.7363 48.4531 32.8828 49.0938 32.3281C49.6289 31.8672 50.2812 31.6367 51.0508 31.6367C51.9062 31.6367 52.6055 31.918 53.1484 32.4805C53.6914 33.0391 53.9629 33.8125 53.9629 34.8008C53.9629 35.6016 53.8418 36.2324 53.5996 36.6934C53.3613 37.1504 53.0117 37.5059 52.5508 37.7598C52.0938 38.0137 51.5938 38.1406 51.0508 38.1406C50.1797 38.1406 49.4746 37.8613 48.9355 37.3027C48.4004 36.7441 48.1328 35.9395 48.1328 34.8887ZM49.2168 34.8887C49.2168 35.6855 49.3906 36.2832 49.7383 36.6816C50.0859 37.0762 50.5234 37.2734 51.0508 37.2734C51.5742 37.2734 52.0098 37.0742 52.3574 36.6758C52.7051 36.2773 52.8789 35.6699 52.8789 34.8535C52.8789 34.084 52.7031 33.502 52.3516 33.1074C52.0039 32.709 51.5703 32.5098 51.0508 32.5098C50.5234 32.5098 50.0859 32.707 49.7383 33.1016C49.3906 33.4961 49.2168 34.0918 49.2168 34.8887ZM55.2051 38V31.7773H56.1543V32.6621C56.6113 31.9785 57.2715 31.6367 58.1348 31.6367C58.5098 31.6367 58.8535 31.7051 59.166 31.8418C59.4824 31.9746 59.7188 32.1504 59.875 32.3691C60.0312 32.5879 60.1406 32.8477 60.2031 33.1484C60.2422 33.3438 60.2617 33.6855 60.2617 34.1738V38H59.207V34.2148C59.207 33.7852 59.166 33.4648 59.084 33.2539C59.002 33.0391 58.8555 32.8691 58.6445 32.7441C58.4375 32.6152 58.1934 32.5508 57.9121 32.5508C57.4629 32.5508 57.0742 32.6934 56.7461 32.9785C56.4219 33.2637 56.2598 33.8047 56.2598 34.6016V38H55.2051Z" fill="#8B8080"/>
<path d="M34.54 8.31001C35.1924 8.31001 35.8181 8.05084 36.2795 7.5895C36.7408 7.12816 37 6.50245 37 5.85001C37 5.19758 36.7408 4.57187 36.2795 4.11053C35.8181 3.64919 35.1924 3.39001 34.54 3.39001C33.8876 3.39001 33.2619 3.64919 32.8005 4.11053C32.3392 4.57187 32.08 5.19758 32.08 5.85001C32.08 6.50245 32.3392 7.12816 32.8005 7.5895C33.2619 8.05084 33.8876 8.31001 34.54 8.31001ZM23.46 8.31001C24.1124 8.31001 24.7381 8.05084 25.1995 7.5895C25.6608 7.12816 25.92 6.50245 25.92 5.85001C25.92 5.19758 25.6608 4.57187 25.1995 4.11053C24.7381 3.64919 24.1124 3.39001 23.46 3.39001C22.8076 3.39001 22.1819 3.64919 21.7205 4.11053C21.2592 4.57187 21 5.19758 21 5.85001C21 6.50245 21.2592 7.12816 21.7205 7.5895C22.1819 8.05084 22.8076 8.31001 23.46 8.31001ZM34.54 20.61C34.8631 20.61 35.1829 20.5464 35.4814 20.4228C35.7799 20.2991 36.051 20.1179 36.2795 19.8895C36.5079 19.6611 36.6891 19.3899 36.8127 19.0914C36.9364 18.793 37 18.4731 37 18.15C37 17.827 36.9364 17.5071 36.8127 17.2086C36.6891 16.9102 36.5079 16.639 36.2795 16.4105C36.051 16.1821 35.7799 16.0009 35.4814 15.8773C35.1829 15.7536 34.8631 15.69 34.54 15.69C33.8876 15.69 33.2619 15.9492 32.8005 16.4105C32.3392 16.8719 32.08 17.4976 32.08 18.15C32.08 18.8024 32.3392 19.4282 32.8005 19.8895C33.2619 20.3508 33.8876 20.61 34.54 20.61ZM23.46 20.61C23.7831 20.61 24.1029 20.5464 24.4014 20.4228C24.6999 20.2991 24.9711 20.1179 25.1995 19.8895C25.4279 19.6611 25.6091 19.3899 25.7327 19.0914C25.8564 18.793 25.92 18.4731 25.92 18.15C25.92 17.827 25.8564 17.5071 25.7327 17.2086C25.6091 16.9102 25.4279 16.639 25.1995 16.4105C24.9711 16.1821 24.6999 16.0009 24.4014 15.8773C24.1029 15.7536 23.7831 15.69 23.46 15.69C22.8076 15.69 22.1819 15.9492 21.7205 16.4105C21.2592 16.8719 21 17.4976 21 18.15C21 18.8024 21.2592 19.4282 21.7205 19.8895C22.1819 20.3508 22.8076 20.61 23.46 20.61Z" stroke="#8B8080" stroke-miterlimit="10" stroke-linecap="round" stroke-linejoin="round"/>
</svg>
