<svg width="33" height="43" viewBox="0 0 33 43" fill="none" xmlns="http://www.w3.org/2000/svg">
<path d="M0.960938 39V30.4102H2.09766V33.9375H6.5625V30.4102H7.69922V39H6.5625V34.9512H2.09766V39H0.960938ZM9.07031 35.8887C9.07031 34.7363 9.39062 33.8828 10.0312 33.3281C10.5664 32.8672 11.2188 32.6367 11.9883 32.6367C12.8438 32.6367 13.543 32.918 14.0859 33.4805C14.6289 34.0391 14.9004 34.8125 14.9004 35.8008C14.9004 36.6016 14.7793 37.2324 14.5371 37.6934C14.2988 38.1504 13.9492 38.5059 13.4883 38.7598C13.0312 39.0137 12.5312 39.1406 11.9883 39.1406C11.1172 39.1406 10.4121 38.8613 9.87305 38.3027C9.33789 37.7441 9.07031 36.9395 9.07031 35.8887ZM10.1543 35.8887C10.1543 36.6855 10.3281 37.2832 10.6758 37.6816C11.0234 38.0762 11.4609 38.2734 11.9883 38.2734C12.5117 38.2734 12.9473 38.0742 13.2949 37.6758C13.6426 37.2773 13.8164 36.6699 13.8164 35.8535C13.8164 35.084 13.6406 34.502 13.2891 34.1074C12.9414 33.709 12.5078 33.5098 11.9883 33.5098C11.4609 33.5098 11.0234 33.707 10.6758 34.1016C10.3281 34.4961 10.1543 35.0918 10.1543 35.8887ZM16.1426 39V32.7773H17.0859V33.6504C17.2812 33.3457 17.541 33.1016 17.8652 32.918C18.1895 32.7305 18.5586 32.6367 18.9727 32.6367C19.4336 32.6367 19.8105 32.7324 20.1035 32.9238C20.4004 33.1152 20.6094 33.3828 20.7305 33.7266C21.2227 33 21.8633 32.6367 22.6523 32.6367C23.2695 32.6367 23.7441 32.8086 24.0762 33.1523C24.4082 33.4922 24.5742 34.0176 24.5742 34.7285V39H23.5254V35.0801C23.5254 34.6582 23.4902 34.3555 23.4199 34.1719C23.3535 33.9844 23.2305 33.834 23.0508 33.7207C22.8711 33.6074 22.6602 33.5508 22.418 33.5508C21.9805 33.5508 21.6172 33.6973 21.3281 33.9902C21.0391 34.2793 20.8945 34.7441 20.8945 35.3848V39H19.8398V34.957C19.8398 34.4883 19.7539 34.1367 19.582 33.9023C19.4102 33.668 19.1289 33.5508 18.7383 33.5508C18.4414 33.5508 18.166 33.6289 17.9121 33.7852C17.6621 33.9414 17.4805 34.1699 17.3672 34.4707C17.2539 34.7715 17.1973 35.2051 17.1973 35.7715V39H16.1426ZM30.3984 36.9961L31.4883 37.1309C31.3164 37.7676 30.998 38.2617 30.5332 38.6133C30.0684 38.9648 29.4746 39.1406 28.752 39.1406C27.8418 39.1406 27.1191 38.8613 26.584 38.3027C26.0527 37.7402 25.7871 36.9531 25.7871 35.9414C25.7871 34.8945 26.0566 34.082 26.5957 33.5039C27.1348 32.9258 27.834 32.6367 28.6934 32.6367C29.5254 32.6367 30.2051 32.9199 30.7324 33.4863C31.2598 34.0527 31.5234 34.8496 31.5234 35.877C31.5234 35.9395 31.5215 36.0332 31.5176 36.1582H26.877C26.916 36.8418 27.1094 37.3652 27.457 37.7285C27.8047 38.0918 28.2383 38.2734 28.7578 38.2734C29.1445 38.2734 29.4746 38.1719 29.748 37.9688C30.0215 37.7656 30.2383 37.4414 30.3984 36.9961ZM26.9355 35.291H30.4102C30.3633 34.7676 30.2305 34.375 30.0117 34.1133C29.6758 33.707 29.2402 33.5039 28.7051 33.5039C28.2207 33.5039 27.8125 33.666 27.4805 33.9902C27.1523 34.3145 26.9707 34.748 26.9355 35.291Z" fill="#8B8080"/>
<path d="M7.25 9L16.25 2L25.25 9V20C25.25 20.5304 25.0393 21.0391 24.6642 21.4142C24.2891 21.7893 23.7804 22 23.25 22H9.25C8.71957 22 8.21086 21.7893 7.83579 21.4142C7.46071 21.0391 7.25 20.5304 7.25 20V9Z" stroke="#8B8080" stroke-linecap="round" stroke-linejoin="round"/>
<path d="M13.25 22V12H19.25V22" stroke="#8B8080" stroke-linecap="round" stroke-linejoin="round"/>
</svg>
