<svg width="92" height="97" viewBox="0 0 92 97" fill="none" xmlns="http://www.w3.org/2000/svg">
<g filter="url(#filter0_d_270_1009)">
<rect y="0.5" width="88" height="88" rx="8" fill="white"/>
<rect x="0.5" y="1" width="87" height="87" rx="7.5" stroke="#C6C6C6"/>
</g>
<path d="M23.873 73.5V64.9102H26.6562C27.7109 64.9102 28.3984 64.9531 28.7188 65.0391C29.2109 65.168 29.623 65.4492 29.9551 65.8828C30.2871 66.3125 30.4531 66.8691 30.4531 67.5527C30.4531 68.0801 30.3574 68.5234 30.166 68.8828C29.9746 69.2422 29.7305 69.5254 29.4336 69.7324C29.1406 69.9355 28.8418 70.0703 28.5371 70.1367C28.123 70.2188 27.5234 70.2598 26.7383 70.2598H25.6074V73.5H23.873ZM25.6074 66.3633V68.8008H26.5566C27.2402 68.8008 27.6973 68.7559 27.9277 68.666C28.1582 68.5762 28.3379 68.4355 28.4668 68.2441C28.5996 68.0527 28.666 67.8301 28.666 67.5762C28.666 67.2637 28.5742 67.0059 28.3906 66.8027C28.207 66.5996 27.9746 66.4727 27.6934 66.4219C27.4863 66.3828 27.0703 66.3633 26.4453 66.3633H25.6074ZM33.4414 73.5H31.7949V67.2773H33.3242V68.1621C33.5859 67.7441 33.8203 67.4688 34.0273 67.3359C34.2383 67.2031 34.4766 67.1367 34.7422 67.1367C35.1172 67.1367 35.4785 67.2402 35.8262 67.4473L35.3164 68.8828C35.0391 68.7031 34.7812 68.6133 34.543 68.6133C34.3125 68.6133 34.1172 68.6777 33.957 68.8066C33.7969 68.9316 33.6699 69.1602 33.5762 69.4922C33.4863 69.8242 33.4414 70.5195 33.4414 71.5781V73.5ZM36.1602 70.3008C36.1602 69.7539 36.2949 69.2246 36.5645 68.7129C36.834 68.2012 37.2148 67.8105 37.707 67.541C38.2031 67.2715 38.7559 67.1367 39.3652 67.1367C40.3066 67.1367 41.0781 67.4434 41.6797 68.0566C42.2812 68.666 42.582 69.4375 42.582 70.3711C42.582 71.3125 42.2773 72.0938 41.668 72.7148C41.0625 73.332 40.2988 73.6406 39.377 73.6406C38.8066 73.6406 38.2617 73.5117 37.7422 73.2539C37.2266 72.9961 36.834 72.6191 36.5645 72.123C36.2949 71.623 36.1602 71.0156 36.1602 70.3008ZM37.8477 70.3887C37.8477 71.0059 37.9941 71.4785 38.2871 71.8066C38.5801 72.1348 38.9414 72.2988 39.3711 72.2988C39.8008 72.2988 40.1602 72.1348 40.4492 71.8066C40.7422 71.4785 40.8887 71.002 40.8887 70.377C40.8887 69.7676 40.7422 69.2988 40.4492 68.9707C40.1602 68.6426 39.8008 68.4785 39.3711 68.4785C38.9414 68.4785 38.5801 68.6426 38.2871 68.9707C37.9941 69.2988 37.8477 69.7715 37.8477 70.3887ZM46.7305 67.2773V68.5898H45.6055V71.0977C45.6055 71.6055 45.6152 71.9023 45.6348 71.9883C45.6582 72.0703 45.707 72.1387 45.7812 72.1934C45.8594 72.248 45.9531 72.2754 46.0625 72.2754C46.2148 72.2754 46.4355 72.2227 46.7246 72.1172L46.8652 73.3945C46.4824 73.5586 46.0488 73.6406 45.5645 73.6406C45.2676 73.6406 45 73.5918 44.7617 73.4941C44.5234 73.3926 44.3477 73.2637 44.2344 73.1074C44.125 72.9473 44.0488 72.7324 44.0059 72.4629C43.9707 72.2715 43.9531 71.8848 43.9531 71.3027V68.5898H43.1973V67.2773H43.9531V66.041L45.6055 65.0801V67.2773H46.7305ZM51.4766 71.5195L53.1172 71.7949C52.9062 72.3965 52.5723 72.8555 52.1152 73.1719C51.6621 73.4844 51.0938 73.6406 50.4102 73.6406C49.3281 73.6406 48.5273 73.2871 48.0078 72.5801C47.5977 72.0137 47.3926 71.2988 47.3926 70.4355C47.3926 69.4043 47.6621 68.5977 48.2012 68.0156C48.7402 67.4297 49.4219 67.1367 50.2461 67.1367C51.1719 67.1367 51.9023 67.4434 52.4375 68.0566C52.9727 68.666 53.2285 69.6016 53.2051 70.8633H49.0801C49.0918 71.3516 49.2246 71.7324 49.4785 72.0059C49.7324 72.2754 50.0488 72.4102 50.4277 72.4102C50.6855 72.4102 50.9023 72.3398 51.0781 72.1992C51.2539 72.0586 51.3867 71.832 51.4766 71.5195ZM51.5703 69.8555C51.5586 69.3789 51.4355 69.0176 51.2012 68.7715C50.9668 68.5215 50.6816 68.3965 50.3457 68.3965C49.9863 68.3965 49.6895 68.5273 49.4551 68.7891C49.2207 69.0508 49.1055 69.4062 49.1094 69.8555H51.5703ZM59.9785 69.1172L58.3555 69.4102C58.3008 69.0859 58.1758 68.8418 57.9805 68.6777C57.7891 68.5137 57.5391 68.4316 57.2305 68.4316C56.8203 68.4316 56.4922 68.5742 56.2461 68.8594C56.0039 69.1406 55.8828 69.6133 55.8828 70.2773C55.8828 71.0156 56.0059 71.5371 56.252 71.8418C56.502 72.1465 56.8359 72.2988 57.2539 72.2988C57.5664 72.2988 57.8223 72.2109 58.0215 72.0352C58.2207 71.8555 58.3613 71.5488 58.4434 71.1152L60.0605 71.3906C59.8926 72.1328 59.5703 72.6934 59.0938 73.0723C58.6172 73.4512 57.9785 73.6406 57.1777 73.6406C56.2676 73.6406 55.541 73.3535 54.998 72.7793C54.459 72.2051 54.1895 71.4102 54.1895 70.3945C54.1895 69.3672 54.4609 68.5684 55.0039 67.998C55.5469 67.4238 56.2812 67.1367 57.207 67.1367C57.9648 67.1367 58.5664 67.3008 59.0117 67.6289C59.4609 67.9531 59.7832 68.4492 59.9785 69.1172ZM64.0859 67.2773V68.5898H62.9609V71.0977C62.9609 71.6055 62.9707 71.9023 62.9902 71.9883C63.0137 72.0703 63.0625 72.1387 63.1367 72.1934C63.2148 72.248 63.3086 72.2754 63.418 72.2754C63.5703 72.2754 63.791 72.2227 64.0801 72.1172L64.2207 73.3945C63.8379 73.5586 63.4043 73.6406 62.9199 73.6406C62.623 73.6406 62.3555 73.5918 62.1172 73.4941C61.8789 73.3926 61.7031 73.2637 61.5898 73.1074C61.4805 72.9473 61.4043 72.7324 61.3613 72.4629C61.3262 72.2715 61.3086 71.8848 61.3086 71.3027V68.5898H60.5527V67.2773H61.3086V66.041L62.9609 65.0801V67.2773H64.0859Z" fill="#48484A"/>
<g clip-path="url(#clip0_270_1009)">
<path d="M43.545 54.9644C41.8876 54.2886 40.2928 53.496 38.8122 52.481C35.2751 50.0548 32.6075 46.8821 30.7122 43.05C29.3308 40.258 28.4709 37.3035 28.1765 34.2077C28.0229 32.5917 28.0467 30.9588 28.0093 29.3327C27.9882 28.4191 28.0106 27.5047 28.0038 26.591C27.9997 25.986 28.2492 25.5469 28.7754 25.2348C33.5491 22.4027 38.3193 19.5645 43.0882 16.7229C43.6334 16.3979 44.1392 16.4435 44.6721 16.761C49.4057 19.5835 54.1433 22.3993 58.8823 25.2131C59.2908 25.4558 59.5872 25.7678 59.6606 26.2532C59.6702 26.315 59.6817 26.3776 59.681 26.4394C59.6586 28.7297 59.7177 31.0255 59.5899 33.3096C59.4139 36.466 58.6198 39.4946 57.2956 42.3722C55.2174 46.8895 52.1331 50.5401 47.8584 53.1173C46.6783 53.8291 45.3859 54.3539 44.1446 54.9644C43.9461 54.9644 43.7456 54.9644 43.545 54.9644ZM57.0821 30.468C57.0821 29.2308 57.0712 28.3796 57.0882 27.5285C57.0937 27.2593 57.0155 27.1029 56.7776 26.9622C52.5512 24.4571 48.3288 21.9445 44.1106 19.4251C43.908 19.3041 43.7666 19.3191 43.5729 19.4347C39.3445 21.9581 35.1133 24.4768 30.8781 26.9894C30.6809 27.1063 30.6007 27.2287 30.6034 27.4605C30.6157 28.5625 30.5783 29.6652 30.6163 30.7658C30.6653 32.1519 30.6802 33.5482 30.8692 34.9187C31.322 38.2009 32.4444 41.2593 34.2336 44.0575C36.5436 47.6707 39.6123 50.4191 43.5552 52.1527C43.7224 52.2261 43.9781 52.2254 44.1439 52.1506C44.7925 51.8583 45.441 51.5571 46.0535 51.1968C51.1236 48.2145 54.3846 43.8195 56.0964 38.2355C56.9108 35.5795 57.178 32.8514 57.0821 30.468Z" fill="#E21E27"/>
<path d="M41.2391 38.1675C42.0739 37.3272 42.8747 36.5176 43.6789 35.712C45.2092 34.1797 46.7401 32.6481 48.2724 31.1185C48.8645 30.5277 49.632 30.491 50.1732 31.0192C50.7075 31.5407 50.6946 32.3449 50.1167 32.9248C47.492 35.5577 44.8631 38.1865 42.2309 40.8113C41.6001 41.4408 40.874 41.434 40.2493 40.8119C39.3621 39.9289 38.477 39.0437 37.5932 38.1573C37.0106 37.5719 36.9733 36.7895 37.4974 36.2552C38.0222 35.7201 38.8176 35.7405 39.4009 36.317C40.0066 36.9139 40.6 37.523 41.2391 38.1675Z" fill="#E21E27"/>
</g>
<defs>
<filter id="filter0_d_270_1009" x="-4" y="0.5" width="96" height="96" filterUnits="userSpaceOnUse" color-interpolation-filters="sRGB">
<feFlood flood-opacity="0" result="BackgroundImageFix"/>
<feColorMatrix in="SourceAlpha" type="matrix" values="0 0 0 0 0 0 0 0 0 0 0 0 0 0 0 0 0 0 127 0" result="hardAlpha"/>
<feOffset dy="4"/>
<feGaussianBlur stdDeviation="2"/>
<feComposite in2="hardAlpha" operator="out"/>
<feColorMatrix type="matrix" values="0 0 0 0 0 0 0 0 0 0 0 0 0 0 0 0 0 0 0.25 0"/>
<feBlend mode="normal" in2="BackgroundImageFix" result="effect1_dropShadow_270_1009"/>
<feBlend mode="normal" in="SourceGraphic" in2="effect1_dropShadow_270_1009" result="shape"/>
</filter>
<clipPath id="clip0_270_1009">
<rect width="45" height="45" fill="white" transform="translate(22 16.5)"/>
</clipPath>
</defs>
</svg>
