<svg width="35" height="18" viewBox="0 0 35 18" fill="none" xmlns="http://www.w3.org/2000/svg">
<path d="M6.34703 17.1544L6.3535 17.1608C7.466 17.6496 8.70139 17.9262 9.995 17.9262C12.8797 17.9262 15.4475 16.5755 17.1034 14.4786C17.3039 14.2278 17.4914 13.9641 17.6596 13.6875C17.8213 13.4238 17.9701 13.1536 18.1059 12.8706C18.2353 12.6005 18.3581 12.3303 18.4681 12.0473C18.8238 11.0889 19.0179 10.0469 19.0179 8.96633C19.0179 8.04654 19.2184 7.17178 19.5741 6.38706C20.5637 4.20658 22.7693 2.69504 25.3242 2.69504C28.8105 2.69504 31.637 5.50587 31.637 8.96633C31.637 9.33296 31.6047 9.69316 31.54 10.0469H22.5365C22.627 10.465 22.8146 10.8445 23.0669 11.1725C23.5843 11.8415 24.4057 12.2724 25.3242 12.2724C26.2427 12.2724 27.0576 11.8415 27.5815 11.1725H31.236C30.3369 13.5524 28.0343 15.244 25.3307 15.244C22.7758 15.244 20.5702 13.7261 19.5806 11.552C19.2895 12.6133 18.8303 13.5974 18.2288 14.4851C19.8781 16.5819 22.4459 17.9327 25.3307 17.9327C30.311 17.9327 34.3471 13.919 34.3471 8.97276C34.3471 4.02005 30.311 0.00643223 25.3307 0.00643223C22.4459 0.00643223 19.8781 1.35717 18.2288 3.45403C18.0283 3.70488 17.8407 3.97503 17.6725 4.24518C17.1357 5.10065 16.7411 6.05903 16.5212 7.0753C16.3919 7.68634 16.3207 8.31669 16.3207 8.96633C16.3207 9.88612 16.1202 10.7609 15.7645 11.5456C14.7749 13.7196 12.5693 15.2376 10.0144 15.2376C9.94325 15.2376 9.8721 15.2312 9.80096 15.2248V12.7098C9.80096 11.2562 10.1308 10.182 10.7841 9.49376C11.4374 8.80553 12.3429 8.45819 13.4877 8.45819H13.6688V4.88195C12.6404 4.83693 11.8319 5.06205 11.2239 5.55732C10.6224 6.05259 10.1438 6.70867 9.80096 7.53841V5.01703H6.36644V14.0734C4.76237 12.9349 3.70808 11.0761 3.70808 8.9599C3.70808 5.493 6.53461 2.68861 10.0144 2.68861C12.5757 2.68861 14.7749 4.20658 15.7645 6.38063C16.0491 5.31934 16.5148 4.33523 17.1163 3.4476C15.4669 1.35074 12.8991 0 10.0079 0C5.02756 0 0.997981 4.01362 0.997981 8.96633C0.985045 12.6198 3.19064 15.7586 6.34703 17.1544Z" fill="#DC1518"/>
<path d="M25.3245 5.65379C24.0373 5.65379 22.9507 6.50283 22.595 7.66704H28.054C27.6982 6.50283 26.6116 5.65379 25.3245 5.65379Z" fill="#DC1518"/>
</svg>
