<svg width="92" height="97" viewBox="0 0 92 97" fill="none" xmlns="http://www.w3.org/2000/svg">
<g filter="url(#filter0_d_270_1044)">
<rect x="0.5" y="1" width="87" height="87" rx="7.5" fill="white" stroke="#C6C6C6"/>
</g>
<mask id="mask0_270_1044" style="mask-type:luminance" maskUnits="userSpaceOnUse" x="22" y="25" width="44" height="40">
<path d="M63.0175 41.9632C62.2851 39.7591 62.6243 37.2629 61.8556 35.0267C61.2463 33.2546 60.1611 31.6555 58.8092 30.3661C56.0313 27.7164 52.2213 26.3401 48.4779 25.7941C47.3708 25.6329 46.2527 25.5435 45.1337 25.5249C41.5895 25.4675 38.0538 26.2008 34.9036 27.848C29.7646 30.5357 26.0828 35.3322 23.7124 40.5295C23.2053 41.6409 22.7547 42.7775 22.3623 43.9345C19.6788 51.8481 32.7839 52.2684 32.7839 52.2684L39.501 57.8446L40.3786 63.9018C41.7979 64.5372 44.392 64.6022 47.2763 64.3929C50.5065 64.1583 53.3984 62.2731 54.9072 59.4082C55.2524 58.7517 55.552 58.2572 55.7545 58.0547C56.7182 57.0952 57.0928 57.7788 60.2168 57.6556C63.3407 57.5315 64.5238 56.3029 64.1238 54.7156C63.7239 53.1291 64.3584 52.1882 64.739 51.7359C65.1204 51.2836 64.5348 50.6862 64.5348 50.6862C65.1593 50.4735 65.2875 49.8887 65.2934 49.2972C65.2993 48.7056 64.5711 48.6963 64.4681 47.1572C65.8639 46.477 65.5837 45.4264 65.4259 45.0787C65.2673 44.7336 63.4192 43.1716 63.0175 41.9632Z" fill="white"/>
</mask>
<g mask="url(#mask0_270_1044)">
<path d="M22.3439 28.8865C21.9574 26.9009 23.2535 24.9786 25.2391 24.5921C27.2247 24.2056 29.147 25.5017 29.5335 27.4873C29.92 29.4729 28.6238 31.3952 26.6382 31.7817C24.6527 32.1682 22.7303 30.872 22.3439 28.8865ZM75.7059 43.994C74.4967 37.7815 69.0656 33.4652 62.9704 33.4382C63.005 32.6408 62.9502 31.8264 62.7907 31.0088C61.7021 25.414 56.2837 21.7618 50.689 22.8504C45.0942 23.9389 41.442 29.3573 42.5306 34.9521C42.6884 35.7613 42.9382 36.5276 43.2647 37.2474C42.5787 37.2313 41.8817 37.2854 41.1804 37.4221C38.7526 37.8946 36.7173 39.2397 35.3325 41.0675C34.0068 39.2684 31.7267 38.287 29.3875 38.7418C26.1505 39.3722 24.0375 42.5063 24.6678 45.7433C25.2982 48.9803 28.4323 51.0934 31.6693 50.463C32.4389 50.3128 33.1427 50.0183 33.7638 49.6175C35.1468 54.3506 39.9349 57.3362 44.8706 56.375C46.3693 56.0831 47.7178 55.4586 48.857 54.5937C48.5169 55.4358 48.4047 56.3826 48.5912 57.3404C49.1051 59.9783 51.6594 61.7006 54.2973 61.1876C55.8787 60.8796 57.1259 59.8357 57.7647 58.483C60.0878 59.4796 62.7232 59.8146 65.3915 59.2948C72.4647 57.9168 77.0823 51.0672 75.7059 43.994ZM37.983 37.0676C40.1171 36.6525 41.5104 34.5859 41.0952 32.4517C40.68 30.3176 38.6134 28.9244 36.4793 29.3396C34.3452 29.7548 32.952 31.8214 33.3671 33.9555C33.7823 36.0896 35.8498 37.4828 37.983 37.0676Z" fill="white"/>
</g>
<mask id="mask1_270_1044" style="mask-type:luminance" maskUnits="userSpaceOnUse" x="22" y="25" width="44" height="40">
<path d="M63.0175 41.9632C62.2851 39.7591 62.6243 37.2629 61.8556 35.0267C61.2463 33.2546 60.1611 31.6555 58.8092 30.3661C56.0313 27.7164 52.2213 26.3401 48.4779 25.7941C47.3708 25.6329 46.2527 25.5435 45.1337 25.5249C41.5895 25.4675 38.0538 26.2008 34.9036 27.848C29.7646 30.5357 26.0828 35.3322 23.7124 40.5295C23.2053 41.6409 22.7547 42.7775 22.3623 43.9345C19.6788 51.8481 32.7839 52.2684 32.7839 52.2684L39.501 57.8446L40.3786 63.9018C41.7979 64.5372 44.392 64.6022 47.2763 64.3929C50.5065 64.1583 53.3984 62.2731 54.9072 59.4082C55.2524 58.7517 55.552 58.2572 55.7545 58.0547C56.7182 57.0952 57.0928 57.7788 60.2168 57.6556C63.3407 57.5315 64.5238 56.3029 64.1238 54.7156C63.7239 53.1291 64.3584 52.1882 64.739 51.7359C65.1204 51.2836 64.5348 50.6862 64.5348 50.6862C65.1593 50.4735 65.2875 49.8887 65.2934 49.2972C65.2993 48.7056 64.5711 48.6963 64.4681 47.1572C65.8639 46.477 65.5837 45.4264 65.4259 45.0787C65.2673 44.7336 63.4192 43.1716 63.0175 41.9632Z" fill="white"/>
</mask>
<g mask="url(#mask1_270_1044)">
<path d="M34.7613 48.8287C37.0928 46.4972 37.0928 42.7171 34.7613 40.3855C32.4298 38.054 28.6497 38.054 26.3181 40.3855C23.9866 42.7171 23.9866 46.4972 26.3181 48.8287C28.6497 51.1602 32.4298 51.1602 34.7613 48.8287Z" fill="white"/>
<path d="M52.5398 48.6035C53.4771 43.355 49.9823 38.3405 44.7338 37.4032C39.4854 36.4659 34.4709 39.9608 33.5336 45.2092C32.5963 50.4577 36.0912 55.4722 41.3396 56.4095C46.588 57.3468 51.6025 53.8519 52.5398 48.6035Z" fill="white"/>
<path d="M28.6826 30.6306C30.0291 29.1213 29.8971 26.8062 28.3878 25.4597C26.8785 24.1133 24.5634 24.2453 23.2169 25.7546C21.8705 27.2639 22.0025 29.5789 23.5118 30.9254C25.0211 32.2719 27.3361 32.1399 28.6826 30.6306Z" fill="white"/>
<path d="M72.1357 55.7182C77.2311 50.6228 77.2311 42.3615 72.1357 37.2661C67.0403 32.1707 58.7791 32.1707 53.6837 37.2661C48.5883 42.3615 48.5883 50.6228 53.6837 55.7182C58.7791 60.8136 67.0403 60.8136 72.1357 55.7182Z" fill="white"/>
<path d="M59.9703 40.2837C64.0006 36.2534 64.0006 29.719 59.9703 25.6887C55.94 21.6584 49.4056 21.6584 45.3753 25.6887C41.345 29.719 41.345 36.2534 45.3753 40.2837C49.4056 44.314 55.94 44.314 59.9703 40.2837Z" fill="white"/>
<path d="M58.1556 55.4866C58.6687 58.1245 56.9464 60.6797 54.3085 61.1927C51.6706 61.7058 49.1154 59.9835 48.6023 57.3456C48.0893 54.7077 49.8116 52.1525 52.4495 51.6394C55.0874 51.1264 57.6417 52.8487 58.1556 55.4866Z" fill="white"/>
<path d="M37.5046 37.1378C39.6739 36.9932 41.3153 35.1174 41.1707 32.9481C41.0262 30.7787 39.1504 29.1373 36.981 29.2819C34.8117 29.4265 33.1703 31.3023 33.3149 33.4716C33.4595 35.641 35.3353 37.2823 37.5046 37.1378Z" fill="white"/>
</g>
<mask id="mask2_270_1044" style="mask-type:luminance" maskUnits="userSpaceOnUse" x="22" y="25" width="44" height="40">
<path d="M63.0175 41.9632C62.2851 39.7591 62.6243 37.2629 61.8556 35.0267C61.2463 33.2546 60.1611 31.6555 58.8092 30.3661C56.0313 27.7164 52.2213 26.3401 48.4779 25.7941C47.3708 25.6329 46.2527 25.5435 45.1337 25.5249C41.5895 25.4675 38.0538 26.2008 34.9036 27.848C29.7646 30.5357 26.0828 35.3322 23.7124 40.5295C23.2053 41.6409 22.7547 42.7775 22.3623 43.9345C19.6788 51.8481 32.7839 52.2684 32.7839 52.2684L39.501 57.8446L40.3786 63.9018C41.7979 64.5372 44.392 64.6022 47.2763 64.3929C50.5065 64.1583 53.3984 62.2731 54.9072 59.4082C55.2524 58.7517 55.552 58.2572 55.7545 58.0547C56.7182 57.0952 57.0928 57.7788 60.2168 57.6556C63.3407 57.5315 64.5238 56.3029 64.1238 54.7156C63.7239 53.1291 64.3584 52.1882 64.739 51.7359C65.1204 51.2836 64.5348 50.6862 64.5348 50.6862C65.1593 50.4735 65.2875 49.8887 65.2934 49.2972C65.2993 48.7056 64.5711 48.6963 64.4681 47.1572C65.8639 46.477 65.5837 45.4264 65.4259 45.0787C65.2673 44.7336 63.4192 43.1716 63.0175 41.9632Z" fill="white"/>
</mask>
<g mask="url(#mask2_270_1044)">
<path d="M34.7613 48.8287C37.0928 46.4972 37.0928 42.7171 34.7613 40.3855C32.4298 38.054 28.6497 38.054 26.3181 40.3855C23.9866 42.7171 23.9866 46.4972 26.3181 48.8287C28.6497 51.1602 32.4298 51.1602 34.7613 48.8287Z" fill="#E22126"/>
<path opacity="0.5" d="M52.5398 48.6035C53.4771 43.355 49.9823 38.3405 44.7338 37.4032C39.4854 36.4659 34.4709 39.9608 33.5336 45.2092C32.5963 50.4577 36.0912 55.4722 41.3396 56.4095C46.588 57.3468 51.6025 53.8519 52.5398 48.6035Z" fill="#A7A9AC"/>
<path opacity="0.5" d="M28.6826 30.6306C30.0291 29.1213 29.8971 26.8062 28.3878 25.4597C26.8785 24.1133 24.5634 24.2453 23.2169 25.7546C21.8705 27.2639 22.0025 29.5789 23.5118 30.9254C25.0211 32.2719 27.3361 32.1399 28.6826 30.6306Z" fill="#D1D3D5"/>
<path d="M72.1357 55.7182C77.2311 50.6228 77.2311 42.3615 72.1357 37.2661C67.0403 32.1707 58.7791 32.1707 53.6837 37.2661C48.5883 42.3615 48.5883 50.6228 53.6837 55.7182C58.7791 60.8136 67.0403 60.8136 72.1357 55.7182Z" fill="#E22126"/>
<path d="M59.9703 40.2837C64.0006 36.2534 64.0006 29.719 59.9703 25.6887C55.94 21.6584 49.4056 21.6584 45.3753 25.6887C41.345 29.719 41.345 36.2534 45.3753 40.2837C49.4056 44.314 55.94 44.314 59.9703 40.2837Z" fill="#696A6D"/>
<path opacity="0.5" d="M58.1556 55.4866C58.6687 58.1245 56.9464 60.6797 54.3085 61.1927C51.6706 61.7058 49.1154 59.9835 48.6023 57.3456C48.0893 54.7077 49.8116 52.1525 52.4495 51.6394C55.0874 51.1264 57.6417 52.8487 58.1556 55.4866Z" fill="#696A6D"/>
<path opacity="0.5" d="M37.5046 37.1378C39.6739 36.9932 41.3153 35.1174 41.1707 32.9481C41.0262 30.7787 39.1504 29.1373 36.981 29.2819C34.8117 29.4265 33.1703 31.3023 33.3149 33.4716C33.4595 35.641 35.3353 37.2823 37.5046 37.1378Z" fill="#A7A9AC"/>
</g>
<path d="M50.5258 19.7919L51.2296 21.8264L49.4651 20.5944L47.7478 21.8922L48.374 19.8324L46.6086 18.6004L48.7605 18.5599L49.3866 16.5L50.0912 18.5345L52.2431 18.4932L50.5258 19.7919Z" fill="#E22126"/>
<path d="M56.7721 22.0661L57.3485 23.731L55.9038 22.7226L54.498 23.7859L55.011 22.0999L53.5655 21.0914L55.3275 21.0577L55.8397 19.3717L56.416 21.0366L58.178 21.0037L56.7721 22.0661Z" fill="#E22126"/>
<path d="M61.9924 26.4115L62.4405 27.7076L61.3165 26.9228L60.222 27.7498L60.6211 26.4376L59.4963 25.6528L60.8675 25.6267L61.2667 24.3145L61.7148 25.6106L63.086 25.5845L61.9924 26.4115Z" fill="#E22126"/>
<path d="M41.5526 19.7919L40.8488 21.8264L42.6141 20.5944L44.3305 21.8922L43.7044 19.8324L45.4698 18.6004L43.3179 18.5599L42.6918 16.5L41.988 18.5345L39.8353 18.4932L41.5526 19.7919Z" fill="#E22126"/>
<path d="M35.3062 22.0661L34.7298 23.731L36.1745 22.7226L37.5804 23.7859L37.0673 22.0999L38.5128 21.0914L36.7509 21.0577L36.2387 19.3717L35.6623 21.0366L33.9003 21.0037L35.3062 22.0661Z" fill="#E22126"/>
<path d="M30.0859 26.4115L29.6379 27.7076L30.7627 26.9228L31.8564 27.7498L31.4572 26.4376L32.5821 25.6528L31.2108 25.6267L30.8117 24.3145L30.3636 25.6106L28.9923 25.5845L30.0859 26.4115Z" fill="#E22126"/>
<path d="M12.8789 76.5V67.9102H16.5293C17.4473 67.9102 18.1133 67.9883 18.5273 68.1445C18.9453 68.2969 19.2793 68.5703 19.5293 68.9648C19.7793 69.3594 19.9043 69.8105 19.9043 70.3184C19.9043 70.9629 19.7148 71.4961 19.3359 71.918C18.957 72.3359 18.3906 72.5996 17.6367 72.709C18.0117 72.9277 18.3203 73.168 18.5625 73.4297C18.8086 73.6914 19.1387 74.1562 19.5527 74.8242L20.6016 76.5H18.5273L17.2734 74.6309C16.8281 73.9629 16.5234 73.543 16.3594 73.3711C16.1953 73.1953 16.0215 73.0762 15.8379 73.0137C15.6543 72.9473 15.3633 72.9141 14.9648 72.9141H14.6133V76.5H12.8789ZM14.6133 71.543H15.8965C16.7285 71.543 17.248 71.5078 17.4551 71.4375C17.6621 71.3672 17.8242 71.2461 17.9414 71.0742C18.0586 70.9023 18.1172 70.6875 18.1172 70.4297C18.1172 70.1406 18.0391 69.9082 17.8828 69.7324C17.7305 69.5527 17.5137 69.4395 17.2324 69.3926C17.0918 69.373 16.6699 69.3633 15.9668 69.3633H14.6133V71.543ZM25.1367 74.5195L26.7773 74.7949C26.5664 75.3965 26.2324 75.8555 25.7754 76.1719C25.3223 76.4844 24.7539 76.6406 24.0703 76.6406C22.9883 76.6406 22.1875 76.2871 21.668 75.5801C21.2578 75.0137 21.0527 74.2988 21.0527 73.4355C21.0527 72.4043 21.3223 71.5977 21.8613 71.0156C22.4004 70.4297 23.082 70.1367 23.9062 70.1367C24.832 70.1367 25.5625 70.4434 26.0977 71.0566C26.6328 71.666 26.8887 72.6016 26.8652 73.8633H22.7402C22.752 74.3516 22.8848 74.7324 23.1387 75.0059C23.3926 75.2754 23.709 75.4102 24.0879 75.4102C24.3457 75.4102 24.5625 75.3398 24.7383 75.1992C24.9141 75.0586 25.0469 74.832 25.1367 74.5195ZM25.2305 72.8555C25.2188 72.3789 25.0957 72.0176 24.8613 71.7715C24.627 71.5215 24.3418 71.3965 24.0059 71.3965C23.6465 71.3965 23.3496 71.5273 23.1152 71.7891C22.8809 72.0508 22.7656 72.4062 22.7695 72.8555H25.2305ZM28.2129 76.5V67.9102H29.8594V76.5H28.2129ZM35.1562 74.5195L36.7969 74.7949C36.5859 75.3965 36.252 75.8555 35.7949 76.1719C35.3418 76.4844 34.7734 76.6406 34.0898 76.6406C33.0078 76.6406 32.207 76.2871 31.6875 75.5801C31.2773 75.0137 31.0723 74.2988 31.0723 73.4355C31.0723 72.4043 31.3418 71.5977 31.8809 71.0156C32.4199 70.4297 33.1016 70.1367 33.9258 70.1367C34.8516 70.1367 35.582 70.4434 36.1172 71.0566C36.6523 71.666 36.9082 72.6016 36.8848 73.8633H32.7598C32.7715 74.3516 32.9043 74.7324 33.1582 75.0059C33.4121 75.2754 33.7285 75.4102 34.1074 75.4102C34.3652 75.4102 34.582 75.3398 34.7578 75.1992C34.9336 75.0586 35.0664 74.832 35.1562 74.5195ZM35.25 72.8555C35.2383 72.3789 35.1152 72.0176 34.8809 71.7715C34.6465 71.5215 34.3613 71.3965 34.0254 71.3965C33.666 71.3965 33.3691 71.5273 33.1348 71.7891C32.9004 72.0508 32.7852 72.4062 32.7891 72.8555H35.25ZM39.4629 72.1758L37.9688 71.9062C38.1367 71.3047 38.4258 70.8594 38.8359 70.5703C39.2461 70.2812 39.8555 70.1367 40.6641 70.1367C41.3984 70.1367 41.9453 70.2246 42.3047 70.4004C42.6641 70.5723 42.916 70.793 43.0605 71.0625C43.209 71.3281 43.2832 71.8184 43.2832 72.5332L43.2656 74.4551C43.2656 75.002 43.291 75.4062 43.3418 75.668C43.3965 75.9258 43.4961 76.2031 43.6406 76.5H42.0117C41.9688 76.3906 41.916 76.2285 41.8535 76.0137C41.8262 75.916 41.8066 75.8516 41.7949 75.8203C41.5137 76.0938 41.2129 76.2988 40.8926 76.4355C40.5723 76.5723 40.2305 76.6406 39.8672 76.6406C39.2266 76.6406 38.7207 76.4668 38.3496 76.1191C37.9824 75.7715 37.7988 75.332 37.7988 74.8008C37.7988 74.4492 37.8828 74.1367 38.0508 73.8633C38.2188 73.5859 38.4531 73.375 38.7539 73.2305C39.0586 73.082 39.4961 72.9531 40.0664 72.8438C40.8359 72.6992 41.3691 72.5645 41.666 72.4395V72.2754C41.666 71.959 41.5879 71.7344 41.4316 71.6016C41.2754 71.4648 40.9805 71.3965 40.5469 71.3965C40.2539 71.3965 40.0254 71.4551 39.8613 71.5723C39.6973 71.6855 39.5645 71.8867 39.4629 72.1758ZM41.666 73.5117C41.4551 73.582 41.1211 73.666 40.6641 73.7637C40.207 73.8613 39.9082 73.957 39.7676 74.0508C39.5527 74.2031 39.4453 74.3965 39.4453 74.6309C39.4453 74.8613 39.5312 75.0605 39.7031 75.2285C39.875 75.3965 40.0938 75.4805 40.3594 75.4805C40.6562 75.4805 40.9395 75.3828 41.209 75.1875C41.4082 75.0391 41.5391 74.8574 41.6016 74.6426C41.6445 74.502 41.666 74.2344 41.666 73.8398V73.5117ZM46.4883 76.5H44.8418V70.2773H46.3711V71.1621C46.6328 70.7441 46.8672 70.4688 47.0742 70.3359C47.2852 70.2031 47.5234 70.1367 47.7891 70.1367C48.1641 70.1367 48.5254 70.2402 48.873 70.4473L48.3633 71.8828C48.0859 71.7031 47.8281 71.6133 47.5898 71.6133C47.3594 71.6133 47.1641 71.6777 47.0039 71.8066C46.8438 71.9316 46.7168 72.1602 46.623 72.4922C46.5332 72.8242 46.4883 73.5195 46.4883 74.5781V76.5ZM55.248 76.5H53.6016V73.3242C53.6016 72.6523 53.5664 72.2188 53.4961 72.0234C53.4258 71.8242 53.3105 71.6699 53.1504 71.5605C52.9941 71.4512 52.8047 71.3965 52.582 71.3965C52.2969 71.3965 52.041 71.4746 51.8145 71.6309C51.5879 71.7871 51.4316 71.9941 51.3457 72.252C51.2637 72.5098 51.2227 72.9863 51.2227 73.6816V76.5H49.5762V70.2773H51.1055V71.1914C51.6484 70.4883 52.332 70.1367 53.1562 70.1367C53.5195 70.1367 53.8516 70.2031 54.1523 70.3359C54.4531 70.4648 54.6797 70.6309 54.832 70.834C54.9883 71.0371 55.0957 71.2676 55.1543 71.5254C55.2168 71.7832 55.248 72.1523 55.248 72.6328V76.5ZM56.9238 69.4336V67.9102H58.5703V69.4336H56.9238ZM56.9238 76.5V70.2773H58.5703V76.5H56.9238ZM65.9238 76.5H64.2773V73.3242C64.2773 72.6523 64.2422 72.2188 64.1719 72.0234C64.1016 71.8242 63.9863 71.6699 63.8262 71.5605C63.6699 71.4512 63.4805 71.3965 63.2578 71.3965C62.9727 71.3965 62.7168 71.4746 62.4902 71.6309C62.2637 71.7871 62.1074 71.9941 62.0215 72.252C61.9395 72.5098 61.8984 72.9863 61.8984 73.6816V76.5H60.252V70.2773H61.7812V71.1914C62.3242 70.4883 63.0078 70.1367 63.832 70.1367C64.1953 70.1367 64.5273 70.2031 64.8281 70.3359C65.1289 70.4648 65.3555 70.6309 65.5078 70.834C65.6641 71.0371 65.7715 71.2676 65.8301 71.5254C65.8926 71.7832 65.9238 72.1523 65.9238 72.6328V76.5ZM67.4473 76.9102L69.3281 77.1387C69.3594 77.3574 69.4316 77.5078 69.5449 77.5898C69.7012 77.707 69.9473 77.7656 70.2832 77.7656C70.7129 77.7656 71.0352 77.7012 71.25 77.5723C71.3945 77.4863 71.5039 77.3477 71.5781 77.1562C71.6289 77.0195 71.6543 76.7676 71.6543 76.4004V75.4922C71.1621 76.1641 70.541 76.5 69.791 76.5C68.9551 76.5 68.293 76.1465 67.8047 75.4395C67.4219 74.8809 67.2305 74.1855 67.2305 73.3535C67.2305 72.3105 67.4805 71.5137 67.9805 70.9629C68.4844 70.4121 69.1094 70.1367 69.8555 70.1367C70.625 70.1367 71.2598 70.4746 71.7598 71.1504V70.2773H73.3008V75.8613C73.3008 76.5957 73.2402 77.1445 73.1191 77.5078C72.998 77.8711 72.8281 78.1562 72.6094 78.3633C72.3906 78.5703 72.0977 78.7324 71.7305 78.8496C71.3672 78.9668 70.9062 79.0254 70.3477 79.0254C69.293 79.0254 68.5449 78.8438 68.1035 78.4805C67.6621 78.1211 67.4414 77.6641 67.4414 77.1094C67.4414 77.0547 67.4434 76.9883 67.4473 76.9102ZM68.918 73.2598C68.918 73.9199 69.0449 74.4043 69.2988 74.7129C69.5566 75.0176 69.873 75.1699 70.248 75.1699C70.6504 75.1699 70.9902 75.0137 71.2676 74.7012C71.5449 74.3848 71.6836 73.918 71.6836 73.3008C71.6836 72.6562 71.5508 72.1777 71.2852 71.8652C71.0195 71.5527 70.6836 71.3965 70.2773 71.3965C69.8828 71.3965 69.5566 71.5508 69.2988 71.8594C69.0449 72.1641 68.918 72.6309 68.918 73.2598Z" fill="#48484A"/>
<defs>
<filter id="filter0_d_270_1044" x="-4" y="0.5" width="96" height="96" filterUnits="userSpaceOnUse" color-interpolation-filters="sRGB">
<feFlood flood-opacity="0" result="BackgroundImageFix"/>
<feColorMatrix in="SourceAlpha" type="matrix" values="0 0 0 0 0 0 0 0 0 0 0 0 0 0 0 0 0 0 127 0" result="hardAlpha"/>
<feOffset dy="4"/>
<feGaussianBlur stdDeviation="2"/>
<feComposite in2="hardAlpha" operator="out"/>
<feColorMatrix type="matrix" values="0 0 0 0 0 0 0 0 0 0 0 0 0 0 0 0 0 0 0.25 0"/>
<feBlend mode="normal" in2="BackgroundImageFix" result="effect1_dropShadow_270_1044"/>
<feBlend mode="normal" in="SourceGraphic" in2="effect1_dropShadow_270_1044" result="shape"/>
</filter>
</defs>
</svg>
