<svg width="39" height="34" viewBox="0 0 39 34" fill="none" xmlns="http://www.w3.org/2000/svg">
<path d="M8.25219 17.1544L8.25865 17.1608C9.37115 17.6496 10.6065 17.9262 11.9001 17.9262C14.7849 17.9262 17.3527 16.5755 19.0085 14.4786C19.209 14.2278 19.3966 13.9641 19.5648 13.6875C19.7265 13.4238 19.8752 13.1536 20.011 12.8706C20.1404 12.6005 20.2633 12.3303 20.3733 12.0473C20.729 11.0889 20.923 10.0469 20.923 8.96633C20.923 8.04654 21.1235 7.17178 21.4793 6.38706C22.4689 4.20658 24.6745 2.69504 27.2294 2.69504C30.7156 2.69504 33.5421 5.50587 33.5421 8.96633C33.5421 9.33296 33.5098 9.69316 33.4451 10.0469H24.4416C24.5322 10.465 24.7198 10.8445 24.972 11.1725C25.4895 11.8415 26.3109 12.2724 27.2294 12.2724C28.1478 12.2724 28.9628 11.8415 29.4867 11.1725H33.1411C32.2421 13.5524 29.9395 15.244 27.2358 15.244C24.681 15.244 22.4754 13.7261 21.4858 11.552C21.1947 12.6133 20.7355 13.5974 20.1339 14.4851C21.7833 16.5819 24.3511 17.9327 27.2358 17.9327C32.2162 17.9327 36.2522 13.919 36.2522 8.97276C36.2522 4.02005 32.2162 0.00643223 27.2358 0.00643223C24.3511 0.00643223 21.7833 1.35717 20.1339 3.45403C19.9334 3.70488 19.7459 3.97503 19.5777 4.24518C19.0408 5.10065 18.6463 6.05903 18.4264 7.0753C18.297 7.68634 18.2259 8.31669 18.2259 8.96633C18.2259 9.88612 18.0254 10.7609 17.6696 11.5456C16.68 13.7196 14.4744 15.2376 11.9196 15.2376C11.8484 15.2376 11.7773 15.2312 11.7061 15.2248V12.7098C11.7061 11.2562 12.036 10.182 12.6892 9.49376C13.3425 8.80553 14.248 8.45819 15.3929 8.45819H15.574V4.88195C14.5456 4.83693 13.7371 5.06205 13.1291 5.55732C12.5275 6.05259 12.0489 6.70867 11.7061 7.53841V5.01703H8.27159V14.0734C6.66752 12.9349 5.61323 11.0761 5.61323 8.9599C5.61323 5.493 8.43976 2.68861 11.9196 2.68861C14.4809 2.68861 16.68 4.20658 17.6696 6.38063C17.9542 5.31934 18.4199 4.33523 19.0214 3.4476C17.3721 1.35074 14.8043 0 11.9131 0C6.93271 0 2.90313 4.01362 2.90313 8.96633C2.8902 12.6198 5.09579 15.7586 8.25219 17.1544Z" fill="#F9F2F2"/>
<path d="M27.2295 5.65381C25.9424 5.65381 24.8557 6.50284 24.5 7.66705H29.959C29.6033 6.50284 28.5166 5.65381 27.2295 5.65381Z" fill="#F9F2F2"/>
<path d="M8.78955 33.9998C4.44304 33.9998 0.905029 30.4814 0.905029 26.1591C0.905029 21.8367 4.44304 18.3184 8.78955 18.3184C13.1361 18.3184 16.6741 21.8367 16.6741 26.1591C16.6741 30.4879 13.1361 33.9998 8.78955 33.9998ZM8.78955 18.5049C4.54006 18.5049 1.08613 21.9396 1.08613 26.1655C1.08613 30.3914 4.54006 33.8261 8.78955 33.8261C13.039 33.8261 16.493 30.3914 16.493 26.1655C16.493 21.9396 13.039 18.5049 8.78955 18.5049Z" fill="#F9F2F2"/>
<path d="M8.82202 32.1732C5.42631 32.1732 2.81323 29.6776 2.81323 26.2814C2.81323 22.8467 5.48452 20.3896 8.82202 20.3896C12.1789 20.3896 14.8308 22.8853 14.8308 26.2428C14.8308 29.7162 12.1789 32.1732 8.82202 32.1732ZM11.4933 26.2814C11.4933 24.8021 10.3679 23.4835 8.80262 23.4835C7.33438 23.4835 6.15073 24.7635 6.15073 26.2814C6.15073 27.7994 7.31497 29.0794 8.82202 29.0794C10.3873 29.0794 11.4933 27.7608 11.4933 26.2814Z" fill="#F9F2F2"/>
<path d="M22.5022 31.8386V25.6831C22.5022 24.1844 21.9783 23.4833 20.7558 23.4833C19.4105 23.4833 18.8478 24.223 18.8478 25.7217V31.8386H15.5103V20.7433H18.6214V21.9203H18.6602C19.3652 20.7819 20.3483 20.3638 21.6937 20.3638C23.7052 20.3638 25.8332 21.483 25.8332 24.7569V31.8322H22.5022V31.8386Z" fill="#F9F2F2"/>
<path d="M29.6948 27.2976C29.8759 28.5583 30.9431 29.3945 32.3079 29.3945C33.2134 29.3945 33.7955 29.0536 34.3388 28.3525H37.754C36.6867 30.771 34.6623 32.186 32.3079 32.186C29.0933 32.186 26.4026 29.6068 26.4026 26.3135C26.4026 23.1168 28.9769 20.3574 32.2497 20.3574C35.5872 20.3574 38.1356 22.9753 38.1356 26.41C38.1356 26.7316 38.1162 26.9889 38.058 27.2912H29.6948V27.2976ZM34.7981 25.0593C34.5394 23.9208 33.5303 23.1618 32.2497 23.1618C31.0466 23.1618 29.9988 23.8822 29.7401 25.0593H34.7981Z" fill="#F9F2F2"/>
</svg>
