<svg width="127" height="125" viewBox="0 0 127 125" fill="none" xmlns="http://www.w3.org/2000/svg">
<path d="M63.5 0C51.1227 0 39.0234 3.66561 28.7321 10.5332C18.4408 17.4008 10.4197 27.1619 5.68312 38.5823C0.946549 50.0027 -0.292755 62.5693 2.12193 74.6931C4.53661 86.8169 10.4968 97.9534 19.2489 106.694C28.0009 115.435 39.1517 121.387 51.2912 123.799C63.4306 126.211 76.0134 124.973 87.4485 120.242C98.8836 115.512 108.657 107.501 115.534 97.2231C122.41 86.9451 126.081 74.8613 126.081 62.5C126.081 45.924 119.487 30.0268 107.751 18.3058C96.015 6.58476 80.0974 0 63.5 0ZM52.0202 94.6L24.4648 67.081L33.6486 57.908L52.0192 76.254L93.3504 34.975L102.534 44.147L52.0202 94.6Z" fill="white"/>
</svg>
