<svg width="92" height="97" viewBox="0 0 92 97" fill="none" xmlns="http://www.w3.org/2000/svg">
<g filter="url(#filter0_d_270_1104)">
<rect x="4.5" y="1" width="87" height="87" rx="7.5" fill="white" stroke="#C6C6C6"/>
</g>
<path d="M23.0918 72.5L21.041 63.9102H22.8164L24.1113 69.8105L25.6816 63.9102H27.7441L29.25 69.9102L30.5684 63.9102H32.3145L30.2285 72.5H28.3887L26.6777 66.0781L24.9727 72.5H23.0918ZM32.5898 69.3008C32.5898 68.7539 32.7246 68.2246 32.9941 67.7129C33.2637 67.2012 33.6445 66.8105 34.1367 66.541C34.6328 66.2715 35.1855 66.1367 35.7949 66.1367C36.7363 66.1367 37.5078 66.4434 38.1094 67.0566C38.7109 67.666 39.0117 68.4375 39.0117 69.3711C39.0117 70.3125 38.707 71.0938 38.0977 71.7148C37.4922 72.332 36.7285 72.6406 35.8066 72.6406C35.2363 72.6406 34.6914 72.5117 34.1719 72.2539C33.6562 71.9961 33.2637 71.6191 32.9941 71.123C32.7246 70.623 32.5898 70.0156 32.5898 69.3008ZM34.2773 69.3887C34.2773 70.0059 34.4238 70.4785 34.7168 70.8066C35.0098 71.1348 35.3711 71.2988 35.8008 71.2988C36.2305 71.2988 36.5898 71.1348 36.8789 70.8066C37.1719 70.4785 37.3184 70.002 37.3184 69.377C37.3184 68.7676 37.1719 68.2988 36.8789 67.9707C36.5898 67.6426 36.2305 67.4785 35.8008 67.4785C35.3711 67.4785 35.0098 67.6426 34.7168 67.9707C34.4238 68.2988 34.2773 68.7715 34.2773 69.3887ZM41.8828 72.5H40.2363V66.2773H41.7656V67.1621C42.0273 66.7441 42.2617 66.4688 42.4688 66.3359C42.6797 66.2031 42.918 66.1367 43.1836 66.1367C43.5586 66.1367 43.9199 66.2402 44.2676 66.4473L43.7578 67.8828C43.4805 67.7031 43.2227 67.6133 42.9844 67.6133C42.7539 67.6133 42.5586 67.6777 42.3984 67.8066C42.2383 67.9316 42.1113 68.1602 42.0176 68.4922C41.9277 68.8242 41.8828 69.5195 41.8828 70.5781V72.5ZM44.9238 72.5V63.9102H46.5703V68.4688L48.498 66.2773H50.5254L48.3984 68.5508L50.6777 72.5H48.9023L47.3379 69.7051L46.5703 70.5078V72.5H44.9238ZM50.9414 66.2773H51.8555V65.8086C51.8555 65.2852 51.9102 64.8945 52.0195 64.6367C52.1328 64.3789 52.3379 64.1699 52.6348 64.0098C52.9355 63.8457 53.3145 63.7637 53.7715 63.7637C54.2402 63.7637 54.6992 63.834 55.1484 63.9746L54.9258 65.123C54.6641 65.0605 54.4121 65.0293 54.1699 65.0293C53.9316 65.0293 53.7598 65.0859 53.6543 65.1992C53.5527 65.3086 53.502 65.5215 53.502 65.8379V66.2773H54.7324V67.5723H53.502V72.5H51.8555V67.5723H50.9414V66.2773ZM55.6582 72.5V63.9102H57.3047V72.5H55.6582ZM58.6172 69.3008C58.6172 68.7539 58.752 68.2246 59.0215 67.7129C59.291 67.2012 59.6719 66.8105 60.1641 66.541C60.6602 66.2715 61.2129 66.1367 61.8223 66.1367C62.7637 66.1367 63.5352 66.4434 64.1367 67.0566C64.7383 67.666 65.0391 68.4375 65.0391 69.3711C65.0391 70.3125 64.7344 71.0938 64.125 71.7148C63.5195 72.332 62.7559 72.6406 61.834 72.6406C61.2637 72.6406 60.7188 72.5117 60.1992 72.2539C59.6836 71.9961 59.291 71.6191 59.0215 71.123C58.752 70.623 58.6172 70.0156 58.6172 69.3008ZM60.3047 69.3887C60.3047 70.0059 60.4512 70.4785 60.7441 70.8066C61.0371 71.1348 61.3984 71.2988 61.8281 71.2988C62.2578 71.2988 62.6172 71.1348 62.9062 70.8066C63.1992 70.4785 63.3457 70.002 63.3457 69.377C63.3457 68.7676 63.1992 68.2988 62.9062 67.9707C62.6172 67.6426 62.2578 67.4785 61.8281 67.4785C61.3984 67.4785 61.0371 67.6426 60.7441 67.9707C60.4512 68.2988 60.3047 68.7715 60.3047 69.3887ZM67.4941 72.5L65.5254 66.2773H67.125L68.291 70.3555L69.3633 66.2773H70.9512L71.9883 70.3555L73.1777 66.2773H74.8008L72.8027 72.5H71.2207L70.1484 68.498L69.0938 72.5H67.4941Z" fill="#48484A"/>
<path d="M53.9813 43.3857C53.5105 43.3488 53.0722 43.2177 52.7153 42.8787C52.506 42.6802 52.2936 42.4849 52.0887 42.282C51.9577 42.1515 51.8082 42.1019 51.6402 42.1744C51.4736 42.2463 51.401 42.3882 51.4036 42.5727C51.4074 42.8335 51.4068 43.095 51.403 43.3558C51.3883 44.3654 50.5734 45.1879 49.5676 45.1981C48.8532 45.2051 48.1388 45.2057 47.4244 45.1981C46.4212 45.1873 45.6076 44.3622 45.5942 43.3507C45.5904 43.0899 45.5898 42.8284 45.5936 42.5676C45.5961 42.3831 45.523 42.2412 45.3544 42.1719C45.1858 42.1032 45.0376 42.156 44.9059 42.2858C44.6814 42.5078 44.4581 42.7324 44.2163 42.9346C43.486 43.546 42.4688 43.5345 41.7716 42.8939C41.2563 42.42 40.7626 41.9219 40.2664 41.4276C40.0203 41.182 39.8409 40.892 39.7493 40.551C39.566 39.8671 39.7531 39.2774 40.2105 38.7628C40.3835 38.5681 40.5743 38.3887 40.7626 38.208C40.9083 38.0681 40.9535 37.9059 40.8752 37.7226C40.7976 37.5413 40.6335 37.5324 40.4605 37.5248C40.0508 37.507 39.6316 37.5235 39.2352 37.4364C38.3841 37.2493 37.809 36.4026 37.837 35.6259C37.8605 34.9675 37.8681 34.3059 37.8351 33.6481C37.7918 32.7759 38.5247 31.7574 39.7372 31.7275C39.998 31.7212 40.2594 31.7224 40.5203 31.7263C40.6876 31.7288 40.8453 31.6779 40.874 31.5119C40.8969 31.3796 40.8721 31.2033 40.797 31.0971C40.664 30.9094 40.4757 30.7606 40.3116 30.5945C40.0572 30.3369 39.8517 30.0474 39.7556 29.6937C39.5711 29.0162 39.7219 28.4049 40.1958 27.9017C40.7041 27.3622 41.2372 26.8444 41.7856 26.3457C42.4268 25.7623 43.451 25.7299 44.1419 26.2579C44.4021 26.457 44.6324 26.6968 44.8677 26.9277C45.0045 27.062 45.1483 27.1587 45.3423 27.0836C45.5535 27.0015 45.6019 26.8241 45.5955 26.6141C45.5879 26.3673 45.5904 26.1198 45.5955 25.8724C45.614 24.8882 46.4301 24.0663 47.4124 24.0549C48.1401 24.046 48.8685 24.0453 49.5969 24.0549C50.5804 24.0676 51.3883 24.8882 51.4042 25.8787C51.4087 26.1396 51.4093 26.401 51.4049 26.6618C51.401 26.861 51.4723 27.0143 51.6631 27.0855C51.8381 27.1504 51.9799 27.0811 52.1072 26.9526C52.2713 26.7865 52.4526 26.6377 52.6129 26.4684C53.3133 25.7267 54.543 25.6828 55.3198 26.4233C55.8268 26.9068 56.3344 27.3915 56.809 27.9062C57.5043 28.6606 57.4878 29.7128 56.7982 30.48C56.6239 30.6741 56.4362 30.856 56.2466 31.0354C56.101 31.1734 56.0456 31.3312 56.1194 31.5176C56.1913 31.6995 56.349 31.7224 56.5259 31.7288C56.9216 31.7428 57.323 31.739 57.7117 31.8032C58.5018 31.9343 59.2003 32.7664 59.1628 33.6538C59.1348 34.3122 59.1602 34.9725 59.1564 35.6316C59.15 36.6603 58.3529 37.4803 57.3166 37.5235C57.0425 37.535 56.767 37.5305 56.4922 37.5267C56.3274 37.5242 56.1868 37.5655 56.1226 37.7277C56.0571 37.8931 56.0787 38.0496 56.2142 38.1813C56.3815 38.3442 56.5463 38.5102 56.7104 38.6756C57.4871 39.4574 57.5507 40.5472 56.7835 41.3672C56.2778 41.9079 55.7339 42.4149 55.1963 42.9251C54.8605 43.2413 54.4374 43.3526 53.9813 43.3857ZM57.4636 33.3096C57.1512 33.3096 56.8382 33.3154 56.5259 33.3084C55.6175 33.288 54.9222 32.8363 54.6289 32.0456C54.3242 31.2243 54.5258 30.5112 55.1486 29.9069C55.2765 29.7822 55.4037 29.6568 55.5278 29.5283C55.8172 29.2287 55.8217 29.1352 55.536 28.8451C55.1505 28.4539 54.7593 28.0671 54.3668 27.6822C54.043 27.3642 53.9228 27.3724 53.5799 27.6988C53.3413 27.9252 53.1129 28.1702 52.8451 28.3572C51.7484 29.1225 50.2598 28.4501 49.9353 27.3241C49.8533 27.0391 49.8488 26.7293 49.8278 26.4296C49.8113 26.2 49.8247 25.9684 49.8247 25.7044C49.1287 25.4601 48.4531 25.6249 47.7953 25.5778C47.5898 25.5632 47.378 25.5562 47.1763 25.8088C47.1763 25.9881 47.1935 26.2343 47.1719 26.4774C47.1439 26.7897 47.1299 27.1135 47.0319 27.4068C46.6413 28.5754 45.0401 29.1498 43.9485 28.209C43.7405 28.0302 43.5554 27.8254 43.3556 27.6364C43.0961 27.3915 42.9389 27.3864 42.6883 27.6301C42.2741 28.0321 41.8651 28.4392 41.4599 28.8502C41.1768 29.1365 41.1825 29.2313 41.4764 29.5334C41.6679 29.7306 41.8759 29.9132 42.0521 30.1225C42.9955 31.2396 42.3893 32.9706 40.9554 33.239C40.6348 33.2988 40.3008 33.2861 39.9732 33.3103C39.8141 33.3217 39.6564 33.3414 39.5164 33.3554C39.3746 33.8039 39.3911 35.5534 39.5317 35.8873C39.5864 35.9013 39.6513 35.9306 39.7162 35.9325C39.977 35.9401 40.2385 35.9312 40.4993 35.9427C41.3708 35.9815 42.0388 36.3505 42.3632 37.1889C42.6787 38.0032 42.4854 38.7233 41.8632 39.3315C41.7156 39.4759 41.5667 39.6184 41.4255 39.7685C41.201 40.0077 41.1959 40.1286 41.4242 40.362C41.8473 40.794 42.2767 41.2196 42.7105 41.6407C42.9281 41.8519 43.0973 41.8506 43.3174 41.6483C43.5096 41.4715 43.682 41.2737 43.8773 41.1013C44.3919 40.6477 44.9759 40.453 45.6642 40.6254C46.4314 40.8175 47.0924 41.5033 47.1261 42.2667C47.1375 42.5269 47.1579 42.7858 47.1757 43.046C47.1865 43.2069 47.1993 43.3679 47.2139 43.5683C47.9315 43.7775 48.6465 43.6395 49.3482 43.6681C49.4958 43.6739 49.6472 43.588 49.824 43.5358C49.824 43.2559 49.8081 43.0224 49.8278 42.7922C49.8552 42.4798 49.8666 42.156 49.9608 41.8615C50.3132 40.7571 51.8165 40.0993 52.9335 40.9524C53.1937 41.1515 53.4157 41.4009 53.6568 41.6248C53.9005 41.8506 54.0621 41.8608 54.2936 41.6369C54.7281 41.2164 55.1569 40.7902 55.5793 40.3576C55.8064 40.1254 55.7994 40.0077 55.5691 39.7641C55.3808 39.5643 55.1741 39.3811 54.9915 39.1763C54.5042 38.6285 54.3636 37.9911 54.5939 37.299C54.828 36.5954 55.3108 36.1329 56.0583 36.0088C56.3809 35.9554 56.7136 35.9649 57.0405 35.9408C57.1983 35.9287 57.3554 35.9039 57.4941 35.8873C57.6156 35.442 57.6055 33.732 57.4636 33.3096Z" fill="#DC1518"/>
<path d="M52.6307 50.2282C53.0353 50.5679 53.4106 50.8821 53.7853 51.1964C53.8693 51.267 53.9596 51.3319 54.0353 51.4101C54.4813 51.8701 54.319 52.5075 53.7147 52.7206C53.4297 52.8211 53.2007 52.7244 52.9901 52.5577C52.6142 52.2594 52.2465 51.9496 51.8769 51.643C51.359 51.2136 50.845 50.7803 50.3246 50.3541C50.0498 50.1289 49.8755 49.8579 49.9697 49.4966C50.0123 49.3318 50.1096 49.1683 50.219 49.0354C50.7165 48.4317 51.228 47.8394 51.7337 47.2427C51.9646 46.9704 52.1816 46.6854 52.4278 46.4278C52.8508 45.985 53.5188 46.1154 53.7401 46.6701C53.847 46.938 53.7999 47.1854 53.6282 47.4055C53.4342 47.6543 53.2268 47.8922 53.0251 48.1352C52.9297 48.2497 52.8355 48.3655 52.7719 48.5379C52.999 48.4635 53.228 48.3948 53.4526 48.314C56.9813 47.0518 59.6716 44.7827 61.5572 41.5523C62.4516 40.0204 63.0006 38.3633 63.3073 36.6215C63.3378 36.4465 63.3442 36.2659 63.39 36.0954C63.5051 35.6647 63.8435 35.4268 64.2329 35.484C64.6807 35.5495 64.9581 35.8791 64.918 36.3536C64.8856 36.7341 64.8194 37.1138 64.7405 37.4885C64.1215 40.425 62.82 43.0148 60.7995 45.2401C58.6118 47.6498 55.9482 49.2816 52.8133 50.1474C52.7636 50.162 52.7185 50.1887 52.6307 50.2282Z" fill="#DC1518"/>
<path d="M64.619 30.4673C64.8747 30.0207 65.0993 29.6276 65.3251 29.2364C65.4072 29.0939 65.4848 28.9469 65.5809 28.8139C65.8328 28.4641 66.2794 28.3756 66.6388 28.5957C66.9785 28.8031 67.1006 29.2243 66.9098 29.6066C66.7628 29.9005 66.5873 30.181 66.4238 30.4667C66.0071 31.1925 65.5942 31.9209 65.1718 32.6436C64.8544 33.1862 64.4759 33.2995 63.9351 32.9998C62.951 32.4547 61.9713 31.9006 60.9955 31.3407C60.617 31.1232 60.4643 30.7828 60.5546 30.4546C60.6806 29.9966 61.1997 29.688 61.6564 29.9342C62.007 30.1225 62.3524 30.3197 62.701 30.5125C62.7818 30.557 62.8645 30.5977 62.9892 30.6626C62.9752 30.5386 62.9758 30.459 62.9555 30.3852C62.3632 28.2357 61.3473 26.3113 59.8867 24.6236C57.7613 22.1674 55.1015 20.5948 51.9538 19.8321C51.6745 19.7647 51.3883 19.7252 51.1115 19.6502C50.6529 19.5261 50.3882 19.1272 50.4837 18.7347C50.5886 18.3015 50.9983 18.0439 51.4678 18.1386C57.064 19.2723 61.1297 22.385 63.5967 27.5486C63.9988 28.3903 64.3047 29.2713 64.5217 30.1817C64.5395 30.2593 64.5732 30.3356 64.619 30.4673Z" fill="#DC1518"/>
<path d="M44.1304 20.1165C43.1997 20.3283 42.3422 20.7259 41.5044 21.1648C39.9318 21.9887 38.5514 23.0663 37.3643 24.3857C35.564 26.3883 34.3769 28.7052 33.8368 31.3477C33.7764 31.6423 33.7389 31.9432 33.6612 32.2333C33.5595 32.6156 33.174 32.8758 32.8215 32.8141C32.4087 32.7416 32.0938 32.3853 32.1517 32.0093C32.2146 31.6041 32.249 31.1925 32.3393 30.7937C32.9475 28.1065 34.1473 25.7114 35.9482 23.6274C37.9508 21.3105 40.4185 19.6775 43.3212 18.7016C43.3721 18.6845 43.4237 18.6698 43.5483 18.6304C43.4052 18.5642 43.32 18.5178 43.2296 18.4841C42.7799 18.3174 42.325 18.1641 41.8797 17.9866C41.5146 17.8409 41.3523 17.5483 41.3905 17.1723C41.4249 16.8396 41.6672 16.5731 42.0254 16.5095C42.1399 16.4891 42.2735 16.5025 42.3842 16.5413C43.5344 16.9459 44.6858 17.3479 45.8277 17.7741C46.301 17.951 46.4626 18.3282 46.2946 18.8028C45.9155 19.8753 45.523 20.9428 45.1286 22.0096C45.0821 22.135 45.009 22.2597 44.9199 22.3589C44.689 22.6172 44.3206 22.6776 44.0166 22.5275C43.7195 22.3805 43.5541 22.0873 43.5992 21.7495C43.619 21.6019 43.6692 21.4568 43.7163 21.3143C43.8499 20.9123 43.9892 20.5115 44.126 20.1107L44.1489 20.091L44.1304 20.1165Z" fill="#DC1518"/>
<path d="M32.3775 38.0242C32.0791 38.4313 31.8228 38.7869 31.5594 39.1374C31.4691 39.2577 31.3743 39.3792 31.261 39.4765C30.9709 39.7265 30.6128 39.7329 30.3163 39.509C30.0154 39.2825 29.9143 38.8925 30.0778 38.5528C30.1306 38.4428 30.2044 38.341 30.2769 38.2417C30.9003 37.388 31.5257 36.5349 32.1516 35.6825C32.2083 35.6049 32.2693 35.5298 32.3361 35.4611C32.6383 35.15 32.9691 35.0928 33.3387 35.325C33.6638 35.5292 33.9672 35.7671 34.2796 35.9917C34.9036 36.4408 35.5264 36.8918 36.1505 37.3409C36.3687 37.4981 36.5417 37.6775 36.5653 37.9688C36.5907 38.2875 36.4838 38.535 36.216 38.7074C35.9482 38.8792 35.6683 38.8893 35.4024 38.7125C35.0824 38.4994 34.7745 38.2691 34.4615 38.0458C34.3063 37.9351 34.1517 37.8225 33.9252 37.6597C34.0073 37.9733 34.0607 38.2163 34.1339 38.4536C35.4297 42.6547 38.066 45.7178 41.9904 47.6765C42.9993 48.1797 44.0681 48.5283 45.1661 48.7885C45.6114 48.8941 45.8474 49.1301 45.8779 49.4762C45.9237 50.0029 45.5503 50.3986 45.0255 50.3223C44.5942 50.2593 44.1673 50.1455 43.7487 50.0201C40.8981 49.1645 38.4432 47.6568 36.4069 45.4882C34.5003 43.4588 33.1943 41.0892 32.4856 38.3931C32.4576 38.2869 32.4239 38.1826 32.3775 38.0242Z" fill="#DC1518"/>
<path d="M48.4817 38.7666C46.3817 38.778 44.3059 37.1215 44.3225 34.608C44.3397 32.0227 46.4873 30.4654 48.5147 30.4788C50.6433 30.4928 52.6879 32.1448 52.6726 34.6411C52.6574 37.2067 50.5345 38.8003 48.4817 38.7666ZM51.1172 34.6322C51.0905 33.3408 50.1535 32.0571 48.5166 32.0412C46.9428 32.0265 45.9065 33.2397 45.8887 34.5966C45.8709 35.9351 46.8836 37.2112 48.502 37.208C50.1096 37.2061 51.0778 35.9554 51.1172 34.6322Z" fill="#DC1518"/>
<defs>
<filter id="filter0_d_270_1104" x="0" y="0.5" width="96" height="96" filterUnits="userSpaceOnUse" color-interpolation-filters="sRGB">
<feFlood flood-opacity="0" result="BackgroundImageFix"/>
<feColorMatrix in="SourceAlpha" type="matrix" values="0 0 0 0 0 0 0 0 0 0 0 0 0 0 0 0 0 0 127 0" result="hardAlpha"/>
<feOffset dy="4"/>
<feGaussianBlur stdDeviation="2"/>
<feComposite in2="hardAlpha" operator="out"/>
<feColorMatrix type="matrix" values="0 0 0 0 0 0 0 0 0 0 0 0 0 0 0 0 0 0 0.25 0"/>
<feBlend mode="normal" in2="BackgroundImageFix" result="effect1_dropShadow_270_1104"/>
<feBlend mode="normal" in="SourceGraphic" in2="effect1_dropShadow_270_1104" result="shape"/>
</filter>
</defs>
</svg>
